<?xml version="1.0" standalone="no"?>
<!DOCTYPE svg PUBLIC "-//W3C//DTD SVG 1.1//EN" "http://www.w3.org/Graphics/SVG/1.1/DTD/svg11.dtd" >
<svg xmlns="http://www.w3.org/2000/svg">
<metadata></metadata>
<defs>
<font id="pf_din_text_cond_proXBlkIt" horiz-adv-x="1818" >
<font-face units-per-em="1000" ascent="750" descent="-250" />
<missing-glyph horiz-adv-x="264" />
<glyph unicode="fj" horiz-adv-x="583" d="M599 497l-99 -542q-15 -77 -65.5 -119.5t-143.5 -42.5h-12h-21t-21 0.5t-12 1.5l29 154h17q29 0 43.5 15t20.5 47l66 356h-106l-81 -442h-176l82 442h-49l24 130h48l12 63q17 91 81 139t159 48q22 0 47.5 -2.5t50.5 -9t48 -19.5t42 -34q-23 -31 -45.5 -61.5t-45.5 -61.5 q-18 17 -38 25.5t-52 8.5q-21 0 -34.5 -6.5t-22.5 -17t-14 -23.5t-7 -25l-5 -24h280z" />
<glyph unicode="ffj" horiz-adv-x="861" d="M877 496q-26 -136 -49.5 -270.5t-49.5 -270.5q-15 -77 -65.5 -119.5t-143.5 -42.5h-33t-33 2l29 154h17q29 0 43.5 15t20.5 47l66 355h-106l-82 -440h-175l82 440h-103l-82 -440h-175l81 440h-49l24 130h49l9 48q17 93 82.5 140t162.5 47q31 0 64.5 -5t63.5 -19 q66 49 156 49q22 0 46 -2t47.5 -9t46 -20t42.5 -34q-24 -31 -47 -61.5t-47 -61.5q-17 18 -36.5 26t-50.5 8q-21 0 -35 -6.5t-23 -15.5t-13 -19.5t-5 -17.5l-9 -47h280zM421 496l9 44q1 4 3.5 15t4.5 13q-20 6 -46 6q-34 0 -50 -19.5t-21 -42.5l-3 -16h103z" />
<glyph unicode="ff" horiz-adv-x="631" d="M641 750q20 0 43.5 -0.5t44.5 -2.5l-28 -150q-11 1 -21.5 1h-20.5q-22 0 -32.5 -8.5t-15.5 -32.5l-12 -61h83l-24 -130h-83q-24 -131 -48 -260t-47 -260h-175l95 520h-105l-96 -520h-175l95 520h-49l24 130h49l8 46q9 46 32 81t56.5 58.5t75 35.5t87.5 12q27 0 56.5 -4 t55.5 -15q25 20 56 30t71 10zM393 574q-19 0 -32 -6.5t-21 -15.5t-12.5 -19t-5.5 -17l-3 -20h105l6 30t5 30l3 11q-18 7 -45 7z" />
<glyph unicode="fi" horiz-adv-x="583" d="M319 496h281l-91 -496h-176l67 366h-105l-96 -521h-176l96 521h-49l24 130h49l12 63q17 91 81 139t159 48q22 0 47.5 -2.5t50.5 -9t48 -19.5t42 -34q-23 -31 -45.5 -61.5t-45.5 -61.5q-18 17 -38 25.5t-52 8.5q-21 0 -34.5 -6.5t-22.5 -17t-14 -23.5t-7 -25z" />
<glyph unicode="fl" horiz-adv-x="607" d="M445 585q-9 4 -23 5.5t-28 1.5q-19 0 -32 -6.5t-21 -15.5t-12.5 -19.5t-5.5 -17.5l-8 -36h79l-25 -130h-78l-96 -522h-175l96 522h-46l25 130h45l12 62q9 46 31 81.5t54.5 59t75 35.5t91.5 12q15 0 39 -1.5t55 -5.5t68 -12.5t77 -21.5l-97 -514q-4 -20 6.5 -31t37.5 -15 l-27 -148h-29q-38 0 -69 7t-53.5 22t-35 40t-12.5 61q0 11 1.5 23t3.5 26z" />
<glyph unicode="ffi" horiz-adv-x="861" d="M596 496h282l-92 -496h-176l68 366h-105q-24 -131 -48 -260t-47 -260h-175q23 131 47 260t48 260h-103q-24 -131 -48 -260t-47 -260h-176q24 131 48 260t47 260h-49l24 130h48l9 48q17 93 82.5 140t162.5 47q31 0 64.5 -5t63.5 -19q66 49 156 49q22 0 46 -2t47.5 -9 t46 -20t42.5 -34q-24 -31 -47 -61.5t-47 -61.5q-17 18 -36.5 26t-50.5 8q-21 0 -35 -6.5t-23 -15.5t-13 -19.5t-5 -17.5zM420 496l9 44q1 4 3.5 15t4.5 13q-20 6 -46 6q-34 0 -50 -19.5t-21 -42.5l-3 -16h103z" />
<glyph unicode="ffl" horiz-adv-x="882" d="M682 757q15 0 38.5 -1.5t54 -5.5t67 -12.5t76.5 -21.5l-100 -524q-4 -20 6.5 -31t37.5 -15l-27 -148h-29q-38 0 -69 7t-53.5 22t-35 40t-12.5 61q0 11 1.5 23t3.5 26l79 418q-9 4 -21.5 5.5t-22.5 1.5q-19 0 -32 -6.5t-21 -15.5t-12.5 -19t-5.5 -17l-10 -47h74l-25 -130 h-73l-97 -521h-176l97 521h-103l-96 -520h-175l96 520h-46l24 130h46l10 47q18 94 83.5 140.5t165.5 46.5q31 0 62 -4.5t60 -18.5q33 23 71 35.5t89 13.5zM434 570q-8 3 -18 5t-23 2q-19 0 -32 -6.5t-21 -15.5t-12.5 -19.5t-6.5 -17.5l-5 -21h103z" />
<glyph unicode="ft" horiz-adv-x="632" d="M417 496l25 134h174l-25 -134h74l-24 -130h-73l-31 -164q-5 -24 1.5 -36t37.5 -12h27l-28 -154h-71q-51 0 -83.5 12t-49.5 34.5t-20 54.5t4 71l36 194h-96l-96 -520h-176l96 520h-49l24 130h49l12 65q15 80 64 128t138 48q36 0 74 -3l-28 -149q-8 0 -13 0.5t-13 0.5 q-26 0 -36.5 -13.5t-14.5 -36.5l-7 -40h98z" />
<glyph unicode=" "  horiz-adv-x="264" />
<glyph unicode="&#x09;" horiz-adv-x="264" />
<glyph unicode="&#xa0;" horiz-adv-x="264" />
<glyph unicode="!" horiz-adv-x="324" d="M260 208h-158l78 488h181zM54 0l28 153h177l-27 -153h-178z" />
<glyph unicode="&#x22;" horiz-adv-x="383" d="M273 445l46 251h128l-46 -251h-128zM106 445l46 251h126l-46 -251h-126z" />
<glyph unicode="#" horiz-adv-x="564" d="M65 309h85l29 82h-71l20 107h88l67 198h128l-67 -198h70l68 198h129l-67 -198h76l-20 -107h-93l-29 -82h77l-19 -105h-93l-69 -204h-130l69 204h-69l-69 -204h-130l70 204h-69zM279 309h70l29 82h-70z" />
<glyph unicode="$" horiz-adv-x="530" d="M352 544q-23 0 -39 -14.5t-16 -37.5q0 -18 20 -31.5t62 -31.5q82 -35 115 -79t33 -105q0 -52 -16.5 -96t-47.5 -76.5t-75.5 -52t-99.5 -23.5l-17 -93h-65l17 96q-69 5 -115.5 38.5t-72.5 83.5l136 106q38 -76 100 -76q39 0 56 20.5t17 46.5q0 23 -20 37t-62 32 q-67 29 -108.5 78t-41.5 116q0 51 17.5 90.5t48 67.5t71.5 44t89 18l16 91h65l-16 -92q56 -5 101 -33.5t67 -64.5l-123 -119q-20 34 -46 47t-50 13z" />
<glyph unicode="%" horiz-adv-x="863" d="M823 122q-5 -28 -16 -51.5t-29.5 -40.5t-45.5 -26.5t-63 -9.5q-33 0 -60.5 10.5t-46 29t-26.5 45t-2 59.5l31 171q11 57 49 92.5t108 35.5q33 0 60 -11t45 -30t25.5 -45t1.5 -57zM729 310q4 22 -14 22q-19 0 -22 -22l-36 -190q-3 -21 16 -21q16 0 21 21zM398 402 q-5 -28 -16 -51.5t-29.5 -40.5t-45.5 -26.5t-63 -9.5q-33 0 -60.5 10.5t-46 29t-26.5 45t-2 59.5l31 171q11 57 49 92.5t108 35.5q33 0 60 -11t45 -30t25.5 -45t1.5 -57zM304 590q4 22 -14 22q-19 0 -22 -22l-36 -190q-3 -21 16 -21q16 0 21 21zM295 -17h-128l496 730h128z " />
<glyph unicode="&#x26;" horiz-adv-x="623" d="M377 40q-33 -23 -72 -34.5t-78 -11.5q-46 0 -78 12t-51.5 33t-28 49t-8.5 60q0 68 34.5 129t112.5 109q-14 21 -23.5 53t-9.5 67q0 45 15.5 81.5t44.5 61.5t70 38.5t92 13.5q19 0 44.5 -2.5t51.5 -12.5t50.5 -28.5t41.5 -50.5l-110 -97q-25 31 -45 38t-33 7 q-24 0 -38.5 -16t-14.5 -38q0 -15 10.5 -40t24.5 -53t29.5 -56t26.5 -49q8 15 14.5 29t13.5 34l138 -36q-15 -42 -40 -90t-53 -86q19 -37 39.5 -77.5t40.5 -76.5h-191zM269 262q-13 -12 -26.5 -35t-13.5 -50q0 -37 36 -37q13 0 26.5 5t29.5 16z" />
<glyph unicode="'" horiz-adv-x="226" d="M111 445l46 251h127l-46 -251h-127z" />
<glyph unicode="(" horiz-adv-x="373" d="M196 -143q-48 78 -77.5 168t-29.5 187q0 74 21 148t57 143.5t84.5 132.5t103.5 116l100 -67q-97 -121 -145 -241t-48 -253q0 -69 13 -135.5t39 -124.5z" />
<glyph unicode=")" horiz-adv-x="373" d="M288 749q46 -75 73.5 -164t27.5 -187q0 -78 -21 -150.5t-58 -140t-86.5 -129.5t-106.5 -120l-92 73q91 114 142.5 238.5t51.5 254.5q0 66 -13 133t-42 128l124 64v0z" />
<glyph unicode="*" horiz-adv-x="457" d="M438 397l-119 -77l-34 88q-5 -5 -15 -18t-21 -27t-20.5 -26.5t-13.5 -17.5l-89 77l89 87q-6 1 -20.5 5.5t-30.5 9t-29.5 8.5t-19.5 5l56 113l90 -41q0 6 1.5 21.5t3 32t2.5 32t2 21.5h136l-31 -107q7 3 22 8.5t31.5 12t30.5 12.5t19 8l17 -113l-113 -27z" />
<glyph unicode="+" horiz-adv-x="530" d="M360 240l-29 -159h-145l29 159h-157l25 137h158l29 156h145l-29 -156h157l-25 -137h-158z" />
<glyph unicode="," horiz-adv-x="301" d="M10 -163l64 161h-35l31 174h186l-31 -164l-107 -171h-108z" />
<glyph unicode="-" horiz-adv-x="429" d="M65 190l27 147h337l-27 -147h-337z" />
<glyph unicode="." horiz-adv-x="297" d="M36 0l31 172h185l-31 -172h-185z" />
<glyph unicode="/" horiz-adv-x="365" d="M120 -41h-146l355 766h148z" />
<glyph unicode="0" horiz-adv-x="530" d="M496 192q-8 -44 -25 -80t-44.5 -62t-67 -40.5t-92.5 -14.5q-48 0 -86.5 15.5t-64 44t-36.5 68t-2 88.5l54 292q8 44 27 80.5t48 62.5t68.5 40.5t89.5 14.5q48 0 86 -15.5t63 -43.5t35 -67.5t1 -88.5zM377 502q5 24 -3.5 35.5t-24.5 11.5q-32 0 -41 -47l-58 -310 q-5 -24 4.5 -34.5t26.5 -10.5q30 0 39 45z" />
<glyph unicode="1" horiz-adv-x="530" d="M199 0l94 507l-108 -71l32 174l130 86h156l-128 -696h-176z" />
<glyph unicode="2" horiz-adv-x="530" d="M124 498q27 103 92.5 153t149.5 50q85 0 134 -39t49 -114q0 -45 -18.5 -92.5t-60.5 -95.5l-189 -215h192l-26 -145h-408l23 124l274 312q15 18 24 39t10 44q0 13 -7 21t-21 8q-17 0 -30 -15.5t-24 -59.5z" />
<glyph unicode="3" horiz-adv-x="530" d="M447 362q0 -1 -0.5 -1.5t-0.5 -1.5q30 -17 41.5 -43.5t11.5 -55.5q0 -57 -15 -105.5t-46 -84t-77 -55.5t-107 -20q-45 0 -84 10.5t-67.5 33.5t-43 60t-9.5 90l180 21q-2 -8 -2 -14v-11q0 -26 11 -32.5t22 -6.5q19 0 35.5 21t16.5 75q0 27 -10 39.5t-34 12.5h-51l24 128 h54q33 0 50.5 26.5t17.5 65.5q0 14 -7 23t-21 9q-6 0 -12.5 -2t-14 -8.5t-15 -20t-14.5 -37.5l-160 37q21 99 83 143t147 44q50 0 87 -13t61.5 -34.5t36.5 -49.5t12 -59q0 -17 -3.5 -42t-14 -51.5t-30 -51t-52.5 -39.5z" />
<glyph unicode="4" horiz-adv-x="530" d="M510 384l-26 -144h44l-27 -144h-44l-17 -96h-172l17 96h-260l23 120l267 480h168l-252 -456h81l26 144h172z" />
<glyph unicode="5" horiz-adv-x="530" d="M379 480q40 0 67 -10t43.5 -28t24 -42.5t7.5 -54.5q0 -171 -66 -260.5t-199 -89.5q-39 0 -74.5 10t-61.5 30t-41.5 51.5t-15.5 75.5v12.5t1 13.5l181 26q-4 -15 -4 -24q0 -16 4.5 -25t10 -13t10 -5t5.5 -1q14 0 24.5 8t17.5 21.5t11.5 29.5t7.5 33q1 8 3 23.5t1 30.5 t-7.5 26.5t-21.5 11.5q-7 0 -20 -4t-27 -27h-150q19 100 37 198.5t36 198.5h390l-26 -144h-220q-5 -22 -8.5 -43t-7.5 -43q17 7 35.5 10.5t32.5 3.5z" />
<glyph unicode="6" horiz-adv-x="530" d="M304 286q-23 0 -37.5 -31t-14.5 -73q0 -16 6 -25.5t20 -9.5q25 0 38.5 29.5t13.5 71.5q0 17 -6 27.5t-20 10.5zM257 -5q-50 0 -84.5 13.5t-56 36t-31.5 53t-10 64.5q0 22 3 43q4 28 10.5 49.5t17.5 45t30 54t49 77.5l169 265h185q-45 -70 -89 -138.5t-88 -138.5q4 1 14 1 q27 0 51 -6t42 -22t28 -42.5t10 -68.5q0 -62 -16.5 -114.5t-48 -90.5t-78.5 -59.5t-107 -21.5z" />
<glyph unicode="7" horiz-adv-x="530" d="M244 0h-174l299 552h-72l-15 -80h-157l41 224h413l-24 -131z" />
<glyph unicode="8" horiz-adv-x="530" d="M349 554q-23 0 -36.5 -28t-13.5 -65q0 -34 28 -34q20 0 33.5 25t16.5 60q0 20 -5.5 31t-22.5 11zM302 297q-14 0 -25.5 -11t-19.5 -28t-12 -39t-4 -43q0 -17 10 -25t24 -8q15 0 26 11.5t18.5 29t11 38.5t3.5 41q-3 34 -32 34zM370 701q46 0 80.5 -11.5t57 -32t34 -48.5 t11.5 -62q0 -18 -4.5 -43.5t-15.5 -51.5t-30.5 -49.5t-50.5 -37.5v-2q29 -15 42 -42.5t13 -62.5q0 -60 -19 -109t-52.5 -83t-80.5 -52.5t-104 -18.5q-91 0 -139.5 42t-48.5 117q0 13 3.5 41t14.5 59.5t33 61t58 46.5q0 1 0.5 1t0.5 1q-27 15 -36.5 42.5t-9.5 57.5 q0 51 17.5 94.5t49.5 75t77 49.5t99 18z" />
<glyph unicode="9" horiz-adv-x="530" d="M323 410q23 0 37.5 31t14.5 73q0 16 -6 25.5t-20 9.5q-25 0 -38.5 -29.5t-13.5 -71.5q0 -17 6 -27.5t20 -10.5zM370 701q49 0 84 -13.5t56.5 -36t31.5 -53t10 -64.5q0 -22 -3 -43q-5 -29 -11 -50t-17 -44.5t-30 -54t-49 -77.5l-169 -265h-185q45 70 89 138.5t88 138.5 q-4 -1 -14 -1q-27 0 -51 6t-42 22t-28 42.5t-10 68.5q0 62 16.5 114.5t48 90.5t78.5 59.5t107 21.5z" />
<glyph unicode=":" horiz-adv-x="302" d="M40 0l31 172h185l-31 -172h-185zM90 277l31 172h185l-31 -172h-185z" />
<glyph unicode=";" horiz-adv-x="302" d="M90 277l31 172h185l-31 -172h-185zM10 -163l64 161h-35l32 174h185l-30 -164l-108 -171h-108z" />
<glyph unicode="&#x3c;" horiz-adv-x="530" d="M54 244l23 124l502 212l-29 -169l-288 -117l243 -115l-29 -148z" />
<glyph unicode="=" horiz-adv-x="530" d="M80 331l25 132h448l-25 -132h-448zM45 137l24 133h448l-25 -133h-447z" />
<glyph unicode="&#x3e;" horiz-adv-x="530" d="M17 31l29 168l286 116l-244 117l29 148l424 -212l-24 -124z" />
<glyph unicode="?" horiz-adv-x="509" d="M106 492q30 105 93.5 157t157.5 52q92 0 140.5 -40t48.5 -115q0 -30 -8 -55.5t-20.5 -47t-29 -40t-32.5 -36.5q-23 -27 -38 -46t-25.5 -35t-16 -30.5t-8.5 -32.5l-4 -22h-172l8 45q3 17 8.5 33t14.5 32.5t23.5 35t35.5 41.5q21 25 35 43t22.5 33t12 28t3.5 28 q0 28 -25 28q-16 0 -31 -15.5t-27 -59.5zM154 0l27 153h175l-27 -153h-175z" />
<glyph unicode="@" horiz-adv-x="890" d="M673 235q25 0 43.5 19.5t31 49.5t18.5 66.5t6 69.5q0 47 -15.5 85t-44 64.5t-69 41t-91.5 14.5q-79 0 -142.5 -33t-108 -87.5t-68.5 -124.5t-24 -144q0 -109 57.5 -170.5t167.5 -61.5q63 0 117 11.5t111 34.5l28 -102q-69 -28 -131.5 -40t-129.5 -12q-77 0 -140 20.5 t-107 62t-68 103.5t-24 145q0 114 36.5 208t100 160.5t150.5 103t188 36.5q79 0 140 -22.5t102 -63t62 -97t21 -125.5q0 -75 -20 -136.5t-55 -105t-82.5 -67.5t-102.5 -24q-56 0 -85 22.5t-36 51.5q-21 -30 -53 -48t-63 -18q-37 0 -59 11.5t-33 28t-14.5 35.5t-3.5 35 q0 43 7 87.5t16 77.5q20 75 57.5 115.5t96.5 40.5q7 0 18.5 -1.5t23.5 -6t23 -13t19 -21.5h4l7 34h141l-49 -251q-4 -20 0.5 -39.5t25.5 -19.5zM494 430q-11 0 -20 -11q-17 -18 -27 -70q-4 -16 -6 -31.5t-4 -30.5q-1 -13 3 -25.5t20 -12.5q8 0 12.5 3.5t9.5 8.5q9 9 16 31.5 t15 60.5l3.5 24.5t1.5 22.5q0 30 -24 30z" />
<glyph unicode="A" horiz-adv-x="604" d="M383 123h-156l-48 -123h-191l319 696h206l62 -696h-187zM369 482l-50 -131l-30 -78h87l-1 81v128h-6z" />
<glyph unicode="B" horiz-adv-x="570" d="M481 361q0 -1 -0.5 -2t-0.5 -2q41 -16 55.5 -48.5t14.5 -68.5q0 -70 -24 -116t-63.5 -73.5t-91.5 -39t-109 -11.5h-233l128 696h253q94 0 139 -41.5t45 -119.5q-1 -20 -6.5 -45.5t-18 -50t-34 -46t-54.5 -32.5zM264 288q-6 -35 -12 -68.5t-13 -68.5h42q37 0 60 25.5 t23 62.5q0 49 -52 49h-48zM312 545l-21 -113h39q31 0 52.5 16t21.5 50q0 47 -50 47h-42z" />
<glyph unicode="C" horiz-adv-x="542" d="M367 704q54 0 93.5 -14.5t65.5 -40t39 -60.5t14 -76l-170 -43v7q0 38 -13.5 53.5t-33.5 15.5q-23 0 -36 -12.5t-21 -30.5q-4 -12 -7.5 -25t-5.5 -27q-11 -60 -21.5 -117.5t-21.5 -117.5q-1 -5 -1.5 -9.5t-0.5 -9.5q0 -20 11 -33t37 -13q22 0 39.5 17.5t30.5 59.5l177 -41 q-25 -91 -88.5 -142t-166.5 -51q-22 0 -37 4q-88 8 -136 56.5t-48 126.5q0 19 2 38t6 39l30 163q6 29 13 57.5t16 56.5q12 37 31.5 68.5t48 53.5t66.5 34.5t88 12.5z" />
<glyph unicode="D" horiz-adv-x="574" d="M408 696q36 0 67 -5.5t55 -18t39.5 -34t20.5 -54.5q3 -17 2 -44t-3.5 -59t-7 -65.5t-8.5 -61.5q-13 -79 -25 -137t-34 -96q-19 -33 -45 -56.5t-57.5 -37.5t-66 -20.5t-69.5 -6.5h-246l128 696h250zM240 153h22q34 0 58.5 10.5t37.5 41.5q11 25 18.5 59t14.5 73 q3 18 6.5 38.5t6.5 40.5t5 38.5t2 33.5q0 28 -13.5 41t-47.5 13h-38z" />
<glyph unicode="E" horiz-adv-x="519" d="M29 0l128 696h426l-29 -156h-241l-20 -107h212l-29 -156h-212l-22 -120h252l-28 -157h-437z" />
<glyph unicode="F" horiz-adv-x="512" d="M313 540l-21 -113h216l-29 -158h-216l-50 -269h-184l128 696h428l-28 -156h-244z" />
<glyph unicode="G" horiz-adv-x="564" d="M277 -6q-65 0 -108.5 20t-68.5 54.5t-31 82t4 102.5l33 177q5 27 11.5 53t15.5 52q27 77 86.5 122.5t151.5 45.5q50 0 90.5 -13t67.5 -37.5t40.5 -59.5t9.5 -79l-169 -43v4q0 38 -14 54.5t-34 16.5q-19 0 -31 -9t-20 -22.5t-12 -29.5t-7 -31l-41 -225q-2 -13 -2.5 -26.5 t4 -24t14.5 -17.5t28 -7q17 0 29.5 7.5t20.5 19t12.5 23.5t6.5 21l7 35h-57l25 134h234l-22 -136q-6 -56 -25 -104t-52 -83.5t-81.5 -56t-115.5 -20.5z" />
<glyph unicode="H" horiz-adv-x="578" d="M327 0l50 272h-114l-50 -272h-184l128 696h184l-48 -264h114l48 264h183l-128 -696h-183z" />
<glyph unicode="I" horiz-adv-x="302" d="M39 0l128 696h184l-128 -696h-184z" />
<glyph unicode="J" horiz-adv-x="487" d="M452 212q-21 -112 -80 -164.5t-165 -52.5q-57 0 -112.5 21t-96.5 80l130 116q23 -31 44 -40.5t38 -9.5q26 0 41.5 16.5t20.5 44.5l87 473h182z" />
<glyph unicode="K" horiz-adv-x="602" d="M446 402l135 -402h-201l-71 243l-65 -72l-31 -171h-184l128 696h184l-40 -215h4l183 215h216z" />
<glyph unicode="L" horiz-adv-x="505" d="M29 0l128 696h184l-99 -539h251l-28 -157h-436z" />
<glyph unicode="M" horiz-adv-x="726" d="M409 364l91 159l99 173h187l-128 -696h-178l54 293h-4l-56 -103l-40 -78h-140l-12 80l-17 104h-3l-55 -296h-178l128 696h178l34 -164l34 -168h6z" />
<glyph unicode="N" horiz-adv-x="607" d="M430 378l58 318h178l-128 -696h-160l-58 176l-47 148h-5l-59 -324h-180l128 696h161l59 -165l48 -153h5z" />
<glyph unicode="O" horiz-adv-x="568" d="M361 545q-20 0 -34.5 -12t-21.5 -32q-5 -17 -10.5 -38t-8.5 -38q-8 -42 -15 -79.5t-14 -83.5q-3 -18 -5.5 -35t-3.5 -34q0 -21 14.5 -31t34.5 -10q27 0 41 18.5t21 50.5q12 57 20.5 107.5t18.5 104.5q3 18 5.5 35t3.5 34q-1 20 -13.5 31.5t-32.5 11.5zM367 704 q60 0 105.5 -18t73.5 -51.5t38 -80.5t0 -104q-8 -44 -14.5 -88.5t-16.5 -87.5q-5 -22 -8 -36.5t-5 -25t-4.5 -20t-5.5 -21.5q-22 -85 -79 -131t-166 -46q-75 0 -129 28t-74 74q-14 33 -14.5 76t10.5 103q11 64 19 105.5t14 68.5t10.5 42.5t7.5 27.5q23 85 80.5 135t157.5 50 z" />
<glyph unicode="P" horiz-adv-x="547" d="M404 696q90 0 139.5 -41.5t49.5 -133.5q0 -61 -19 -110t-54 -83t-83.5 -52.5t-106.5 -18.5h-72q-11 -64 -23.5 -128.5t-23.5 -128.5h-182l128 696h247zM311 545l-25 -137h42q16 0 31 5.5t27 16t19 27t7 37.5q0 26 -14 38.5t-38 12.5h-49z" />
<glyph unicode="Q" horiz-adv-x="575" d="M367 704q60 0 105.5 -18t73.5 -51.5t38 -80.5t0 -104q-8 -44 -14.5 -88.5t-16.5 -87.5q-5 -22 -8 -36.5t-5 -25t-4.5 -20t-5.5 -21.5q-7 -29 -20 -57l52 -57l-95 -91l-49 54q-54 -26 -133 -26q-75 0 -129 28t-74 74q-14 33 -14.5 76t10.5 103q11 64 19 105.5t14 68.5 t10.5 42.5t7.5 27.5q23 85 80.5 135t157.5 50zM369 270l29 163q3 18 5.5 35t3.5 34q-1 20 -13.5 31.5t-32.5 11.5t-34.5 -12t-21.5 -32q-5 -17 -10.5 -38t-8.5 -38q-8 -42 -15 -79.5t-14 -83.5q-3 -18 -5.5 -35t-3.5 -34q0 -21 14.5 -31t34.5 -10h2l-38 42l94 92z" />
<glyph unicode="R" horiz-adv-x="569" d="M210 0h-181l128 696h256q41 0 74.5 -11t57.5 -32.5t37 -55t13 -78.5q0 -152 -130 -216l52 -303h-186l-34 264h-39zM310 545l-24 -130h38q13 0 28 4.5t28 14t21.5 25.5t8.5 40q0 23 -13 34.5t-35 11.5h-52z" />
<glyph unicode="S" horiz-adv-x="539" d="M343 540q-23 0 -39.5 -13t-16.5 -33q0 -23 24.5 -38t63.5 -33q82 -40 121.5 -83.5t39.5 -107.5q0 -59 -21.5 -103.5t-58 -74t-85.5 -44.5t-104 -15q-88 0 -148 39t-90 96l136 99q20 -38 47.5 -55.5t56.5 -17.5q35 0 55.5 17t20.5 42q0 23 -22.5 36.5t-55.5 28.5 q-70 31 -113.5 75t-43.5 109q0 55 19 99t52 74.5t78.5 46.5t98.5 16q72 0 122.5 -26.5t82.5 -74.5l-125 -118q-20 33 -45.5 46t-49.5 13z" />
<glyph unicode="T" horiz-adv-x="496" d="M419 540l-99 -540h-184l99 540h-143l29 156h470l-28 -156h-144z" />
<glyph unicode="U" horiz-adv-x="577" d="M636 696q-20 -106 -39 -211t-39 -211q-4 -23 -9 -44t-11 -43q-24 -87 -85 -139.5t-167 -52.5q-54 0 -94.5 14t-67 39t-39.5 59.5t-13 76.5v12q1 42 9 87l76 413h182l-88 -475q-1 -5 -1.5 -9.5t-0.5 -9.5q0 -25 13 -37.5t36 -12.5q28 0 45 20.5t22 50.5q2 11 4 21.5 t4 21.5l79 430h184z" />
<glyph unicode="V" horiz-adv-x="588" d="M490 696h195q-77 -175 -153 -348t-154 -348h-208l-52 696h183q2 -63 4.5 -125t1.5 -125q-1 -52 0 -104.5t0 -112.5h5q20 53 39.5 105t39.5 106z" />
<glyph unicode="W" horiz-adv-x="790" d="M580 310l49 163l67 223h193l-255 -696h-185l-4 167l-1 182l-5 -1q-4 -12 -13.5 -36.5t-19.5 -51t-19.5 -50t-13.5 -34.5l-72 -176h-184l1 696h179l-12 -211q-1 -11 -2.5 -35t-3.5 -52t-4 -53.5t-3 -37.5h4l67 178l80 211h152l2 -215v-35v-51v-51t-1 -34h4z" />
<glyph unicode="X" horiz-adv-x="590" d="M322 203l-123 -203h-207l250 359l-112 337h190l42 -178l4 2l105 176h209q-60 -85 -119 -168.5t-119 -168.5l121 -359h-191q-11 51 -23.5 101t-23.5 101z" />
<glyph unicode="Y" horiz-adv-x="557" d="M332 433l58 125l66 138h199l-255 -425l-51 -271h-183l49 264l-97 432h181l17 -131q4 -33 7.5 -61.5t4.5 -70.5h4z" />
<glyph unicode="Z" horiz-adv-x="496" d="M9 0l26 143l311 399h-227l28 154h427l-25 -140l-311 -399h237l-29 -157h-437z" />
<glyph unicode="[" horiz-adv-x="333" d="M22 -98l147 796h242l-21 -115h-74l-105 -565h74l-21 -116h-242z" />
<glyph unicode="\" horiz-adv-x="365" d="M116 725h148l72 -766h-147z" />
<glyph unicode="]" horiz-adv-x="333" d="M-7 -98l21 116h73l105 565h-73l21 115h242l-148 -796h-241z" />
<glyph unicode="^" horiz-adv-x="533" d="M344 507l-123 -237h-173l251 425h148l94 -426h-156l-38 238h-3z" />
<glyph unicode="_" horiz-adv-x="488" d="M-51 -169l21 110h486l-21 -110h-486z" />
<glyph unicode="`" horiz-adv-x="440" d="M336 541l-122 214l127 61l91 -230z" />
<glyph unicode="a" horiz-adv-x="507" d="M267 0l6 33q-1 0 -2 1q-15 -14 -31 -22t-31 -12t-27 -5.5t-18 -1.5q-66 0 -94 31.5t-28 84.5q0 33 3.5 70t9.5 69q10 49 24.5 95.5t38 82.5t57.5 57.5t82 21.5q9 0 22 -1.5t27 -7t26.5 -14.5t20.5 -24h4q2 10 3.5 19.5t3.5 18.5h173l-92 -496h-178zM255 142q9 0 15.5 4 t11.5 10q11 12 21 44t16 68q3 14 4 27t1 26q0 16 -6 26.5t-23 10.5q-8 0 -14 -4.5t-11 -9.5q-19 -23 -33 -86q-4 -18 -7 -36t-3 -34t4 -31t24 -15z" />
<glyph unicode="b" horiz-adv-x="507" d="M282 460q1 0 2 -1q27 26 59 36.5t52 10.5q64 0 92 -34t28 -88q0 -35 -4 -73t-11 -74.5t-16.5 -68t-19.5 -52.5q-50 -123 -169 -123q-8 0 -20.5 1.5t-25 6.5t-24.5 14t-20 24h-4q-2 -10 -3.5 -19.5t-3.5 -19.5h-173l135 732h178zM304 355q-22 0 -33.5 -20t-17.5 -46 q-10 -40 -14 -63t-4 -43q0 -17 5 -28.5t23 -11.5q8 0 15 4t11 9q11 8 19 31t15 55q3 14 4.5 29t3.5 29q0 8 -0.5 17.5t-2.5 18t-8 14t-16 5.5z" />
<glyph unicode="c" horiz-adv-x="457" d="M301 508q72 0 119 -33.5t55 -94.5l-132 -67q-8 26 -19.5 35.5t-23.5 9.5q-28 0 -40 -21t-20 -52q-6 -23 -10 -47.5t-5 -46.5q-1 -20 6.5 -33.5t31.5 -13.5q13 0 30 10t34 36q29 -17 61.5 -35t61.5 -35q-31 -66 -86.5 -96t-127.5 -30q-98 0 -142 43.5t-44 117.5q0 40 6 87 q8 54 23 98.5t35 73.5q31 45 75.5 69.5t111.5 24.5z" />
<glyph unicode="d" horiz-adv-x="507" d="M352 471q1 1 3 1q11 66 23.5 130t23.5 130h178l-135 -732h-173l8 41h-4q-14 -14 -30.5 -23.5t-32.5 -15t-29.5 -7.5t-21.5 -2q-67 0 -94.5 33.5t-27.5 87.5q0 32 5.5 68.5t10.5 69.5q8 43 20 87.5t29 72.5q22 40 58 67t94 27q20 0 48 -6.5t47 -28.5zM296 355 q-16 0 -26 -14q-7 -8 -13.5 -23t-12 -32.5t-9 -37t-5.5 -36.5q-1 -8 -1.5 -15t-0.5 -15q0 -14 4 -26.5t23 -12.5q23 0 35 24t21 70q5 23 8 40t4 31q3 17 -2 32t-25 15z" />
<glyph unicode="e" horiz-adv-x="478" d="M293 368q-19 0 -35 -15.5t-22 -50.5q45 0 64.5 10t19.5 29q0 11 -6 19t-21 8zM451 102q-32 -59 -87 -85t-129 -26q-41 0 -75 11t-59 32t-38.5 52.5t-13.5 72.5q0 20 2 41.5t5 40.5q7 49 22.5 97t43.5 86t71.5 61t107.5 23q48 0 82.5 -11t57.5 -29.5t34 -43.5t11 -52 q0 -51 -20 -85.5t-54 -55.5t-78.5 -30t-93.5 -9q-5 0 -10.5 0.5t-11.5 0.5q-6 -33 4 -46.5t39 -13.5q16 0 35 9.5t37 32.5z" />
<glyph unicode="f" horiz-adv-x="382" d="M66 10q17 90 33.5 178.5t33.5 177.5h-56l25 130h55l14 70q7 34 21.5 64.5t38 52.5t57 35t78.5 13q22 0 48.5 -2.5t48.5 -7.5l-27 -144q-27 3 -43 3q-24 -1 -35.5 -11t-16.5 -33l-8 -40h81l-25 -130h-81q-19 -98 -36.5 -195.5t-36.5 -194.5q-6 -33 -18.5 -63t-33.5 -53 t-53.5 -36.5t-79.5 -13.5q-8 0 -21.5 0.5t-28.5 1.5t-30 3t-27 5l29 146q7 -1 14 -1.5t13 -0.5q32 0 47 10t20 36z" />
<glyph unicode="g" horiz-adv-x="507" d="M259 504q8 0 20 -1.5t25 -6.5t25.5 -14t21.5 -24h4q2 10 3.5 19.5t3.5 19.5h173q-20 -110 -37.5 -218.5t-37.5 -218.5q-5 -29 -11 -55t-14 -51q-25 -84 -80.5 -124t-155.5 -40q-72 0 -123.5 26.5t-68.5 84.5q31 18 64.5 36.5t64.5 36.5q17 -22 34 -28.5t29 -6.5 q25 0 43 12t25 42l13 61h-3q-32 -28 -59.5 -37.5t-55.5 -9.5q-64 0 -92 34t-28 88q0 35 4.5 70.5t11.5 68.5t16 62t18 51q25 57 66 90t101 33zM253 158q22 0 34.5 20t18.5 46q10 40 12.5 59.5t2.5 30.5q0 17 -5 28.5t-23 11.5q-8 0 -14.5 -4t-11.5 -9q-9 -10 -19 -33 t-15 -47q-3 -14 -4 -24t-3 -24q0 -8 0.5 -18t2.5 -18t7.5 -13.5t16.5 -5.5z" />
<glyph unicode="h" horiz-adv-x="513" d="M282 453q36 31 72 43t60 12q38 0 61.5 -12t34.5 -33.5t12 -51t-5 -65.5l-63 -346h-177l52 287q5 25 -0.5 38.5t-26.5 13.5q-12 0 -21 -8t-15.5 -19t-10.5 -24t-6 -23l-50 -265h-177l135 732h175l-53 -278z" />
<glyph unicode="i" horiz-adv-x="284" d="M34 0l92 497h176l-92 -497h-176zM139 569l26 142h176l-26 -142h-176z" />
<glyph unicode="j" horiz-adv-x="288" d="M206 -42q-17 -83 -67 -124t-143 -41h-12.5h-22.5t-22.5 0.5t-13.5 1.5l29 154h26q31 0 43 16t17 46l90 486h176zM143 569l27 142h176l-26 -142h-177z" />
<glyph unicode="k" horiz-adv-x="531" d="M397 301l113 -301h-192l-53 168l-48 -51l-20 -117h-175l134 726h176l-66 -355l4 -1l114 126h206z" />
<glyph unicode="l" horiz-adv-x="307" d="M168 726h175l-100 -534q-1 -4 -1 -11q0 -16 10.5 -23.5t34.5 -11.5l-27 -148h-29q-38 0 -69 7t-53.5 22t-35 40t-12.5 61q0 11 1.5 23t3.5 26z" />
<glyph unicode="m" horiz-adv-x="750" d="M281 440q35 38 71.5 53t58.5 15q41 0 66.5 -17.5t32.5 -49.5q22 23 43 36.5t39 20t32.5 8.5t23.5 2q39 0 63 -12t35.5 -33.5t12.5 -51.5t-6 -66l-63 -345h-177l53 287q5 24 1 38t-25 14t-31.5 -18.5t-14.5 -37.5l-52 -283h-176l52 287q5 24 1 38t-24 14q-11 0 -19 -6 t-14 -15t-9.5 -20.5t-5.5 -22.5l-51 -275h-176l91 497h175l-11 -56z" />
<glyph unicode="n" horiz-adv-x="513" d="M281 438q17 20 35.5 33.5t36.5 21.5t33.5 11.5t26.5 3.5q38 0 61.5 -12t34.5 -33.5t12 -51.5t-5 -66l-62 -345h-177l52 289q5 24 -1 38t-27 14q-12 0 -20.5 -6.5t-14.5 -16.5t-10 -22t-6 -22l-51 -274h-177l91 497h175l-11 -58z" />
<glyph unicode="o" horiz-adv-x="498" d="M309 509q51 0 87 -13t59.5 -36t34 -56t10.5 -72q0 -26 -3.5 -55.5t-10.5 -59t-16 -56t-20 -45.5q-17 -35 -38.5 -59t-47 -38t-55.5 -20t-63 -6q-105 0 -150.5 47t-45.5 127q0 20 2.5 41t5.5 41q9 51 25 95.5t43 78.5q28 37 71 61.5t112 24.5zM295 360q-15 0 -27 -14 q-19 -23 -34 -93q-9 -42 -9 -70q0 -14 4.5 -27.5t21.5 -13.5q15 0 25 8.5t17.5 22.5t12 32t8.5 37q5 23 7.5 43.5t2.5 37.5q0 16 -5.5 26.5t-23.5 10.5z" />
<glyph unicode="p" horiz-adv-x="507" d="M-14 -198l127 694h173l-7 -41h4q13 15 29 24t31.5 14.5t29 7.5t22.5 2q63 0 92.5 -32.5t29.5 -90.5q0 -30 -4 -70.5t-12 -82t-19.5 -79.5t-25.5 -64q-21 -39 -57.5 -66.5t-95.5 -27.5q-20 0 -49 6.5t-48 27.5q-1 0 -2 -1l-41 -221h-177zM263 141q13 0 23.5 10t18 26 t12.5 37t8 42q3 17 5 32t2 31q0 14 -6 24t-21 10q-24 0 -37 -26.5t-22 -68.5q-11 -55 -11 -81q0 -15 5.5 -25.5t22.5 -10.5z" />
<glyph unicode="q" horiz-adv-x="507" d="M254 142q22 0 33.5 20t17.5 46q10 40 14 63t4 43q0 17 -5 28.5t-23 11.5q-8 0 -15 -4t-11 -9q-11 -8 -19 -31t-15 -55q-3 -14 -4.5 -29t-3.5 -29q0 -8 0.5 -18t2.5 -18t7.5 -13.5t16.5 -5.5zM278 37q-1 0 -2 1q-27 -26 -60 -36.5t-53 -10.5q-64 0 -92 34t-28 88 q0 35 4 73t11 74.5t16.5 68t19.5 52.5q49 123 169 123q8 0 20.5 -1.5t25 -6.5t24.5 -14t20 -24h4q2 10 4 19.5t4 19.5h172l-129 -695h-178q6 34 12 62t12 55t12 55.5t12 62.5z" />
<glyph unicode="r" horiz-adv-x="408" d="M290 423q30 47 66 66t66 19q11 0 26.5 -3t24.5 -7l-59 -185q-31 11 -59 11q-38 0 -65 -24.5t-37 -77.5l-41 -222h-177l91 497h176l-15 -73z" />
<glyph unicode="s" horiz-adv-x="458" d="M150 182q17 -32 34.5 -42t43.5 -10q15 0 28 8t13 22q0 11 -11.5 17t-29.5 11q-23 7 -48 16.5t-45.5 25.5t-34 40.5t-13.5 61.5q0 43 18 76t46.5 55.5t64.5 34t72 11.5q66 0 114.5 -26t70.5 -77l-114 -78q-15 28 -35 35.5t-36 7.5q-20 0 -28 -9.5t-8 -14.5 q0 -14 11.5 -20.5t36.5 -13.5q22 -6 46.5 -16t45.5 -26t34.5 -40t13.5 -58q0 -41 -14.5 -75t-43 -58t-70 -36t-96.5 -10q-79 3 -123.5 34t-67.5 88z" />
<glyph unicode="t" horiz-adv-x="363" d="M299 366l-31 -164q-5 -28 4.5 -38t34.5 -10h27l-28 -154h-73q-91 0 -126.5 44t-18.5 135l34 187h-50l24 131h52l26 138h174l-26 -138h74l-24 -131h-73z" />
<glyph unicode="u" horiz-adv-x="513" d="M286 61q-17 -22 -36 -36t-37 -21.5t-34 -10t-26 -2.5q-39 0 -63 11t-36 31.5t-13 49.5t5 65l65 349h177l-54 -288q-4 -24 1.5 -38t26.5 -14q11 0 20 6.5t15.5 16t11 21t6.5 21.5l51 275h177l-92 -497h-175l13 60z" />
<glyph unicode="v" horiz-adv-x="538" d="M275 189q26 56 56.5 135.5t59.5 172.5h195q-27 -72 -55 -136.5t-58.5 -125t-65 -118.5t-73.5 -117h-189l-63 497h188l5 -164q1 -29 -0.5 -63.5t-5.5 -80.5h6z" />
<glyph unicode="w" horiz-adv-x="758" d="M401 236q-15 -40 -30.5 -78.5t-31.5 -73.5q-10 -22 -20 -43t-20 -41h-184l-39 496h189v-150q0 -26 -0.5 -58t-4.5 -61h4q28 61 52 123.5t50 145.5h153v-136q0 -24 -0.5 -62t-3.5 -71h5q29 63 52.5 127t45.5 142h198q-26 -72 -53.5 -136t-56.5 -124t-61 -118t-68 -118 h-177q1 28 1 55.5v55.5q0 37 0.5 66.5t2.5 58.5h-3z" />
<glyph unicode="x" horiz-adv-x="509" d="M270 134l-77 -134h-200l185 253l-87 245h182l25 -123h2l71 123h199q-46 -62 -91.5 -122.5t-90.5 -122.5l96 -253h-182l-30 134h-2z" />
<glyph unicode="y" horiz-adv-x="507" d="M560 497q-27 -74 -55.5 -147.5t-59.5 -143.5t-65.5 -133.5t-73.5 -117.5q-24 -33 -54.5 -64.5t-69.5 -56t-87 -39t-106 -14.5l-9 149q56 6 91 23.5t63 54.5l-63 489h183l6 -138q1 -18 1 -42.5t-1 -50.5t-2.5 -50.5t-3.5 -41.5h5q14 28 29 65t29.5 79t28.5 87.5t28 91.5 h186z" />
<glyph unicode="z" horiz-adv-x="443" d="M9 0l23 129l224 232h-168l25 136h372l-23 -122l-226 -234h183l-26 -141h-384z" />
<glyph unicode="{" horiz-adv-x="355" d="M231 301q28 -15 39.5 -40t1.5 -78l-23 -122q-5 -20 5 -30.5t27 -10.5h30l-22 -117h-90q-29 0 -54 8t-41.5 25t-23.5 43t0 62l23 123q3 15 3 29t-5.5 25t-16.5 19t-31 11l20 107q32 2 52.5 22t28.5 63l21 116q12 69 50.5 104.5t101.5 35.5h109l-22 -118h-31 q-17 0 -29.5 -10t-16.5 -33l-21 -115q-3 -18 -9.5 -37t-16.5 -35t-24.5 -27.5t-33.5 -15.5z" />
<glyph unicode="|" horiz-adv-x="297" d="M34 -193q20 232 41 461.5t42 461.5h157q-21 -232 -42 -461.5t-41 -461.5h-157z" />
<glyph unicode="}" horiz-adv-x="355" d="M196 299q-29 15 -40 40t-1 78l23 122q5 20 -5 30.5t-27 10.5h-30l22 117h90q29 0 54 -8t41.5 -25t23.5 -43t0 -62l-23 -123q-3 -15 -3 -29t5.5 -25t16.5 -19t31 -11l-20 -107q-32 -2 -52.5 -22t-28.5 -63l-21 -116q-12 -69 -50.5 -104.5t-101.5 -35.5h-109l22 118h31 q17 0 29.5 10t16.5 33l21 115q3 18 9.5 37t16.5 35t24.5 27.5t33.5 15.5z" />
<glyph unicode="~" horiz-adv-x="524" d="M231 385q23 0 42.5 -9t37 -19.5t32.5 -19t29 -8.5q20 0 41.5 11t48.5 46l69 -54q-34 -69 -72.5 -97.5t-80.5 -28.5q-23 0 -43 8.5t-38 19t-34.5 19t-32.5 8.5q-10 0 -20.5 -2t-22.5 -8t-25.5 -17.5t-29.5 -30.5l-66 55q37 63 74.5 95t90.5 32z" />
<glyph unicode="&#xa1;" horiz-adv-x="324" d="M196 -199h-182l103 488h158zM323 497l-28 -153h-178l29 153h177z" />
<glyph unicode="&#xa2;" horiz-adv-x="530" d="M381 504q54 -10 87.5 -41.5t40.5 -82.5l-132 -67q-8 26 -19.5 35.5t-23.5 9.5q-28 0 -40 -21t-20 -52q-6 -23 -10 -47.5t-5 -46.5q-1 -20 6.5 -33.5t31.5 -13.5q13 0 30 10t34 36q29 -17 61.5 -35t61.5 -35q-29 -62 -79.5 -92t-116.5 -33q-5 -30 -11 -63t-11 -55h-72 l23 121q-70 11 -101.5 52.5t-31.5 104.5q0 40 6 87q8 54 23 98.5t35 73.5q28 40 66.5 64t94.5 29l22 110h72z" />
<glyph unicode="&#xa3;" horiz-adv-x="530" d="M369 701q80 0 133 -38t64 -116l-147 -66q-4 27 -16.5 45.5t-35.5 18.5q-16 0 -26.5 -7t-17 -18.5t-9 -25.5t-2.5 -28q0 -19 2 -40.5t3 -47.5h126l-22 -116h-115q-8 -31 -21 -60.5t-31 -54.5h222l-27 -147h-422l24 132q31 30 50.5 62.5t30.5 67.5h-58l22 116h50 q-4 29 -6 56t-2 55q0 42 13.5 80.5t41.5 68t71.5 46.5t104.5 17z" />
<glyph unicode="&#xa4;" horiz-adv-x="543" d="M25 455l89 90l61 -62q21 10 46.5 15.5t49.5 5.5t49 -5.5t48 -17.5l60 64l89 -90l-61 -62q10 -21 15.5 -45.5t5.5 -48.5q0 -23 -6.5 -48.5t-15.5 -47.5q3 -3 12 -11.5t19 -18t19 -18.5l12 -12l-89 -90l-62 62q-43 -22 -95 -22q-53 0 -96 22l-61 -62l-89 90l62 61 q-11 23 -16 46.5t-5 48.5q0 23 5.5 47.5t15.5 46.5zM192 299q0 -33 23 -56t56 -23q32 0 55.5 22.5t23.5 56.5q0 32 -22.5 56t-56.5 24q-33 0 -56 -24t-23 -56z" />
<glyph unicode="&#xa5;" horiz-adv-x="530" d="M98 237h101l5 27l-3 15h-94l16 89h60l-60 328h177l9 -126l8 -132h3l55 131l56 127h193l-183 -328h65l-16 -89h-100l-8 -15l-5 -27h105l-16 -87h-105l-27 -150h-178l27 150h-101z" />
<glyph unicode="&#xa6;" horiz-adv-x="303" d="M71 305v421h161v-421h-161zM232 225v-424h-161v424h161z" />
<glyph unicode="&#xa7;" horiz-adv-x="489" d="M337 701q22 0 47 -2.5t49 -9.5t47 -20t42 -33l-80 -97q-32 26 -56.5 33.5t-48.5 7.5q-29 0 -41.5 -13t-12.5 -26q0 -17 15 -30t37.5 -25t48.5 -25.5t48.5 -32t37.5 -43.5t15 -61q0 -44 -22 -76.5t-55 -52.5q17 -17 24 -42.5t7 -49.5q0 -43 -17.5 -76.5t-47.5 -56.5 t-69.5 -35t-83.5 -12q-28 0 -56.5 6t-55.5 17t-50 26t-39 34l87 95q13 -14 28 -25t30.5 -18.5t30 -11.5t26.5 -4q29 0 47 14.5t18 37.5q0 14 -12 26.5t-42 26.5l-60.5 33t-47.5 32.5t-31 39t-11 52.5q0 42 21.5 77.5t59.5 55.5q-15 17 -21.5 39.5t-6.5 45.5q0 44 16.5 77.5 t44 56t64 34t76.5 11.5zM245 371q-11 -6 -19.5 -15.5t-8.5 -21.5q0 -11 10 -20.5t26 -18t35 -16.5t37 -17q22 17 22 38q0 10 -5.5 18t-17.5 15.5t-31.5 16.5t-47.5 21z" />
<glyph unicode="&#xa8;" horiz-adv-x="471" d="M355 555l24 133h144l-25 -133h-143zM145 555l25 133h142l-24 -133h-143z" />
<glyph unicode="&#xa9;" horiz-adv-x="794" d="M393 -21q-79 0 -142.5 27.5t-108.5 76t-69 116t-24 148.5q0 80 24.5 147.5t69.5 117t108.5 77t141.5 27.5q77 0 140.5 -27.5t108.5 -76.5t70 -116.5t25 -148.5q0 -80 -25 -147t-70 -116.5t-108.5 -77t-140.5 -27.5zM393 614q-54 0 -97 -21t-73 -57t-46 -84.5t-16 -104.5 t16.5 -104.5t46.5 -84t73 -56t96 -20.5q54 0 97 20.5t73 56t46.5 84t16.5 104.5q0 57 -16.5 106t-47 84.5t-73.5 56t-96 20.5zM396 567q69 0 105 -37t40 -91l-109 -26q-2 23 -11 36.5t-26 13.5q-18 0 -26 -12t-8 -28v-162q0 -15 7.5 -26.5t24.5 -11.5q14 0 25 13.5t14 38.5 l111 -27q-10 -55 -45 -92t-103 -37q-66 0 -104 32.5t-43 90.5q-1 10 -1.5 19.5t-0.5 20.5v103q0 14 0.5 28t1.5 28q5 55 43 90.5t105 35.5z" />
<glyph unicode="&#xaa;" horiz-adv-x="346" d="M151 276q-30 0 -46 8.5t-23.5 21.5t-9 29t-1.5 32q2 38 9.5 79t18.5 70q30 86 115 86q14 0 32.5 -6t30.5 -22l4 22h129l-59 -317h-132l5 24q-19 -16 -40.5 -21.5t-32.5 -5.5zM219 382q16 0 22.5 23t14.5 71q2 10 -2 16.5t-15 6.5q-8 0 -12 -6q-4 -5 -8 -15.5t-7 -23.5 t-5 -26t-3 -22q-2 -14 2.5 -19t12.5 -5z" />
<glyph unicode="&#xab;" horiz-adv-x="628" d="M158 28l-89 207l166 207h171l-165 -207l88 -207h-171zM392 28l-90 207l167 207h170l-165 -207l88 -207h-170z" />
<glyph unicode="&#xac;" horiz-adv-x="530" d="M489 81h-145l29 159h-315l25 137h460z" />
<glyph unicode="&#xad;" horiz-adv-x="429" d="M65 190l27 147h337l-27 -147h-337z" />
<glyph unicode="&#xae;" horiz-adv-x="514" d="M260 229q-51 0 -92.5 18t-70.5 49.5t-44.5 74.5t-15.5 94t16 94.5t45.5 75t70.5 49.5t91 18t91 -18t70.5 -49.5t45.5 -75t16 -94.5t-16.5 -94t-46 -74.5t-70.5 -49.5t-90 -18zM260 638q-36 0 -64.5 -13.5t-48.5 -36.5t-30.5 -54.5t-10.5 -67.5t11 -67.5t31 -54 t48.5 -35.5t63.5 -13q36 0 64 13t47.5 36t30 54t10.5 67t-10.5 67.5t-30.5 54.5t-48 36.5t-63 13.5zM243 347h-66v246h91q34 0 57.5 -18.5t23.5 -56.5q0 -42 -33 -62l42 -109h-70l-32 96h-13v-96zM243 540v-45h17q9 0 15.5 5.5t6.5 16.5q0 23 -21 23h-18z" />
<glyph unicode="&#xaf;" horiz-adv-x="458" d="M176 567l23 124h296l-23 -124h-296z" />
<glyph unicode="&#xb0;" horiz-adv-x="419" d="M373 545q0 -32 -12.5 -60.5t-34.5 -49.5t-51.5 -33.5t-63.5 -12.5q-33 0 -62.5 12.5t-51.5 33.5t-34.5 49.5t-12.5 60.5t12.5 60.5t34.5 49.5t51.5 33.5t62.5 12.5q34 0 63.5 -12.5t51.5 -33.5t34.5 -49.5t12.5 -60.5zM269 545q0 24 -16.5 40.5t-41.5 16.5t-41 -16.5 t-16 -40.5q0 -23 16 -40t41 -17t41.5 17t16.5 40z" />
<glyph unicode="&#xb1;" horiz-adv-x="530" d="M21 0l24 131h448l-24 -131h-448zM372 297l-25 -136h-145l25 136h-157l25 136h158l25 139h145l-25 -139h157l-25 -136h-158z" />
<glyph unicode="&#xb2;" horiz-adv-x="352" d="M124 680q17 66 61 99t101 33q60 0 95 -25t35 -73q0 -27 -13.5 -58t-39.5 -60l-115 -125h122l-19 -99h-283l16 83l179 191q8 10 13.5 22t5.5 23q0 14 -13 14q-8 0 -15 -9.5t-14 -35.5z" />
<glyph unicode="&#xb3;" horiz-adv-x="353" d="M282 810q35 0 60 -8.5t41.5 -22.5t24 -32.5t7.5 -39.5q0 -35 -14 -63t-52 -48q22 -9 30 -26.5t8 -37.5q0 -35 -10.5 -65.5t-31 -53t-51 -35t-70.5 -12.5q-27 0 -52 6t-44.5 19t-31 34.5t-11.5 51.5v8t1 9l122 14q-2 -6 -2 -10.5v-8.5q0 -14 5.5 -17t10.5 -3q7 0 12.5 5.5 t9.5 14t6 17.5t2 16q0 13 -5 20t-20 7h-32l15 84h36q10 0 16.5 5.5t11 14t6.5 17.5t2 15q0 17 -14 17q-7 0 -15 -6.5t-16 -34.5l-112 17q13 66 55.5 99t101.5 33z" />
<glyph unicode="&#xb4;" horiz-adv-x="440" d="M222 581l134 216l119 -61l-169 -203z" />
<glyph unicode="&#xb6;" horiz-adv-x="560" d="M229 318q-35 3 -59 16t-39 33t-21.5 45.5t-6.5 54.5q0 39 12.5 83t40.5 80.5t73 60.5t110 24h296l-21 -109h-47l-125 -677h-117l125 677h-48l-125 -677h-121z" />
<glyph unicode="&#xb7;" horiz-adv-x="302" d="M77 211l32 173h185l-32 -173h-185z" />
<glyph unicode="&#xb8;" horiz-adv-x="436" d="M252 41q-11 -20 -23.5 -40t-23.5 -40q27 -2 45 -9.5t28 -18t14 -23.5t4 -26v-4q-1 -13 -8.5 -33t-24.5 -38.5t-46 -32t-73 -13.5q-16 0 -44 3.5t-58 17.5l34 71q20 -8 36 -11t30 -3q24 0 37 10.5t13 26.5q0 18 -25 18q-7 0 -12 -1l-36 30l64 116h69z" />
<glyph unicode="&#xb9;" horiz-adv-x="295" d="M166 372l55 299l-69 -43l23 125l89 54h114l-81 -435h-131z" />
<glyph unicode="&#xba;" horiz-adv-x="338" d="M252 601q42 0 68.5 -12t41 -32.5t18 -47.5t0.5 -58q-7 -86 -49 -132t-120 -46q-38 0 -64 9.5t-41.5 26.5t-22 39.5t-6.5 48.5q0 45 10.5 82.5t32 64.5t54.5 42t78 15zM219 376q15 0 22 18.5t11 38.5l4 24t2 21q0 8 -3 14t-11 6q-17 0 -23 -15.5t-12 -42.5q-6 -30 -6 -42 q0 -10 2.5 -15t13.5 -7z" />
<glyph unicode="&#xbb;" horiz-adv-x="628" d="M269 28l165 207l-88 207h170l90 -207l-167 -207h-170zM36 28l164 207l-87 207h170l89 -207l-166 -207h-170z" />
<glyph unicode="&#xbc;" horiz-adv-x="863" d="M198 280l55 299l-69 -43l23 125l89 54h114l-81 -435h-131zM285 -17h-128l496 730h128zM791 240l-15 -83h30l-18 -99h-30l-11 -58h-116l11 58h-178l14 80l173 297h119l-160 -278h50l16 83h115z" />
<glyph unicode="&#xbd;" horiz-adv-x="863" d="M179 280l55 299l-69 -43l23 125l89 54h114l-81 -435h-131zM259 -17h-128l496 730h128zM539 308q17 66 61 99t101 33q60 0 95 -25t35 -73q0 -27 -13.5 -58t-39.5 -60l-115 -125h122l-19 -99h-283l16 83l179 191q8 10 13.5 22t5.5 23q0 14 -13 14q-8 0 -15 -9.5t-14 -35.5z " />
<glyph unicode="&#xbe;" horiz-adv-x="863" d="M319 -17h-128l496 730h128zM321 720q35 0 60 -8.5t41.5 -22.5t24 -32.5t7.5 -39.5q0 -35 -14 -63t-52 -48q22 -9 30 -26.5t8 -37.5q0 -35 -10.5 -65.5t-31 -53t-51 -35t-70.5 -12.5q-27 0 -52 6t-44.5 19t-31 34.5t-11.5 51.5v8t1 9l122 14q-2 -6 -2 -10.5v-8.5 q0 -14 5.5 -17t10.5 -3q7 0 12.5 5.5t9.5 14t6 17.5t2 16q0 13 -5 20t-20 7h-32l15 84h36q10 0 16.5 5.5t11 14t6.5 17.5t2 15q0 17 -14 17q-7 0 -15 -6.5t-16 -34.5l-112 17q13 66 55.5 99t101.5 33zM824 240l-15 -83h30l-18 -99h-30l-11 -58h-116l11 58h-178l14 80 l173 297h119l-160 -278h50l16 83h115z" />
<glyph unicode="&#xbf;" horiz-adv-x="509" d="M468 5q-24 -107 -92 -158.5t-161 -51.5q-91 0 -141 39t-50 110q0 31 8 58t21 49.5t29 42t33 36.5q36 41 57.5 71.5t28.5 65.5l6 28h173l-7 -36q-6 -35 -23.5 -70t-61.5 -80q-35 -43 -53.5 -72t-18.5 -61q0 -14 7.5 -20.5t19.5 -6.5q17 0 32 15.5t27 58.5zM418 497 l-29 -153h-175l28 153h176z" />
<glyph unicode="&#xc0;" horiz-adv-x="604" d="M383 123h-156l-48 -123h-191l319 696h206l62 -696h-187zM369 482l-50 -131l-30 -78h87l-1 81v128h-6zM428 718l-218 117l94 119l191 -152z" />
<glyph unicode="&#xc1;" horiz-adv-x="604" d="M383 123h-156l-48 -123h-191l319 696h206l62 -696h-187zM369 482l-50 -131l-30 -78h87l-1 81v128h-6zM332 805l219 132l59 -121l-234 -95z" />
<glyph unicode="&#xc2;" horiz-adv-x="604" d="M383 123h-156l-48 -123h-191l319 696h206l62 -696h-187zM369 482l-50 -131l-30 -78h87l-1 81v128h-6zM433 807l-151 -86l-47 64l163 141h110l110 -142l-66 -64z" />
<glyph unicode="&#xc3;" horiz-adv-x="604" d="M383 123h-156l-48 -123h-191l319 696h206l62 -696h-187zM369 482l-50 -131l-30 -78h87l-1 81v128h-6zM488 735q-16 0 -30 6t-27.5 13.5t-26.5 13.5t-27 6q-13 0 -32 -8.5t-41 -34.5l-69 44q35 65 72.5 92t74.5 27q19 0 35 -6.5t29.5 -14t25.5 -13.5t25 -6q15 0 30 9 t35 32l68 -42q-17 -34 -35 -56.5t-36.5 -36t-36.5 -19.5t-34 -6z" />
<glyph unicode="&#xc4;" horiz-adv-x="604" d="M383 123h-156l-48 -123h-191l319 696h206l62 -696h-187zM369 482l-50 -131l-30 -78h87l-1 81v128h-6zM451 737l25 133h143l-25 -133h-143zM241 737l25 133h143l-25 -133h-143z" />
<glyph unicode="&#xc5;" horiz-adv-x="604" d="M444 931q47 0 78.5 -29t31.5 -74q0 -51 -29 -85t-70 -47h58l62 -696h-187l-5 123h-156l-48 -123h-191l319 696h61q-31 11 -50 36.5t-19 59.5q0 30 12 55.5t32 44t46 29t55 10.5zM369 482l-50 -131l-30 -78h87l-1 81v128h-6zM434 847q-19 0 -33 -13.5t-14 -30.5 q0 -14 9 -23t24 -9q18 0 32.5 14t14.5 31q0 13 -9 22t-24 9z" />
<glyph unicode="&#xc6;" horiz-adv-x="873" d="M398 0l18 129h-173l-70 -129h-196l396 696h530l-21 -156h-229l-15 -107h192l-22 -156h-192l-17 -120h232l-22 -157h-411zM327 278h110l36 256h-6z" />
<glyph unicode="&#xc7;" horiz-adv-x="542" d="M367 704q54 0 93.5 -14.5t65.5 -40t39 -60.5t14 -76l-170 -43v7q0 38 -13.5 53.5t-33.5 15.5q-23 0 -36 -12.5t-21 -30.5q-4 -12 -7.5 -25t-5.5 -27q-11 -60 -21.5 -117.5t-21.5 -117.5q-1 -5 -1.5 -9.5t-0.5 -9.5q0 -20 11 -33t37 -13q22 0 39.5 17.5t30.5 59.5l177 -41 q-25 -91 -88.5 -142t-166.5 -51q-5 0 -10 0.5t-10 0.5q-9 -15 -19 -34q27 -2 45 -9.5t28 -18t14 -23.5t4 -26v-4q-1 -13 -8.5 -33t-24.5 -38.5t-46 -32t-73 -13.5q-16 0 -44 3.5t-58 17.5l34 71q20 -8 36 -11t30 -3q24 0 37 10.5t13 26.5q0 18 -25 18q-7 0 -12 -1l-36 30 l22 40l22 40q-68 17 -104 62.5t-36 113.5q0 19 2 38t6 39l30 163q6 29 13 57.5t16 56.5q12 37 31.5 68.5t48 53.5t66.5 34.5t88 12.5z" />
<glyph unicode="&#xc8;" horiz-adv-x="519" d="M29 0l128 696h426l-29 -156h-241l-20 -107h212l-29 -156h-212l-22 -120h252l-28 -157h-437zM409 718l-218 117l94 119l191 -152z" />
<glyph unicode="&#xc9;" horiz-adv-x="519" d="M29 0l128 696h426l-29 -156h-241l-20 -107h212l-29 -156h-212l-22 -120h252l-28 -157h-437zM287 805l219 132l59 -121l-234 -95z" />
<glyph unicode="&#xca;" horiz-adv-x="519" d="M29 0l128 696h426l-29 -156h-241l-20 -107h212l-29 -156h-212l-22 -120h252l-28 -157h-437zM399 807l-151 -86l-47 64l163 141h110l110 -142l-66 -64z" />
<glyph unicode="&#xcb;" horiz-adv-x="519" d="M29 0l128 696h426l-29 -156h-241l-20 -107h212l-29 -156h-212l-22 -120h252l-28 -157h-437zM411 737l25 133h143l-25 -133h-143zM201 737l25 133h143l-25 -133h-143z" />
<glyph unicode="&#xcc;" horiz-adv-x="302" d="M39 0l128 696h184l-128 -696h-184zM276 718l-218 117l94 119l191 -152z" />
<glyph unicode="&#xcd;" horiz-adv-x="302" d="M39 0l128 696h184l-128 -696h-184zM196 805l219 132l59 -121l-234 -95z" />
<glyph unicode="&#xce;" horiz-adv-x="302" d="M39 0l128 696h184l-128 -696h-184zM287 807l-151 -86l-47 64l163 141h110l110 -142l-66 -64z" />
<glyph unicode="&#xcf;" horiz-adv-x="302" d="M39 0l128 696h184l-128 -696h-184zM303 737l25 133h143l-25 -133h-143zM93 737l25 133h143l-25 -133h-143z" />
<glyph unicode="&#xd0;" horiz-adv-x="574" d="M408 696q36 0 67 -5.5t55 -18t39.5 -34t20.5 -54.5q3 -17 2 -44t-3.5 -59t-7 -65.5t-8.5 -61.5q-13 -79 -25 -137t-34 -96q-19 -33 -45 -56.5t-57.5 -37.5t-66 -20.5t-69.5 -6.5h-246l52 284h-43l23 125h43q13 72 26 143.5t27 143.5h250zM287 409h54l-23 -125h-54 l-24 -131h22q34 0 58.5 10.5t37.5 41.5q11 25 18.5 59t14.5 73q3 18 6.5 38.5t6.5 40.5t5 38.5t2 33.5q0 28 -13.5 41t-47.5 13h-38z" />
<glyph unicode="&#xd1;" horiz-adv-x="607" d="M430 378l58 318h178l-128 -696h-160l-58 176l-47 148h-5l-59 -324h-180l128 696h161l59 -165l48 -153h5zM488 733q-16 0 -30 6t-27.5 13.5t-26.5 13.5t-27 6q-13 0 -32 -8.5t-41 -34.5l-69 44q35 65 72.5 92t74.5 27q19 0 35 -6.5t29.5 -14t25.5 -13.5t25 -6q15 0 30 9 t35 32l68 -42q-17 -34 -35 -56.5t-36.5 -36t-36.5 -19.5t-34 -6z" />
<glyph unicode="&#xd2;" horiz-adv-x="568" d="M361 545q-20 0 -34.5 -12t-21.5 -32q-5 -17 -10.5 -38t-8.5 -38q-8 -42 -15 -79.5t-14 -83.5q-3 -18 -5.5 -35t-3.5 -34q0 -21 14.5 -31t34.5 -10q27 0 41 18.5t21 50.5q12 57 20.5 107.5t18.5 104.5q3 18 5.5 35t3.5 34q-1 20 -13.5 31.5t-32.5 11.5zM367 704 q60 0 105.5 -18t73.5 -51.5t38 -80.5t0 -104q-8 -44 -14.5 -88.5t-16.5 -87.5q-5 -22 -8 -36.5t-5 -25t-4.5 -20t-5.5 -21.5q-22 -85 -79 -131t-166 -46q-75 0 -129 28t-74 74q-14 33 -14.5 76t10.5 103q11 64 19 105.5t14 68.5t10.5 42.5t7.5 27.5q23 85 80.5 135t157.5 50 zM423 718l-218 117l94 119l191 -152z" />
<glyph unicode="&#xd3;" horiz-adv-x="568" d="M361 545q-20 0 -34.5 -12t-21.5 -32q-5 -17 -10.5 -38t-8.5 -38q-8 -42 -15 -79.5t-14 -83.5q-3 -18 -5.5 -35t-3.5 -34q0 -21 14.5 -31t34.5 -10q27 0 41 18.5t21 50.5q12 57 20.5 107.5t18.5 104.5q3 18 5.5 35t3.5 34q-1 20 -13.5 31.5t-32.5 11.5zM367 704 q60 0 105.5 -18t73.5 -51.5t38 -80.5t0 -104q-8 -44 -14.5 -88.5t-16.5 -87.5q-5 -22 -8 -36.5t-5 -25t-4.5 -20t-5.5 -21.5q-22 -85 -79 -131t-166 -46q-75 0 -129 28t-74 74q-14 33 -14.5 76t10.5 103q11 64 19 105.5t14 68.5t10.5 42.5t7.5 27.5q23 85 80.5 135t157.5 50 zM320 805l219 132l59 -121l-234 -95z" />
<glyph unicode="&#xd4;" horiz-adv-x="568" d="M361 545q-20 0 -34.5 -12t-21.5 -32q-5 -17 -10.5 -38t-8.5 -38q-8 -42 -15 -79.5t-14 -83.5q-3 -18 -5.5 -35t-3.5 -34q0 -21 14.5 -31t34.5 -10q27 0 41 18.5t21 50.5q12 57 20.5 107.5t18.5 104.5q3 18 5.5 35t3.5 34q-1 20 -13.5 31.5t-32.5 11.5zM367 704 q60 0 105.5 -18t73.5 -51.5t38 -80.5t0 -104q-8 -44 -14.5 -88.5t-16.5 -87.5q-5 -22 -8 -36.5t-5 -25t-4.5 -20t-5.5 -21.5q-22 -85 -79 -131t-166 -46q-75 0 -129 28t-74 74q-14 33 -14.5 76t10.5 103q11 64 19 105.5t14 68.5t10.5 42.5t7.5 27.5q23 85 80.5 135t157.5 50 zM415 807l-151 -86l-47 64l163 141h110l110 -142l-66 -64z" />
<glyph unicode="&#xd5;" horiz-adv-x="568" d="M361 545q-20 0 -34.5 -12t-21.5 -32q-5 -17 -10.5 -38t-8.5 -38q-8 -42 -15 -79.5t-14 -83.5q-3 -18 -5.5 -35t-3.5 -34q0 -21 14.5 -31t34.5 -10q27 0 41 18.5t21 50.5q12 57 20.5 107.5t18.5 104.5q3 18 5.5 35t3.5 34q-1 20 -13.5 31.5t-32.5 11.5zM367 704 q60 0 105.5 -18t73.5 -51.5t38 -80.5t0 -104q-8 -44 -14.5 -88.5t-16.5 -87.5q-5 -22 -8 -36.5t-5 -25t-4.5 -20t-5.5 -21.5q-22 -85 -79 -131t-166 -46q-75 0 -129 28t-74 74q-14 33 -14.5 76t10.5 103q11 64 19 105.5t14 68.5t10.5 42.5t7.5 27.5q23 85 80.5 135t157.5 50 zM471 740q-16 0 -30 6t-27.5 13.5t-26.5 13.5t-27 6q-13 0 -32 -8.5t-41 -34.5l-69 44q35 65 72.5 92t74.5 27q19 0 35 -6.5t29.5 -14t25.5 -13.5t25 -6q15 0 30 9t35 32l68 -42q-17 -34 -35 -56.5t-36.5 -36t-36.5 -19.5t-34 -6z" />
<glyph unicode="&#xd6;" horiz-adv-x="568" d="M361 545q-20 0 -34.5 -12t-21.5 -32q-5 -17 -10.5 -38t-8.5 -38q-8 -42 -15 -79.5t-14 -83.5q-3 -18 -5.5 -35t-3.5 -34q0 -21 14.5 -31t34.5 -10q27 0 41 18.5t21 50.5q12 57 20.5 107.5t18.5 104.5q3 18 5.5 35t3.5 34q-1 20 -13.5 31.5t-32.5 11.5zM367 704 q60 0 105.5 -18t73.5 -51.5t38 -80.5t0 -104q-8 -44 -14.5 -88.5t-16.5 -87.5q-5 -22 -8 -36.5t-5 -25t-4.5 -20t-5.5 -21.5q-22 -85 -79 -131t-166 -46q-75 0 -129 28t-74 74q-14 33 -14.5 76t10.5 103q11 64 19 105.5t14 68.5t10.5 42.5t7.5 27.5q23 85 80.5 135t157.5 50 zM432 737l25 133h143l-25 -133h-143zM222 737l25 133h143l-25 -133h-143z" />
<glyph unicode="&#xd7;" horiz-adv-x="530" d="M406 293l111 -140l-112 -95l-110 140l-162 -140l-86 111l162 140l-110 138l113 96l110 -139l163 140l84 -111z" />
<glyph unicode="&#xd8;" horiz-adv-x="568" d="M367 704q51 0 91.5 -13.5t69.5 -38.5l43 56q12 -9 24 -17.5t24 -16.5l-54 -68q17 -31 22 -70.5t-3 -85.5q-8 -44 -14.5 -88.5t-16.5 -87.5q-5 -22 -8 -36.5t-5 -25t-4.5 -20t-5.5 -21.5q-22 -85 -79 -131t-166 -46q-51 0 -92.5 13.5t-70.5 36.5l-43 -54l-44 34 q13 16 25 32t25 33l-3 7q-14 33 -14.5 76t10.5 103q11 64 19 105.5t14 68.5t10.5 42.5t7.5 27.5q23 85 80.5 135t157.5 50zM359 221q9 43 16 82.5t14 79.5l-141 -178v-12q0 -21 14.5 -31t34.5 -10q27 0 41 18.5t21 50.5zM361 545q-20 0 -34.5 -12t-21.5 -32 q-5 -17 -10.5 -38t-8.5 -38l-20 -106l141 179v4q-1 20 -13.5 31.5t-32.5 11.5z" />
<glyph unicode="&#xd9;" horiz-adv-x="577" d="M636 696q-20 -106 -39 -211t-39 -211q-4 -23 -9 -44t-11 -43q-24 -87 -85 -139.5t-167 -52.5q-54 0 -94.5 14t-67 39t-39.5 59.5t-13 76.5v12q1 42 9 87l76 413h182l-88 -475q-1 -5 -1.5 -9.5t-0.5 -9.5q0 -25 13 -37.5t36 -12.5q28 0 45 20.5t22 50.5q2 11 4 21.5 t4 21.5l79 430h184zM429 718l-218 117l94 119l191 -152z" />
<glyph unicode="&#xda;" horiz-adv-x="577" d="M636 696q-20 -106 -39 -211t-39 -211q-4 -23 -9 -44t-11 -43q-24 -87 -85 -139.5t-167 -52.5q-54 0 -94.5 14t-67 39t-39.5 59.5t-13 76.5v12q1 42 9 87l76 413h182l-88 -475q-1 -5 -1.5 -9.5t-0.5 -9.5q0 -25 13 -37.5t36 -12.5q28 0 45 20.5t22 50.5q2 11 4 21.5 t4 21.5l79 430h184zM320 805l219 132l59 -121l-234 -95z" />
<glyph unicode="&#xdb;" horiz-adv-x="577" d="M636 696q-20 -106 -39 -211t-39 -211q-4 -23 -9 -44t-11 -43q-24 -87 -85 -139.5t-167 -52.5q-54 0 -94.5 14t-67 39t-39.5 59.5t-13 76.5v12q1 42 9 87l76 413h182l-88 -475q-1 -5 -1.5 -9.5t-0.5 -9.5q0 -25 13 -37.5t36 -12.5q28 0 45 20.5t22 50.5q2 11 4 21.5 t4 21.5l79 430h184zM420 807l-151 -86l-47 64l163 141h110l110 -142l-66 -64z" />
<glyph unicode="&#xdc;" horiz-adv-x="577" d="M636 696q-20 -106 -39 -211t-39 -211q-4 -23 -9 -44t-11 -43q-24 -87 -85 -139.5t-167 -52.5q-54 0 -94.5 14t-67 39t-39.5 59.5t-13 76.5v12q1 42 9 87l76 413h182l-88 -475q-1 -5 -1.5 -9.5t-0.5 -9.5q0 -25 13 -37.5t36 -12.5q28 0 45 20.5t22 50.5q2 11 4 21.5 t4 21.5l79 430h184zM226 737l25 133h143l-25 -133h-143zM436 737l25 133h143l-25 -133h-143z" />
<glyph unicode="&#xdd;" horiz-adv-x="557" d="M332 433l58 125l66 138h199l-255 -425l-51 -271h-183l49 264l-97 432h181l17 -131q4 -33 7.5 -61.5t4.5 -70.5h4zM315 805l219 132l59 -121l-234 -95z" />
<glyph unicode="&#xde;" horiz-adv-x="547" d="M28 0l128 696h183l-19 -106h67q93 0 142.5 -47t42.5 -153q-3 -55 -23.5 -99t-54.5 -75t-81 -47.5t-103 -16.5h-72l-28 -152h-182zM266 302h51q26 0 48.5 18.5t26.5 58.5q2 31 -11 45.5t-39 14.5h-51z" />
<glyph unicode="&#xdf;" horiz-adv-x="513" d="M347 725q48 0 83.5 -12.5t58 -33.5t33.5 -49.5t11 -61.5q0 -45 -18.5 -86.5t-60.5 -70.5q32 -13 44.5 -37.5t12.5 -62.5q0 -29 -5 -62t-14 -66t-21.5 -62.5t-27.5 -51.5q-26 -36 -63 -57t-94 -21q-11 0 -26.5 0.5t-31.5 3.5l27 143q14 0 28.5 6.5t23.5 23.5q9 14 14.5 35 t10.5 51q3 16 4 31.5t-3 28.5t-14 21.5t-31 10.5q5 29 10.5 58.5t11.5 58.5q13 0 23 7.5t17 20t10 28t3 30.5q0 36 -27 36q-18 0 -28 -13t-14 -35l-5 -25l-94 -512h-174l92 496q2 14 5.5 27.5t6.5 26.5q10 38 30 70t48 55.5t64 36.5t80 13z" />
<glyph unicode="&#xe0;" horiz-adv-x="507" d="M267 0l6 33q-1 0 -2 1q-15 -14 -31 -22t-31 -12t-27 -5.5t-18 -1.5q-66 0 -94 31.5t-28 84.5q0 33 3.5 70t9.5 69q10 49 24.5 95.5t38 82.5t57.5 57.5t82 21.5q9 0 22 -1.5t27 -7t26.5 -14.5t20.5 -24h4q2 10 3.5 19.5t3.5 18.5h173l-92 -496h-178zM330 541l-122 214 l127 61l91 -230zM255 142q9 0 15.5 4t11.5 10q11 12 21 44t16 68q3 14 4 27t1 26q0 16 -6 26.5t-23 10.5q-8 0 -14 -4.5t-11 -9.5q-19 -23 -33 -86q-4 -18 -7 -36t-3 -34t4 -31t24 -15z" />
<glyph unicode="&#xe1;" horiz-adv-x="507" d="M267 0l6 33q-1 0 -2 1q-15 -14 -31 -22t-31 -12t-27 -5.5t-18 -1.5q-66 0 -94 31.5t-28 84.5q0 33 3.5 70t9.5 69q10 49 24.5 95.5t38 82.5t57.5 57.5t82 21.5q9 0 22 -1.5t27 -7t26.5 -14.5t20.5 -24h4q2 10 3.5 19.5t3.5 18.5h173l-92 -496h-178zM262 581l134 216 l119 -61l-169 -203zM255 142q9 0 15.5 4t11.5 10q11 12 21 44t16 68q3 14 4 27t1 26q0 16 -6 26.5t-23 10.5q-8 0 -14 -4.5t-11 -9.5q-19 -23 -33 -86q-4 -18 -7 -36t-3 -34t4 -31t24 -15z" />
<glyph unicode="&#xe2;" horiz-adv-x="507" d="M267 0l6 33q-1 0 -2 1q-15 -14 -31 -22t-31 -12t-27 -5.5t-18 -1.5q-66 0 -94 31.5t-28 84.5q0 33 3.5 70t9.5 69q10 49 24.5 95.5t38 82.5t57.5 57.5t82 21.5q9 0 22 -1.5t27 -7t26.5 -14.5t20.5 -24h4q2 10 3.5 19.5t3.5 18.5h173l-92 -496h-178zM351 628l-148 -104 l-58 60l170 165h111l108 -165l-74 -61zM255 142q9 0 15.5 4t11.5 10q11 12 21 44t16 68q3 14 4 27t1 26q0 16 -6 26.5t-23 10.5q-8 0 -14 -4.5t-11 -9.5q-19 -23 -33 -86q-4 -18 -7 -36t-3 -34t4 -31t24 -15z" />
<glyph unicode="&#xe3;" horiz-adv-x="507" d="M267 0l6 33q-1 0 -2 1q-15 -14 -31 -22t-31 -12t-27 -5.5t-18 -1.5q-66 0 -94 31.5t-28 84.5q0 33 3.5 70t9.5 69q10 49 24.5 95.5t38 82.5t57.5 57.5t82 21.5q9 0 22 -1.5t27 -7t26.5 -14.5t20.5 -24h4q2 10 3.5 19.5t3.5 18.5h173l-92 -496h-178zM405 554q-16 0 -30 6 t-27.5 13.5t-26.5 13.5t-27 6q-13 0 -32 -8.5t-41 -34.5l-69 44q35 65 72.5 92t74.5 27q19 0 35 -6.5t29.5 -14t25.5 -13.5t25 -6q15 0 30 9t35 32l68 -42q-17 -34 -35 -56.5t-36.5 -36t-36.5 -19.5t-34 -6zM255 142q9 0 15.5 4t11.5 10q11 12 21 44t16 68q3 14 4 27t1 26 q0 16 -6 26.5t-23 10.5q-8 0 -14 -4.5t-11 -9.5q-19 -23 -33 -86q-4 -18 -7 -36t-3 -34t4 -31t24 -15z" />
<glyph unicode="&#xe4;" horiz-adv-x="507" d="M267 0l6 33q-1 0 -2 1q-15 -14 -31 -22t-31 -12t-27 -5.5t-18 -1.5q-66 0 -94 31.5t-28 84.5q0 33 3.5 70t9.5 69q10 49 24.5 95.5t38 82.5t57.5 57.5t82 21.5q9 0 22 -1.5t27 -7t26.5 -14.5t20.5 -24h4q2 10 3.5 19.5t3.5 18.5h173l-92 -496h-178zM375 555l24 133h144 l-25 -133h-143zM165 555l25 133h142l-24 -133h-143zM255 142q9 0 15.5 4t11.5 10q11 12 21 44t16 68q3 14 4 27t1 26q0 16 -6 26.5t-23 10.5q-8 0 -14 -4.5t-11 -9.5q-19 -23 -33 -86q-4 -18 -7 -36t-3 -34t4 -31t24 -15z" />
<glyph unicode="&#xe5;" horiz-adv-x="507" d="M267 0l6 33q-1 0 -2 1q-15 -14 -31 -22t-31 -12t-27 -5.5t-18 -1.5q-66 0 -94 31.5t-28 84.5q0 33 3.5 70t9.5 69q10 49 24.5 95.5t38 82.5t57.5 57.5t82 21.5q9 0 22 -1.5t27 -7t26.5 -14.5t20.5 -24h4q2 10 3.5 19.5t3.5 18.5h173l-92 -496h-178zM373 777 q47 0 78.5 -29t31.5 -74q0 -32 -12.5 -58t-32.5 -44t-46 -27.5t-53 -9.5q-48 0 -79.5 29t-31.5 74q0 30 12 55.5t32 44t46 29t55 10.5zM255 142q9 0 15.5 4t11.5 10q11 12 21 44t16 68q3 14 4 27t1 26q0 16 -6 26.5t-23 10.5q-8 0 -14 -4.5t-11 -9.5q-19 -23 -33 -86 q-4 -18 -7 -36t-3 -34t4 -31t24 -15zM363 693q-19 0 -33 -13.5t-14 -30.5q0 -14 9 -23t24 -9q18 0 32.5 14t14.5 31q0 13 -9 22t-24 9z" />
<glyph unicode="&#xe6;" horiz-adv-x="731" d="M710 102q-32 -59 -87 -85t-129 -26q-48 0 -86 14.5t-63 43.5q-40 -33 -82.5 -46t-96.5 -13q-73 0 -108 43t-28 112q7 70 63 113.5t151 43.5h68l4 20q3 15 -4 29.5t-35 14.5q-17 0 -37 -9t-41 -35l-104 89q39 57 95 77.5t124 20.5q35 0 67.5 -9t51.5 -26q51 34 127 34 q48 0 82.5 -11t57.5 -29.5t34 -43.5t11 -52q0 -51 -20 -85.5t-54 -55.5t-78.5 -30t-93.5 -9q-5 0 -10.5 0.5t-11.5 0.5q-6 -33 4 -46.5t39 -13.5q16 0 35 9.5t37 32.5zM294 202h-36q-24 -1 -34.5 -15t-10.5 -34q1 -9 7 -15t20 -6q17 0 31 10.5t18 30.5zM552 368 q-19 0 -35 -15.5t-22 -50.5q45 0 64.5 10t19.5 29q0 11 -6 19t-21 8z" />
<glyph unicode="&#xe7;" horiz-adv-x="457" d="M301 508q72 0 119 -33.5t55 -94.5l-132 -67q-8 26 -19.5 35.5t-23.5 9.5q-28 0 -40 -21t-20 -52q-6 -23 -10 -47.5t-5 -46.5q-1 -20 6.5 -33.5t31.5 -13.5q13 0 30 10t34 36q29 -17 61.5 -35t61.5 -35q-31 -66 -86.5 -96t-127.5 -30h-5q-5 -8 -9.5 -16.5t-9.5 -16.5 q27 -2 45 -9.5t28 -18t14 -23.5t4 -26v-4q-1 -13 -8.5 -33t-24.5 -38.5t-46 -32t-73 -13.5q-16 0 -44 3.5t-58 17.5l34 71q20 -8 36 -11t30 -3q24 0 37 10.5t13 26.5q0 18 -25 18q-7 0 -12 -1l-36 30l41 76q-62 14 -89.5 54t-27.5 100q0 40 6 87q8 54 23 98.5t35 73.5 q31 45 75.5 69.5t111.5 24.5z" />
<glyph unicode="&#xe8;" horiz-adv-x="478" d="M293 368q-19 0 -35 -15.5t-22 -50.5q45 0 64.5 10t19.5 29q0 11 -6 19t-21 8zM451 102q-32 -59 -87 -85t-129 -26q-41 0 -75 11t-59 32t-38.5 52.5t-13.5 72.5q0 20 2 41.5t5 40.5q7 49 22.5 97t43.5 86t71.5 61t107.5 23q48 0 82.5 -11t57.5 -29.5t34 -43.5t11 -52 q0 -51 -20 -85.5t-54 -55.5t-78.5 -30t-93.5 -9q-5 0 -10.5 0.5t-11.5 0.5q-6 -33 4 -46.5t39 -13.5q16 0 35 9.5t37 32.5zM302 541l-122 214l127 61l91 -230z" />
<glyph unicode="&#xe9;" horiz-adv-x="478" d="M293 368q-19 0 -35 -15.5t-22 -50.5q45 0 64.5 10t19.5 29q0 11 -6 19t-21 8zM451 102q-32 -59 -87 -85t-129 -26q-41 0 -75 11t-59 32t-38.5 52.5t-13.5 72.5q0 20 2 41.5t5 40.5q7 49 22.5 97t43.5 86t71.5 61t107.5 23q48 0 82.5 -11t57.5 -29.5t34 -43.5t11 -52 q0 -51 -20 -85.5t-54 -55.5t-78.5 -30t-93.5 -9q-5 0 -10.5 0.5t-11.5 0.5q-6 -33 4 -46.5t39 -13.5q16 0 35 9.5t37 32.5zM252 581l134 216l119 -61l-169 -203z" />
<glyph unicode="&#xea;" horiz-adv-x="478" d="M293 368q-19 0 -35 -15.5t-22 -50.5q45 0 64.5 10t19.5 29q0 11 -6 19t-21 8zM451 102q-32 -59 -87 -85t-129 -26q-41 0 -75 11t-59 32t-38.5 52.5t-13.5 72.5q0 20 2 41.5t5 40.5q7 49 22.5 97t43.5 86t71.5 61t107.5 23q48 0 82.5 -11t57.5 -29.5t34 -43.5t11 -52 q0 -51 -20 -85.5t-54 -55.5t-78.5 -30t-93.5 -9q-5 0 -10.5 0.5t-11.5 0.5q-6 -33 4 -46.5t39 -13.5q16 0 35 9.5t37 32.5zM335 628l-148 -104l-58 60l170 165h111l108 -165l-74 -61z" />
<glyph unicode="&#xeb;" horiz-adv-x="478" d="M293 368q-19 0 -35 -15.5t-22 -50.5q45 0 64.5 10t19.5 29q0 11 -6 19t-21 8zM451 102q-32 -59 -87 -85t-129 -26q-41 0 -75 11t-59 32t-38.5 52.5t-13.5 72.5q0 20 2 41.5t5 40.5q7 49 22.5 97t43.5 86t71.5 61t107.5 23q48 0 82.5 -11t57.5 -29.5t34 -43.5t11 -52 q0 -51 -20 -85.5t-54 -55.5t-78.5 -30t-93.5 -9q-5 0 -10.5 0.5t-11.5 0.5q-6 -33 4 -46.5t39 -13.5q16 0 35 9.5t37 32.5zM354 555l24 133h144l-25 -133h-143zM144 555l25 133h142l-24 -133h-143z" />
<glyph unicode="&#xec;" horiz-adv-x="294" d="M44 0l92 497h176l-92 -497h-176zM198 541l-122 214l127 61l91 -230z" />
<glyph unicode="&#xed;" horiz-adv-x="284" d="M34 0l92 497h176l-92 -497h-176zM158 581l134 216l119 -61l-169 -203z" />
<glyph unicode="&#xee;" horiz-adv-x="342" d="M64 0l92 497h176l-92 -497h-176zM270 628l-148 -104l-58 60l170 165h111l108 -165l-74 -61z" />
<glyph unicode="&#xef;" horiz-adv-x="364" d="M74 0l92 497h176l-92 -497h-176zM296 555l24 133h144l-25 -133h-143zM86 555l25 133h142l-24 -133h-143z" />
<glyph unicode="&#xf0;" horiz-adv-x="514" d="M547 689q-14 -13 -28.5 -25t-28.5 -24q23 -35 32.5 -78.5t9.5 -96.5q0 -76 -12.5 -159.5t-41.5 -155.5q-28 -74 -85.5 -115.5t-142.5 -41.5q-53 0 -90.5 13.5t-62 37t-36 55.5t-11.5 70q0 20 2 42t5 36q8 42 20.5 76t26.5 57q27 43 68 68t103 25q20 0 48 -5t51 -19 q4 17 4 37q-2 26 -12 47l-45 -39l-46 56l39 35q-37 20 -92 26l34 136q116 -7 181 -53q28 26 58 52zM287 334q-26 0 -36 -28.5t-18 -67.5l-6 -45q-1 -8 -0.5 -17t3 -17t8 -13t15.5 -5q8 0 14.5 4t11.5 9q7 8 13.5 27t11.5 45q5 21 7.5 40t2.5 28q0 13 -4.5 26.5t-22.5 13.5z " />
<glyph unicode="&#xf1;" horiz-adv-x="513" d="M281 438q17 20 35.5 33.5t36.5 21.5t33.5 11.5t26.5 3.5q38 0 61.5 -12t34.5 -33.5t12 -51.5t-5 -66l-62 -345h-177l52 289q5 24 -1 38t-27 14q-12 0 -20.5 -6.5t-14.5 -16.5t-10 -22t-6 -22l-51 -274h-177l91 497h175l-11 -58zM403 560q-16 0 -30 6t-27.5 13.5 t-26.5 13.5t-27 6q-13 0 -32 -8.5t-41 -34.5l-69 44q35 65 72.5 92t74.5 27q19 0 35 -6.5t29.5 -14t25.5 -13.5t25 -6q15 0 30 9t35 32l68 -42q-17 -34 -35 -56.5t-36.5 -36t-36.5 -19.5t-34 -6z" />
<glyph unicode="&#xf2;" horiz-adv-x="498" d="M309 509q51 0 87 -13t59.5 -36t34 -56t10.5 -72q0 -26 -3.5 -55.5t-10.5 -59t-16 -56t-20 -45.5q-17 -35 -38.5 -59t-47 -38t-55.5 -20t-63 -6q-105 0 -150.5 47t-45.5 127q0 20 2.5 41t5.5 41q9 51 25 95.5t43 78.5q28 37 71 61.5t112 24.5zM295 360q-15 0 -27 -14 q-19 -23 -34 -93q-9 -42 -9 -70q0 -14 4.5 -27.5t21.5 -13.5q15 0 25 8.5t17.5 22.5t12 32t8.5 37q5 23 7.5 43.5t2.5 37.5q0 16 -5.5 26.5t-23.5 10.5zM316 541l-122 214l127 61l91 -230z" />
<glyph unicode="&#xf3;" horiz-adv-x="498" d="M309 509q51 0 87 -13t59.5 -36t34 -56t10.5 -72q0 -26 -3.5 -55.5t-10.5 -59t-16 -56t-20 -45.5q-17 -35 -38.5 -59t-47 -38t-55.5 -20t-63 -6q-105 0 -150.5 47t-45.5 127q0 20 2.5 41t5.5 41q9 51 25 95.5t43 78.5q28 37 71 61.5t112 24.5zM295 360q-15 0 -27 -14 q-19 -23 -34 -93q-9 -42 -9 -70q0 -14 4.5 -27.5t21.5 -13.5q15 0 25 8.5t17.5 22.5t12 32t8.5 37q5 23 7.5 43.5t2.5 37.5q0 16 -5.5 26.5t-23.5 10.5zM268 581l134 216l119 -61l-169 -203z" />
<glyph unicode="&#xf4;" horiz-adv-x="498" d="M309 509q51 0 87 -13t59.5 -36t34 -56t10.5 -72q0 -26 -3.5 -55.5t-10.5 -59t-16 -56t-20 -45.5q-17 -35 -38.5 -59t-47 -38t-55.5 -20t-63 -6q-105 0 -150.5 47t-45.5 127q0 20 2.5 41t5.5 41q9 51 25 95.5t43 78.5q28 37 71 61.5t112 24.5zM295 360q-15 0 -27 -14 q-19 -23 -34 -93q-9 -42 -9 -70q0 -14 4.5 -27.5t21.5 -13.5q15 0 25 8.5t17.5 22.5t12 32t8.5 37q5 23 7.5 43.5t2.5 37.5q0 16 -5.5 26.5t-23.5 10.5zM342 628l-148 -104l-58 60l170 165h111l108 -165l-74 -61z" />
<glyph unicode="&#xf5;" horiz-adv-x="498" d="M309 509q51 0 87 -13t59.5 -36t34 -56t10.5 -72q0 -26 -3.5 -55.5t-10.5 -59t-16 -56t-20 -45.5q-17 -35 -38.5 -59t-47 -38t-55.5 -20t-63 -6q-105 0 -150.5 47t-45.5 127q0 20 2.5 41t5.5 41q9 51 25 95.5t43 78.5q28 37 71 61.5t112 24.5zM295 360q-15 0 -27 -14 q-19 -23 -34 -93q-9 -42 -9 -70q0 -14 4.5 -27.5t21.5 -13.5q15 0 25 8.5t17.5 22.5t12 32t8.5 37q5 23 7.5 43.5t2.5 37.5q0 16 -5.5 26.5t-23.5 10.5zM393 560q-16 0 -30 6t-27.5 13.5t-26.5 13.5t-27 6q-13 0 -32 -8.5t-41 -34.5l-69 44q35 65 72.5 92t74.5 27 q19 0 35 -6.5t29.5 -14t25.5 -13.5t25 -6q15 0 30 9t35 32l68 -42q-17 -34 -35 -56.5t-36.5 -36t-36.5 -19.5t-34 -6z" />
<glyph unicode="&#xf6;" horiz-adv-x="498" d="M309 509q51 0 87 -13t59.5 -36t34 -56t10.5 -72q0 -26 -3.5 -55.5t-10.5 -59t-16 -56t-20 -45.5q-17 -35 -38.5 -59t-47 -38t-55.5 -20t-63 -6q-105 0 -150.5 47t-45.5 127q0 20 2.5 41t5.5 41q9 51 25 95.5t43 78.5q28 37 71 61.5t112 24.5zM295 360q-15 0 -27 -14 q-19 -23 -34 -93q-9 -42 -9 -70q0 -14 4.5 -27.5t21.5 -13.5q15 0 25 8.5t17.5 22.5t12 32t8.5 37q5 23 7.5 43.5t2.5 37.5q0 16 -5.5 26.5t-23.5 10.5zM367 555l24 133h144l-25 -133h-143zM157 555l25 133h142l-24 -133h-143z" />
<glyph unicode="&#xf7;" horiz-adv-x="530" d="M353 577q35 0 57 -22t22 -55q0 -22 -9.5 -42t-25.5 -35t-36.5 -24t-41.5 -9q-35 0 -56.5 22t-21.5 54q0 22 9.5 42t25 35.5t36 24.5t41.5 9zM282 193q35 0 57 -22t22 -54q0 -23 -10 -43t-25.5 -35.5t-36 -24.5t-41.5 -9q-35 0 -56.5 22.5t-21.5 54.5q0 22 9.5 42t25 35.5 t35.5 24.5t42 9zM63 230l25 131h447l-24 -131h-448z" />
<glyph unicode="&#xf8;" horiz-adv-x="498" d="M309 509q46 0 80 -10.5t57 -29.5l39 41l35 -33l-44 -45q24 -42 24 -100q0 -26 -3.5 -55.5t-10.5 -59t-16 -56t-20 -45.5q-17 -35 -38.5 -59t-47 -38t-55.5 -20t-63 -6q-51 0 -86.5 11t-59.5 32l-22 -24t-22 -23l-32 32l47 50q-21 40 -21 96q0 20 2.5 41t5.5 41 q9 51 25 95.5t43 78.5q28 37 71 61.5t112 24.5zM318 265q-23 -24 -46 -48.5t-46 -49.5q2 -11 7 -18t18 -7q15 0 25 8.5t17.5 22.5t12 32t8.5 37zM295 360q-15 0 -27 -14q-19 -23 -34 -93l-3 -12l92 97q-5 22 -28 22z" />
<glyph unicode="&#xf9;" horiz-adv-x="513" d="M286 61q-17 -22 -36 -36t-37 -21.5t-34 -10t-26 -2.5q-39 0 -63 11t-36 31.5t-13 49.5t5 65l65 349h177l-54 -288q-4 -24 1.5 -38t26.5 -14q11 0 20 6.5t15.5 16t11 21t6.5 21.5l51 275h177l-92 -497h-175l13 60zM306 541l-122 214l127 61l91 -230z" />
<glyph unicode="&#xfa;" horiz-adv-x="513" d="M286 61q-17 -22 -36 -36t-37 -21.5t-34 -10t-26 -2.5q-39 0 -63 11t-36 31.5t-13 49.5t5 65l65 349h177l-54 -288q-4 -24 1.5 -38t26.5 -14q11 0 20 6.5t15.5 16t11 21t6.5 21.5l51 275h177l-92 -497h-175l13 60zM261 581l134 216l119 -61l-169 -203z" />
<glyph unicode="&#xfb;" horiz-adv-x="513" d="M286 61q-17 -22 -36 -36t-37 -21.5t-34 -10t-26 -2.5q-39 0 -63 11t-36 31.5t-13 49.5t5 65l65 349h177l-54 -288q-4 -24 1.5 -38t26.5 -14q11 0 20 6.5t15.5 16t11 21t6.5 21.5l51 275h177l-92 -497h-175l13 60zM357 628l-148 -104l-58 60l170 165h111l108 -165l-74 -61 z" />
<glyph unicode="&#xfc;" horiz-adv-x="513" d="M286 61q-17 -22 -36 -36t-37 -21.5t-34 -10t-26 -2.5q-39 0 -63 11t-36 31.5t-13 49.5t5 65l65 349h177l-54 -288q-4 -24 1.5 -38t26.5 -14q11 0 20 6.5t15.5 16t11 21t6.5 21.5l51 275h177l-92 -497h-175l13 60zM373 555l24 133h144l-25 -133h-143zM163 555l25 133h142 l-24 -133h-143z" />
<glyph unicode="&#xfd;" horiz-adv-x="507" d="M560 497q-27 -74 -55.5 -147.5t-59.5 -143.5t-65.5 -133.5t-73.5 -117.5q-24 -33 -54.5 -64.5t-69.5 -56t-87 -39t-106 -14.5l-9 149q56 6 91 23.5t63 54.5l-63 489h183l6 -138q1 -18 1 -42.5t-1 -50.5t-2.5 -50.5t-3.5 -41.5h5q14 28 29 65t29.5 79t28.5 87.5t28 91.5 h186zM250 581l134 216l119 -61l-169 -203z" />
<glyph unicode="&#xfe;" horiz-adv-x="507" d="M-14 -198l163 895h173l-43 -242h4q13 15 29 24t31.5 14.5t29 7.5t22.5 2q63 0 92.5 -32.5t29.5 -90.5q0 -30 -4 -70.5t-12 -82t-19.5 -79.5t-25.5 -64q-21 -39 -57.5 -66.5t-95.5 -27.5q-20 0 -49 6.5t-48 27.5q-1 0 -2 -1l-41 -221h-177zM263 141q13 0 23.5 10t18 26 t12.5 37t8 42q3 17 5 32t2 31q0 14 -6 24t-21 10q-24 0 -37 -26.5t-22 -68.5q-11 -55 -11 -81q0 -15 5.5 -25.5t22.5 -10.5z" />
<glyph unicode="&#xff;" horiz-adv-x="507" d="M560 497q-27 -74 -55.5 -147.5t-59.5 -143.5t-65.5 -133.5t-73.5 -117.5q-24 -33 -54.5 -64.5t-69.5 -56t-87 -39t-106 -14.5l-9 149q56 6 91 23.5t63 54.5l-63 489h183l6 -138q1 -18 1 -42.5t-1 -50.5t-2.5 -50.5t-3.5 -41.5h5q14 28 29 65t29.5 79t28.5 87.5t28 91.5 h186zM363 555l24 133h144l-25 -133h-143zM153 555l25 133h142l-24 -133h-143z" />
<glyph unicode="&#x100;" horiz-adv-x="604" d="M383 123h-156l-48 -123h-191l319 696h206l62 -696h-187zM369 482l-50 -131l-30 -78h87l-1 81v128h-6zM273 750l23 124h297l-23 -124h-297z" />
<glyph unicode="&#x101;" horiz-adv-x="507" d="M267 0l6 33q-1 0 -2 1q-15 -14 -31 -22t-31 -12t-27 -5.5t-18 -1.5q-66 0 -94 31.5t-28 84.5q0 33 3.5 70t9.5 69q10 49 24.5 95.5t38 82.5t57.5 57.5t82 21.5q9 0 22 -1.5t27 -7t26.5 -14.5t20.5 -24h4q2 10 3.5 19.5t3.5 18.5h173l-92 -496h-178zM192 567l23 124h296 l-23 -124h-296zM255 142q9 0 15.5 4t11.5 10q11 12 21 44t16 68q3 14 4 27t1 26q0 16 -6 26.5t-23 10.5q-8 0 -14 -4.5t-11 -9.5q-19 -23 -33 -86q-4 -18 -7 -36t-3 -34t4 -31t24 -15z" />
<glyph unicode="&#x102;" horiz-adv-x="604" d="M383 123h-156l-48 -123h-191l319 696h206l62 -696h-187zM369 482l-50 -131l-30 -78h87l-1 81v128h-6zM422 722q-48 0 -78.5 17t-47.5 43.5t-22 57t-1 57.5h108q-1 -13 0.5 -26t7.5 -23.5t16.5 -17.5t26.5 -7q17 0 30 7t22.5 17.5t16 23.5t10.5 26h111q-4 -27 -18 -57.5 t-39 -57t-60.5 -43.5t-82.5 -17z" />
<glyph unicode="&#x103;" horiz-adv-x="507" d="M267 0l6 33q-1 0 -2 1q-15 -14 -31 -22t-31 -12t-27 -5.5t-18 -1.5q-66 0 -94 31.5t-28 84.5q0 33 3.5 70t9.5 69q10 49 24.5 95.5t38 82.5t57.5 57.5t82 21.5q9 0 22 -1.5t27 -7t26.5 -14.5t20.5 -24h4q2 10 3.5 19.5t3.5 18.5h173l-92 -496h-178zM344 536 q-48 0 -78.5 17.5t-47.5 44t-22 57t-1 57.5h107q-4 -29 8 -51t42 -22q32 0 52 23t27 50h111q-5 -27 -19 -58t-38 -57t-59.5 -43.5t-81.5 -17.5zM255 142q9 0 15.5 4t11.5 10q11 12 21 44t16 68q3 14 4 27t1 26q0 16 -6 26.5t-23 10.5q-8 0 -14 -4.5t-11 -9.5 q-19 -23 -33 -86q-4 -18 -7 -36t-3 -34t4 -31t24 -15z" />
<glyph unicode="&#x104;" horiz-adv-x="604" d="M470 0q-24 -33 -32 -58t-8 -34q0 -17 12 -23.5t29 -6.5q25 0 55 9l9 -76q-28 -14 -60.5 -21t-58.5 -7q-47 0 -74 22t-27 61q0 9 3 24t11 33.5t22 40t36 42.5l-4 117h-156l-48 -123h-191l319 696h206l62 -696h-105zM369 482l-50 -131l-30 -78h87l-1 81v128h-6z" />
<glyph unicode="&#x105;" horiz-adv-x="495" d="M355 0q-24 -33 -32 -58t-8 -34q0 -17 12 -23.5t29 -6.5q25 0 55 9l9 -76q-28 -14 -60.5 -21t-58.5 -7q-47 0 -74 22t-27 61q0 18 13 55t54 79l6 33q-1 0 -2 1q-15 -14 -31 -22t-31 -12t-27 -5.5t-18 -1.5q-66 0 -94 31.5t-28 84.5q0 33 3.5 70t9.5 69q10 49 24.5 95.5 t38 82.5t57.5 57.5t82 21.5q9 0 22 -1.5t27 -7t26.5 -14.5t20.5 -24h4q2 10 3.5 19.5t3.5 18.5h173l-92 -496h-90zM255 142q9 0 15.5 4t11.5 10q11 12 21 44t16 68q3 14 4 27t1 26q0 16 -6 26.5t-23 10.5q-8 0 -14 -4.5t-11 -9.5q-19 -23 -33 -86q-4 -18 -7 -36t-3 -34 t4 -31t24 -15z" />
<glyph unicode="&#x106;" horiz-adv-x="542" d="M367 704q54 0 93.5 -14.5t65.5 -40t39 -60.5t14 -76l-170 -43v7q0 38 -13.5 53.5t-33.5 15.5q-23 0 -36 -12.5t-21 -30.5q-4 -12 -7.5 -25t-5.5 -27q-11 -60 -21.5 -117.5t-21.5 -117.5q-1 -5 -1.5 -9.5t-0.5 -9.5q0 -20 11 -33t37 -13q22 0 39.5 17.5t30.5 59.5l177 -41 q-25 -91 -88.5 -142t-166.5 -51q-22 0 -37 4q-88 8 -136 56.5t-48 126.5q0 19 2 38t6 39l30 163q6 29 13 57.5t16 56.5q12 37 31.5 68.5t48 53.5t66.5 34.5t88 12.5zM308 805l219 132l59 -121l-234 -95z" />
<glyph unicode="&#x107;" horiz-adv-x="457" d="M301 508q72 0 119 -33.5t55 -94.5l-132 -67q-8 26 -19.5 35.5t-23.5 9.5q-28 0 -40 -21t-20 -52q-6 -23 -10 -47.5t-5 -46.5q-1 -20 6.5 -33.5t31.5 -13.5q13 0 30 10t34 36q29 -17 61.5 -35t61.5 -35q-31 -66 -86.5 -96t-127.5 -30q-98 0 -142 43.5t-44 117.5q0 40 6 87 q8 54 23 98.5t35 73.5q31 45 75.5 69.5t111.5 24.5zM246 581l134 216l119 -61l-169 -203z" />
<glyph unicode="&#x108;" horiz-adv-x="542" d="M367 704q54 0 93.5 -14.5t65.5 -40t39 -60.5t14 -76l-170 -43v7q0 38 -13.5 53.5t-33.5 15.5q-23 0 -36 -12.5t-21 -30.5q-4 -12 -7.5 -25t-5.5 -27q-11 -60 -21.5 -117.5t-21.5 -117.5q-1 -5 -1.5 -9.5t-0.5 -9.5q0 -20 11 -33t37 -13q22 0 39.5 17.5t30.5 59.5l177 -41 q-25 -91 -88.5 -142t-166.5 -51q-22 0 -37 4q-88 8 -136 56.5t-48 126.5q0 19 2 38t6 39l30 163q6 29 13 57.5t16 56.5q12 37 31.5 68.5t48 53.5t66.5 34.5t88 12.5zM409 807l-151 -86l-47 64l163 141h110l110 -142l-66 -64z" />
<glyph unicode="&#x109;" horiz-adv-x="457" d="M301 508q72 0 119 -33.5t55 -94.5l-132 -67q-8 26 -19.5 35.5t-23.5 9.5q-28 0 -40 -21t-20 -52q-6 -23 -10 -47.5t-5 -46.5q-1 -20 6.5 -33.5t31.5 -13.5q13 0 30 10t34 36q29 -17 61.5 -35t61.5 -35q-31 -66 -86.5 -96t-127.5 -30q-98 0 -142 43.5t-44 117.5q0 40 6 87 q8 54 23 98.5t35 73.5q31 45 75.5 69.5t111.5 24.5zM339 628l-148 -104l-58 60l170 165h111l108 -165l-74 -61z" />
<glyph unicode="&#x10a;" horiz-adv-x="542" d="M367 704q54 0 93.5 -14.5t65.5 -40t39 -60.5t14 -76l-170 -43v7q0 38 -13.5 53.5t-33.5 15.5q-23 0 -36 -12.5t-21 -30.5q-4 -12 -7.5 -25t-5.5 -27q-11 -60 -21.5 -117.5t-21.5 -117.5q-1 -5 -1.5 -9.5t-0.5 -9.5q0 -20 11 -33t37 -13q22 0 39.5 17.5t30.5 59.5l177 -41 q-25 -91 -88.5 -142t-166.5 -51q-22 0 -37 4q-88 8 -136 56.5t-48 126.5q0 19 2 38t6 39l30 163q6 29 13 57.5t16 56.5q12 37 31.5 68.5t48 53.5t66.5 34.5t88 12.5zM303 743l26 139h170l-26 -139h-170z" />
<glyph unicode="&#x10b;" horiz-adv-x="457" d="M301 508q72 0 119 -33.5t55 -94.5l-132 -67q-8 26 -19.5 35.5t-23.5 9.5q-28 0 -40 -21t-20 -52q-6 -23 -10 -47.5t-5 -46.5q-1 -20 6.5 -33.5t31.5 -13.5q13 0 30 10t34 36q29 -17 61.5 -35t61.5 -35q-31 -66 -86.5 -96t-127.5 -30q-98 0 -142 43.5t-44 117.5q0 40 6 87 q8 54 23 98.5t35 73.5q31 45 75.5 69.5t111.5 24.5zM231 569l26 139h170l-26 -139h-170z" />
<glyph unicode="&#x10c;" horiz-adv-x="542" d="M367 704q54 0 93.5 -14.5t65.5 -40t39 -60.5t14 -76l-170 -43v7q0 38 -13.5 53.5t-33.5 15.5q-23 0 -36 -12.5t-21 -30.5q-4 -12 -7.5 -25t-5.5 -27q-11 -60 -21.5 -117.5t-21.5 -117.5q-1 -5 -1.5 -9.5t-0.5 -9.5q0 -20 11 -33t37 -13q22 0 39.5 17.5t30.5 59.5l177 -41 q-25 -91 -88.5 -142t-166.5 -51q-22 0 -37 4q-88 8 -136 56.5t-48 126.5q0 19 2 38t6 39l30 163q6 29 13 57.5t16 56.5q12 37 31.5 68.5t48 53.5t66.5 34.5t88 12.5zM561 930l47 -64l-162 -141h-110l-111 140l65 65l119 -86z" />
<glyph unicode="&#x10d;" horiz-adv-x="457" d="M301 508q72 0 119 -33.5t55 -94.5l-132 -67q-8 26 -19.5 35.5t-23.5 9.5q-28 0 -40 -21t-20 -52q-6 -23 -10 -47.5t-5 -46.5q-1 -20 6.5 -33.5t31.5 -13.5q13 0 30 10t34 36q29 -17 61.5 -35t61.5 -35q-31 -66 -86.5 -96t-127.5 -30q-98 0 -142 43.5t-44 117.5q0 40 6 87 q8 54 23 98.5t35 73.5q31 45 75.5 69.5t111.5 24.5zM478 761l62 -59l-168 -165h-111l-109 165l70 59l110 -103z" />
<glyph unicode="&#x10e;" horiz-adv-x="574" d="M408 696q36 0 67 -5.5t55 -18t39.5 -34t20.5 -54.5q3 -17 2 -44t-3.5 -59t-7 -65.5t-8.5 -61.5q-13 -79 -25 -137t-34 -96q-19 -33 -45 -56.5t-57.5 -37.5t-66 -20.5t-69.5 -6.5h-246l128 696h250zM543 930l47 -64l-162 -141h-110l-111 140l65 65l119 -86zM240 153h22 q34 0 58.5 10.5t37.5 41.5q11 25 18.5 59t14.5 73q3 18 6.5 38.5t6.5 40.5t5 38.5t2 33.5q0 28 -13.5 41t-47.5 13h-38z" />
<glyph unicode="&#x10f;" horiz-adv-x="679" d="M352 471q1 1 3 1q11 66 23.5 130t23.5 130h178l-135 -732h-173l8 41h-4q-14 -14 -30.5 -23.5t-32.5 -15t-29.5 -7.5t-21.5 -2q-67 0 -94.5 33.5t-27.5 87.5q0 32 5.5 68.5t10.5 69.5q8 43 20 87.5t29 72.5q22 40 58 67t94 27q20 0 48 -6.5t47 -28.5zM589 461l49 120h-29 l27 147h156l-26 -139l-85 -128h-92zM296 355q-16 0 -26 -14q-7 -8 -13.5 -23t-12 -32.5t-9 -37t-5.5 -36.5q-1 -8 -1.5 -15t-0.5 -15q0 -14 4 -26.5t23 -12.5q23 0 35 24t21 70q5 23 8 40t4 31q3 17 -2 32t-25 15z" />
<glyph unicode="&#x110;" horiz-adv-x="574" d="M408 696q36 0 67 -5.5t55 -18t39.5 -34t20.5 -54.5q3 -17 2 -44t-3.5 -59t-7 -65.5t-8.5 -61.5q-13 -79 -25 -137t-34 -96q-19 -33 -45 -56.5t-57.5 -37.5t-66 -20.5t-69.5 -6.5h-246l52 284h-43l24 125h42q13 72 26 143.5t27 143.5h250zM287 409h55l-24 -125h-54 l-24 -131h22q34 0 58.5 10.5t37.5 41.5q11 25 18.5 59t14.5 73q3 18 6.5 38.5t6.5 40.5t5 38.5t2 33.5q0 28 -13.5 41t-47.5 13h-38z" />
<glyph unicode="&#x111;" horiz-adv-x="518" d="M348 450q1 1 3 1l16 91h-103l20 109h103l15 81h178l-15 -81h43l-20 -109h-43l-100 -542h-173l8 41h-4q-14 -14 -30.5 -23.5t-32.5 -15t-29.5 -7.5t-21.5 -2q-66 0 -94 32.5t-28 92.5q0 32 4.5 65t11.5 68q8 36 18 72t22 60q21 43 59 73t98 30q20 0 47.5 -6.5t47.5 -29.5z M292 335q-8 0 -16 -4.5t-13 -10.5q-13 -16 -21.5 -49.5t-13.5 -75.5q-1 -8 -1 -17.5t2.5 -17t8 -12.5t16.5 -5q14 0 26 12q10 10 17.5 30.5t13.5 46.5q4 15 6.5 35.5t2.5 31.5q0 14 -6.5 25t-21.5 11z" />
<glyph unicode="&#x112;" horiz-adv-x="519" d="M29 0l128 696h426l-29 -156h-241l-20 -107h212l-29 -156h-212l-22 -120h252l-28 -157h-437zM237 750l23 124h297l-23 -124h-297z" />
<glyph unicode="&#x113;" horiz-adv-x="478" d="M293 368q-19 0 -35 -15.5t-22 -50.5q45 0 64.5 10t19.5 29q0 11 -6 19t-21 8zM451 102q-32 -59 -87 -85t-129 -26q-41 0 -75 11t-59 32t-38.5 52.5t-13.5 72.5q0 20 2 41.5t5 40.5q7 49 22.5 97t43.5 86t71.5 61t107.5 23q48 0 82.5 -11t57.5 -29.5t34 -43.5t11 -52 q0 -51 -20 -85.5t-54 -55.5t-78.5 -30t-93.5 -9q-5 0 -10.5 0.5t-11.5 0.5q-6 -33 4 -46.5t39 -13.5q16 0 35 9.5t37 32.5zM189 567l23 124h296l-23 -124h-296z" />
<glyph unicode="&#x114;" horiz-adv-x="519" d="M29 0l128 696h426l-29 -156h-241l-20 -107h212l-29 -156h-212l-22 -120h252l-28 -157h-437zM388 723q-48 0 -78.5 17t-47.5 43.5t-22 57t-1 57.5h108q-1 -13 0.5 -26t7.5 -23.5t16.5 -17.5t26.5 -7q17 0 30 7t22.5 17.5t16 23.5t10.5 26h111q-4 -27 -18 -57.5t-39 -57 t-60.5 -43.5t-82.5 -17z" />
<glyph unicode="&#x115;" horiz-adv-x="478" d="M293 368q-19 0 -35 -15.5t-22 -50.5q45 0 64.5 10t19.5 29q0 11 -6 19t-21 8zM451 102q-32 -59 -87 -85t-129 -26q-41 0 -75 11t-59 32t-38.5 52.5t-13.5 72.5q0 20 2 41.5t5 40.5q7 49 22.5 97t43.5 86t71.5 61t107.5 23q48 0 82.5 -11t57.5 -29.5t34 -43.5t11 -52 q0 -51 -20 -85.5t-54 -55.5t-78.5 -30t-93.5 -9q-5 0 -10.5 0.5t-11.5 0.5q-6 -33 4 -46.5t39 -13.5q16 0 35 9.5t37 32.5zM339 536q-48 0 -78.5 17.5t-47.5 44t-22 57t-1 57.5h107q-4 -29 8 -51t42 -22q32 0 52 23t27 50h111q-5 -27 -19 -58t-38 -57t-59.5 -43.5 t-81.5 -17.5z" />
<glyph unicode="&#x116;" horiz-adv-x="519" d="M29 0l128 696h426l-29 -156h-241l-20 -107h212l-29 -156h-212l-22 -120h252l-28 -157h-437zM295 739l26 139h170l-26 -139h-170z" />
<glyph unicode="&#x117;" horiz-adv-x="478" d="M293 368q-19 0 -35 -15.5t-22 -50.5q45 0 64.5 10t19.5 29q0 11 -6 19t-21 8zM451 102q-32 -59 -87 -85t-129 -26q-41 0 -75 11t-59 32t-38.5 52.5t-13.5 72.5q0 20 2 41.5t5 40.5q7 49 22.5 97t43.5 86t71.5 61t107.5 23q48 0 82.5 -11t57.5 -29.5t34 -43.5t11 -52 q0 -51 -20 -85.5t-54 -55.5t-78.5 -30t-93.5 -9q-5 0 -10.5 0.5t-11.5 0.5q-6 -33 4 -46.5t39 -13.5q16 0 35 9.5t37 32.5zM250 569l26 139h170l-26 -139h-170z" />
<glyph unicode="&#x118;" horiz-adv-x="519" d="M456 0q-24 -33 -32 -58t-8 -34q0 -17 12 -23.5t29 -6.5q25 0 55 9l9 -76q-28 -14 -60.5 -21t-58.5 -7q-47 0 -74 22t-27 61q0 9 2.5 23t10 32t20.5 38t33 41h-338l128 696h426l-29 -156h-241l-20 -107h212l-29 -156h-212l-22 -120h252l-25 -140l-3 -17h-10z" />
<glyph unicode="&#x119;" horiz-adv-x="478" d="M451 102q-28 -51 -76 -79q-21 -31 -28 -54t-7 -31q0 -17 12 -23.5t29 -6.5q25 0 55 9l9 -76q-28 -14 -60.5 -21t-58.5 -7q-47 0 -74 22t-27 61q0 14 7 39.5t28 56.5q-6 0 -12.5 -0.5t-12.5 -0.5q-41 0 -75 11t-59 32t-38.5 52.5t-13.5 72.5q0 20 2 41.5t5 40.5 q7 49 22.5 97t43.5 86t71.5 61t107.5 23q48 0 82.5 -11t57.5 -29.5t34 -43.5t11 -52q0 -51 -20 -85.5t-54 -55.5t-78.5 -30t-93.5 -9q-5 0 -10.5 0.5t-11.5 0.5q-6 -33 4 -46.5t39 -13.5q16 0 35 9.5t37 32.5zM293 368q-19 0 -35 -15.5t-22 -50.5q45 0 64.5 10t19.5 29 q0 11 -6 19t-21 8z" />
<glyph unicode="&#x11a;" horiz-adv-x="519" d="M29 0l128 696h426l-29 -156h-241l-20 -107h212l-29 -156h-212l-22 -120h252l-28 -157h-437zM542 930l47 -64l-162 -141h-110l-111 140l65 65l119 -86z" />
<glyph unicode="&#x11b;" horiz-adv-x="478" d="M293 368q-19 0 -35 -15.5t-22 -50.5q45 0 64.5 10t19.5 29q0 11 -6 19t-21 8zM451 102q-32 -59 -87 -85t-129 -26q-41 0 -75 11t-59 32t-38.5 52.5t-13.5 72.5q0 20 2 41.5t5 40.5q7 49 22.5 97t43.5 86t71.5 61t107.5 23q48 0 82.5 -11t57.5 -29.5t34 -43.5t11 -52 q0 -51 -20 -85.5t-54 -55.5t-78.5 -30t-93.5 -9q-5 0 -10.5 0.5t-11.5 0.5q-6 -33 4 -46.5t39 -13.5q16 0 35 9.5t37 32.5zM487 761l62 -59l-168 -165h-111l-109 165l70 59l110 -103z" />
<glyph unicode="&#x11c;" horiz-adv-x="564" d="M277 -6q-65 0 -108.5 20t-68.5 54.5t-31 82t4 102.5l33 177q5 27 11.5 53t15.5 52q27 77 86.5 122.5t151.5 45.5q50 0 90.5 -13t67.5 -37.5t40.5 -59.5t9.5 -79l-169 -43v4q0 38 -14 54.5t-34 16.5q-19 0 -31 -9t-20 -22.5t-12 -29.5t-7 -31l-41 -225q-2 -13 -2.5 -26.5 t4 -24t14.5 -17.5t28 -7q17 0 29.5 7.5t20.5 19t12.5 23.5t6.5 21l7 35h-57l25 134h234l-22 -136q-6 -56 -25 -104t-52 -83.5t-81.5 -56t-115.5 -20.5zM409 799l-151 -86l-47 64l163 141h110l110 -142l-66 -64z" />
<glyph unicode="&#x11d;" horiz-adv-x="507" d="M259 504q8 0 20 -1.5t25 -6.5t25.5 -14t21.5 -24h4q2 10 3.5 19.5t3.5 19.5h173q-20 -110 -37.5 -218.5t-37.5 -218.5q-5 -29 -11 -55t-14 -51q-25 -84 -80.5 -124t-155.5 -40q-72 0 -123.5 26.5t-68.5 84.5q31 18 64.5 36.5t64.5 36.5q17 -22 34 -28.5t29 -6.5 q25 0 43 12t25 42l13 61h-3q-32 -28 -59.5 -37.5t-55.5 -9.5q-64 0 -92 34t-28 88q0 35 4.5 70.5t11.5 68.5t16 62t18 51q25 57 66 90t101 33zM359 628l-148 -104l-58 60l170 165h111l108 -165l-74 -61zM253 158q22 0 34.5 20t18.5 46q10 40 12.5 59.5t2.5 30.5 q0 17 -5 28.5t-23 11.5q-8 0 -14.5 -4t-11.5 -9q-9 -10 -19 -33t-15 -47q-3 -14 -4 -24t-3 -24q0 -8 0.5 -18t2.5 -18t7.5 -13.5t16.5 -5.5z" />
<glyph unicode="&#x11e;" horiz-adv-x="564" d="M277 -6q-65 0 -108.5 20t-68.5 54.5t-31 82t4 102.5l33 177q5 27 11.5 53t15.5 52q27 77 86.5 122.5t151.5 45.5q50 0 90.5 -13t67.5 -37.5t40.5 -59.5t9.5 -79l-169 -43v4q0 38 -14 54.5t-34 16.5q-19 0 -31 -9t-20 -22.5t-12 -29.5t-7 -31l-41 -225q-2 -13 -2.5 -26.5 t4 -24t14.5 -17.5t28 -7q17 0 29.5 7.5t20.5 19t12.5 23.5t6.5 21l7 35h-57l25 134h234l-22 -136q-6 -56 -25 -104t-52 -83.5t-81.5 -56t-115.5 -20.5zM392 724q-48 0 -78.5 17t-47.5 43.5t-22 57t-1 57.5h108q-1 -13 0.5 -26t7.5 -23.5t16.5 -17.5t26.5 -7q17 0 30 7 t22.5 17.5t16 23.5t10.5 26h111q-4 -27 -18 -57.5t-39 -57t-60.5 -43.5t-82.5 -17z" />
<glyph unicode="&#x11f;" horiz-adv-x="507" d="M259 504q8 0 20 -1.5t25 -6.5t25.5 -14t21.5 -24h4q2 10 3.5 19.5t3.5 19.5h173q-20 -110 -37.5 -218.5t-37.5 -218.5q-5 -29 -11 -55t-14 -51q-25 -84 -80.5 -124t-155.5 -40q-72 0 -123.5 26.5t-68.5 84.5q31 18 64.5 36.5t64.5 36.5q17 -22 34 -28.5t29 -6.5 q25 0 43 12t25 42l13 61h-3q-32 -28 -59.5 -37.5t-55.5 -9.5q-64 0 -92 34t-28 88q0 35 4.5 70.5t11.5 68.5t16 62t18 51q25 57 66 90t101 33zM356 536q-48 0 -78.5 17.5t-47.5 44t-22 57t-1 57.5h107q-4 -29 8 -51t42 -22q32 0 52 23t27 50h111q-5 -27 -19 -58t-38 -57 t-59.5 -43.5t-81.5 -17.5zM253 158q22 0 34.5 20t18.5 46q10 40 12.5 59.5t2.5 30.5q0 17 -5 28.5t-23 11.5q-8 0 -14.5 -4t-11.5 -9q-9 -10 -19 -33t-15 -47q-3 -14 -4 -24t-3 -24q0 -8 0.5 -18t2.5 -18t7.5 -13.5t16.5 -5.5z" />
<glyph unicode="&#x120;" horiz-adv-x="564" d="M277 -6q-65 0 -108.5 20t-68.5 54.5t-31 82t4 102.5l33 177q5 27 11.5 53t15.5 52q27 77 86.5 122.5t151.5 45.5q50 0 90.5 -13t67.5 -37.5t40.5 -59.5t9.5 -79l-169 -43v4q0 38 -14 54.5t-34 16.5q-19 0 -31 -9t-20 -22.5t-12 -29.5t-7 -31l-41 -225q-2 -13 -2.5 -26.5 t4 -24t14.5 -17.5t28 -7q17 0 29.5 7.5t20.5 19t12.5 23.5t6.5 21l7 35h-57l25 134h234l-22 -136q-6 -56 -25 -104t-52 -83.5t-81.5 -56t-115.5 -20.5zM298 739l26 139h170l-26 -139h-170z" />
<glyph unicode="&#x121;" horiz-adv-x="507" d="M259 504q8 0 20 -1.5t25 -6.5t25.5 -14t21.5 -24h4q2 10 3.5 19.5t3.5 19.5h173q-20 -110 -37.5 -218.5t-37.5 -218.5q-5 -29 -11 -55t-14 -51q-25 -84 -80.5 -124t-155.5 -40q-72 0 -123.5 26.5t-68.5 84.5q31 18 64.5 36.5t64.5 36.5q17 -22 34 -28.5t29 -6.5 q25 0 43 12t25 42l13 61h-3q-32 -28 -59.5 -37.5t-55.5 -9.5q-64 0 -92 34t-28 88q0 35 4.5 70.5t11.5 68.5t16 62t18 51q25 57 66 90t101 33zM256 569l26 139h170l-26 -139h-170zM253 158q22 0 34.5 20t18.5 46q10 40 12.5 59.5t2.5 30.5q0 17 -5 28.5t-23 11.5 q-8 0 -14.5 -4t-11.5 -9q-9 -10 -19 -33t-15 -47q-3 -14 -4 -24t-3 -24q0 -8 0.5 -18t2.5 -18t7.5 -13.5t16.5 -5.5z" />
<glyph unicode="&#x122;" horiz-adv-x="564" d="M277 -6q-65 0 -108.5 20t-68.5 54.5t-31 82t4 102.5l33 177q5 27 11.5 53t15.5 52q27 77 86.5 122.5t151.5 45.5q50 0 90.5 -13t67.5 -37.5t40.5 -59.5t9.5 -79l-169 -43v4q0 38 -14 54.5t-34 16.5q-19 0 -31 -9t-20 -22.5t-12 -29.5t-7 -31l-41 -225q-2 -13 -2.5 -26.5 t4 -24t14.5 -17.5t28 -7q17 0 29.5 7.5t20.5 19t12.5 23.5t6.5 21l7 35h-57l25 134h234l-22 -136q-6 -56 -25 -104t-52 -83.5t-81.5 -56t-115.5 -20.5zM123 -322l49 120h-29l27 147h156l-26 -139l-85 -128h-92z" />
<glyph unicode="&#x123;" horiz-adv-x="507" d="M259 504q8 0 20 -1.5t25 -6.5t25.5 -14t21.5 -24h4q2 10 3.5 19.5t3.5 19.5h173q-20 -110 -37.5 -218.5t-37.5 -218.5q-5 -29 -11 -55t-14 -51q-25 -84 -80.5 -124t-155.5 -40q-72 0 -123.5 26.5t-68.5 84.5q31 18 64.5 36.5t64.5 36.5q17 -22 34 -28.5t29 -6.5 q25 0 43 12t25 42l13 61h-3q-32 -28 -59.5 -37.5t-55.5 -9.5q-64 0 -92 34t-28 88q0 35 4.5 70.5t11.5 68.5t16 62t18 51q25 57 66 90t101 33zM378 834h92l-24 -60t-25 -60h29l-27 -146h-156l26 138zM253 158q22 0 34.5 20t18.5 46q10 40 12.5 59.5t2.5 30.5q0 17 -5 28.5 t-23 11.5q-8 0 -14.5 -4t-11.5 -9q-9 -10 -19 -33t-15 -47q-3 -14 -4 -24t-3 -24q0 -8 0.5 -18t2.5 -18t7.5 -13.5t16.5 -5.5z" />
<glyph unicode="&#x124;" horiz-adv-x="578" d="M327 0l50 272h-114l-50 -272h-184l128 696h184l-48 -264h114l48 264h183l-128 -696h-183zM425 807l-151 -86l-47 64l163 141h110l110 -142l-66 -64z" />
<glyph unicode="&#x125;" horiz-adv-x="513" d="M282 453q36 31 72 43t60 12q38 0 61.5 -12t34.5 -33.5t12 -51t-5 -65.5l-63 -346h-177l52 287q5 25 -0.5 38.5t-26.5 13.5q-12 0 -21 -8t-15.5 -19t-10.5 -24t-6 -23l-50 -265h-177l135 732h175l-53 -278zM268 820l-151 -86l-47 64l163 141h110l110 -142l-66 -64z" />
<glyph unicode="&#x126;" horiz-adv-x="578" d="M327 0l50 272h-114l-50 -272h-184l92 503h-36l18 97h36l18 96h184l-18 -96h114l18 96h183l-18 -96h36l-18 -97h-36l-92 -503h-183zM407 432l13 71h-114l-13 -71h114z" />
<glyph unicode="&#x127;" horiz-adv-x="519" d="M284 434q36 29 71 40t56 11q38 0 62.5 -11t36.5 -31.5t14 -49.5t-5 -65l-60 -328h-177l49 268q5 24 -0.5 38t-27.5 14q-11 0 -19.5 -6t-15 -15t-10.5 -19.5t-6 -20.5l-48 -259h-177l99 540h-37l19 108h38l16 84h175l-16 -84h154l-19 -108h-155l-20 -105z" />
<glyph unicode="&#x128;" horiz-adv-x="302" d="M39 0l128 696h184l-128 -696h-184zM341 730q-16 0 -30 6t-27.5 13.5t-26.5 13.5t-27 6q-13 0 -32 -8.5t-41 -34.5l-69 44q35 65 72.5 92t74.5 27q19 0 35 -6.5t29.5 -14t25.5 -13.5t25 -6q15 0 30 9t35 32l68 -42q-17 -34 -35 -56.5t-36.5 -36t-36.5 -19.5t-34 -6z" />
<glyph unicode="&#x129;" horiz-adv-x="284" d="M293 560q-16 0 -30 6t-27.5 13.5t-26.5 13.5t-27 6q-13 0 -32 -8.5t-41 -34.5l-69 44q35 65 72.5 92t74.5 27q19 0 35 -6.5t29.5 -14t25.5 -13.5t25 -6q15 0 30 9t35 32l68 -42q-17 -34 -35 -56.5t-36.5 -36t-36.5 -19.5t-34 -6zM34 0l92 497h176l-92 -497h-176z" />
<glyph unicode="&#x12a;" horiz-adv-x="302" d="M39 0l128 696h184l-128 -696h-184zM123 750l23 124h297l-23 -124h-297z" />
<glyph unicode="&#x12b;" horiz-adv-x="298" d="M44 0l92 497h176l-92 -497h-176zM90 567l23 124h297l-23 -124h-297z" />
<glyph unicode="&#x12c;" horiz-adv-x="302" d="M39 0l128 696h184l-128 -696h-184zM268 734q-48 0 -78.5 17t-47.5 43.5t-22 57t-1 57.5h108q-1 -13 0.5 -26t7.5 -23.5t16.5 -17.5t26.5 -7q17 0 30 7t22.5 17.5t16 23.5t10.5 26h111q-4 -27 -18 -57.5t-39 -57t-60.5 -43.5t-82.5 -17z" />
<glyph unicode="&#x12d;" horiz-adv-x="310" d="M242 542q-48 0 -78.5 17.5t-47.5 44t-22 57t-1 57.5h107q-4 -29 8 -51t42 -22q32 0 52 23t27 50h111q-5 -27 -19 -58t-38 -57t-59.5 -43.5t-81.5 -17.5zM41 0l92 497h176l-92 -497h-176z" />
<glyph unicode="&#x12e;" horiz-adv-x="302" d="M163 0q-24 -33 -31.5 -57.5t-7.5 -33.5q0 -17 12 -23.5t29 -6.5q25 0 55 9l9 -76q-28 -14 -60.5 -21t-58.5 -7q-47 0 -74 22t-27 61q0 9 2.5 23t10 31.5t20 37.5t32.5 41h-35l128 696h184l-128 -696h-60z" />
<glyph unicode="&#x12f;" horiz-adv-x="284" d="M154 0q-24 -33 -31.5 -57.5t-7.5 -33.5q0 -17 12 -23.5t29 -6.5q25 0 55 9l9 -76q-28 -14 -60.5 -21t-58.5 -7q-47 0 -74 22t-27 61q0 9 2.5 23t10 31.5t20 37.5t32.5 41h-31l92 497h176l-92 -497h-56zM139 569l26 142h176l-26 -142h-176z" />
<glyph unicode="&#x130;" horiz-adv-x="302" d="M39 0l128 696h184l-128 -696h-184zM185 749l26 139h170l-26 -139h-170z" />
<glyph unicode="&#x131;" horiz-adv-x="284" d="M34 0l92 497h176l-92 -497h-176z" />
<glyph unicode="&#x132;" horiz-adv-x="740" d="M39 0l128 696h184l-128 -696h-184zM705 212q-21 -112 -80 -164.5t-165 -52.5q-57 0 -112.5 21t-96.5 80l130 116q23 -31 44 -40.5t38 -9.5q26 0 41.5 16.5t20.5 44.5l87 473h182z" />
<glyph unicode="&#x133;" horiz-adv-x="535" d="M453 -42q-17 -83 -67 -124t-143 -41h-12.5h-22.5t-22.5 0.5t-13.5 1.5l29 154h26q31 0 43 16t17 46l90 486h176zM34 0l92 497h176l-92 -497h-176zM390 569l27 142h176l-26 -142h-177zM139 569l26 142h176l-26 -142h-176z" />
<glyph unicode="&#x134;" horiz-adv-x="487" d="M452 213q-21 -112 -80 -164.5t-165 -52.5q-57 0 -112.5 21t-96.5 80l130 116q23 -31 44 -40.5t38 -9.5q26 0 41.5 16.5t20.5 44.5l87 473h182zM478 809l-151 -86l-47 64l163 141h110l110 -142l-66 -64z" />
<glyph unicode="&#x135;" horiz-adv-x="350" d="M236 -45q-15 -77 -65.5 -119.5t-143.5 -42.5h-12.5h-22.5t-22.5 0.5t-13.5 1.5l29 154h22q29 0 43.5 15t20.5 47l90 486h176zM275 628l-148 -104l-58 60l170 165h111l108 -165l-74 -61z" />
<glyph unicode="&#x136;" horiz-adv-x="602" d="M446 402l135 -402h-201l-71 243l-65 -72l-31 -171h-184l128 696h184l-40 -215h4l183 215h216zM138 -302l49 120h-29l27 147h156l-26 -139l-85 -128h-92z" />
<glyph unicode="&#x137;" horiz-adv-x="531" d="M397 301l113 -301h-192l-53 168l-48 -51l-20 -117h-175l134 726h176l-66 -355l4 -1l114 126h206zM89 -322l49 120h-29l27 147h156l-26 -139l-85 -128h-92z" />
<glyph unicode="&#x138;" horiz-adv-x="531" d="M397 301l113 -301h-192l-53 168l-48 -51l-20 -117h-175l91 497h176l-23 -126l4 -1l114 127h206z" />
<glyph unicode="&#x139;" horiz-adv-x="505" d="M29 0l128 696h184l-99 -539h251l-28 -157h-436zM200 805l219 132l59 -121l-234 -95z" />
<glyph unicode="&#x13a;" horiz-adv-x="307" d="M168 726h175l-100 -534q-1 -4 -1 -11q0 -16 10.5 -23.5t34.5 -11.5l-27 -148h-29q-38 0 -69 7t-53.5 22t-35 40t-12.5 61q0 11 1.5 23t3.5 26zM186 827l219 132l59 -121l-234 -95z" />
<glyph unicode="&#x13b;" horiz-adv-x="505" d="M29 0l128 696h184l-99 -539h251l-28 -157h-436zM113 -322l49 120h-29l27 147h156l-26 -139l-85 -128h-92z" />
<glyph unicode="&#x13c;" horiz-adv-x="307" d="M168 726h175l-100 -534q-1 -4 -1 -11q0 -16 10.5 -23.5t34.5 -11.5l-27 -148h-29q-38 0 -69 7t-53.5 22t-35 40t-12.5 61q0 11 1.5 23t3.5 26zM6 -320l49 120h-29l27 147h156l-26 -139l-85 -128h-92z" />
<glyph unicode="&#x13d;" horiz-adv-x="505" d="M29 0l128 696h184l-99 -539h251l-28 -157h-436zM390 430l49 120h-29l27 147h156l-26 -139l-85 -128h-92z" />
<glyph unicode="&#x13e;" horiz-adv-x="464" d="M168 726h175l-100 -534q-1 -4 -1 -11q0 -16 10.5 -23.5t34.5 -11.5l-27 -148h-29q-38 0 -69 7t-53.5 22t-35 40t-12.5 61q0 11 1.5 23t3.5 26zM353 458l49 120h-29l27 147h156l-26 -139l-85 -128h-92z" />
<glyph unicode="&#x13f;" horiz-adv-x="505" d="M29 0l128 696h184l-99 -539h251l-28 -157h-436zM354 313l26 139h170l-26 -139h-170z" />
<glyph unicode="&#x140;" horiz-adv-x="461" d="M168 726h175l-100 -534q-1 -4 -1 -11q0 -16 10.5 -23.5t34.5 -11.5l-27 -148h-29q-38 0 -69 7t-53.5 22t-35 40t-12.5 61q0 11 1.5 23t3.5 26zM326 331l26 139h170l-26 -139h-170z" />
<glyph unicode="&#x141;" horiz-adv-x="505" d="M29 0l39 215l-37 -21q-9 23 -18 45.5t-17 45.5l95 55l66 356h184l-43 -235q17 9 33 18.5t33 19.5l36 -91l-125 -73l-33 -178h251l-28 -157h-436z" />
<glyph unicode="&#x142;" horiz-adv-x="307" d="M73 215q-8 -5 -16.5 -9.5t-16.5 -9.5l-36 91l92 52l72 387h175l-52 -275l53 30q10 -23 19 -45.5t18 -45.5l-113 -64l-25 -134q-1 -4 -1 -11q0 -16 10.5 -23.5t34.5 -11.5l-27 -148h-29q-38 0 -69 7t-53.5 22t-35 40t-12.5 61q0 11 1.5 23t3.5 26z" />
<glyph unicode="&#x143;" horiz-adv-x="607" d="M430 378l58 318h178l-128 -696h-160l-58 176l-47 148h-5l-59 -324h-180l128 696h161l59 -165l48 -153h5zM334 798l219 132l59 -121l-234 -95z" />
<glyph unicode="&#x144;" horiz-adv-x="513" d="M281 438q17 20 35.5 33.5t36.5 21.5t33.5 11.5t26.5 3.5q38 0 61.5 -12t34.5 -33.5t12 -51.5t-5 -66l-62 -345h-177l52 289q5 24 -1 38t-27 14q-12 0 -20.5 -6.5t-14.5 -16.5t-10 -22t-6 -22l-51 -274h-177l91 497h175l-11 -58zM253 581l134 216l119 -61l-169 -203z" />
<glyph unicode="&#x145;" horiz-adv-x="607" d="M430 378l58 318h178l-128 -696h-160l-58 176l-47 148h-5l-59 -324h-180l128 696h161l59 -165l48 -153h5zM153 -302l49 120h-29l27 147h156l-26 -139l-85 -128h-92z" />
<glyph unicode="&#x146;" horiz-adv-x="513" d="M281 438q17 20 35.5 33.5t36.5 21.5t33.5 11.5t26.5 3.5q38 0 61.5 -12t34.5 -33.5t12 -51.5t-5 -66l-62 -345h-177l52 289q5 24 -1 38t-27 14q-12 0 -20.5 -6.5t-14.5 -16.5t-10 -22t-6 -22l-51 -274h-177l91 497h175l-11 -58zM98 -322l49 120h-29l27 147h156l-26 -139 l-85 -128h-92z" />
<glyph unicode="&#x147;" horiz-adv-x="607" d="M430 378l58 318h178l-128 -696h-160l-58 176l-47 148h-5l-59 -324h-180l128 696h161l59 -165l48 -153h5zM581 930l47 -64l-162 -141h-110l-111 140l65 65l119 -86z" />
<glyph unicode="&#x148;" horiz-adv-x="513" d="M281 438q17 20 35.5 33.5t36.5 21.5t33.5 11.5t26.5 3.5q38 0 61.5 -12t34.5 -33.5t12 -51.5t-5 -66l-62 -345h-177l52 289q5 24 -1 38t-27 14q-12 0 -20.5 -6.5t-14.5 -16.5t-10 -22t-6 -22l-51 -274h-177l91 497h175l-11 -58zM483 761l62 -59l-168 -165h-111l-109 165 l70 59l110 -103z" />
<glyph unicode="&#x149;" horiz-adv-x="654" d="M422 438q17 20 35.5 33.5t36.5 21.5t33.5 11.5t26.5 3.5q38 0 61.5 -12t34.5 -33.5t12 -51.5t-5 -66l-62 -345h-177l52 289q5 24 -1 38t-27 14q-12 0 -20.5 -6.5t-14.5 -16.5t-10 -22t-6 -22l-51 -274h-177l91 497h175l-11 -58zM67 405l49 120h-29l27 147h156l-26 -139 l-85 -128h-92z" />
<glyph unicode="&#x14a;" horiz-adv-x="607" d="M430 383l57 313h179l-143 -767q-15 -81 -52 -117.5t-111 -36.5q-18 0 -42 3.5t-56 11.5l20 142q32 -3 49 1.5t22 32.5l14 74l-48 130l-48 148h-4l-59 -318h-179l128 696h160q15 -41 30 -80.5t29 -79.5l49 -153h5z" />
<glyph unicode="&#x14b;" horiz-adv-x="513" d="M281 438q17 20 35.5 33.5t36.5 21.5t33.5 11.5t26.5 3.5q38 0 61.5 -12t34.5 -33.5t12 -51.5t-5 -66l-76 -416q-16 -81 -52.5 -117.5t-110.5 -36.5q-18 0 -42 3.5t-56 11.5l20 142q32 -3 49 1.5t22 32.5l59 323q5 24 -1 38t-27 14q-12 0 -20.5 -6.5t-14.5 -16.5t-10 -22 t-6 -22l-51 -274h-177l91 497h175l-11 -58z" />
<glyph unicode="&#x14c;" horiz-adv-x="568" d="M361 545q-20 0 -34.5 -12t-21.5 -32q-5 -17 -10.5 -38t-8.5 -38q-8 -42 -15 -79.5t-14 -83.5q-3 -18 -5.5 -35t-3.5 -34q0 -21 14.5 -31t34.5 -10q27 0 41 18.5t21 50.5q12 57 20.5 107.5t18.5 104.5q3 18 5.5 35t3.5 34q-1 20 -13.5 31.5t-32.5 11.5zM367 704 q60 0 105.5 -18t73.5 -51.5t38 -80.5t0 -104q-8 -44 -14.5 -88.5t-16.5 -87.5q-5 -22 -8 -36.5t-5 -25t-4.5 -20t-5.5 -21.5q-22 -85 -79 -131t-166 -46q-75 0 -129 28t-74 74q-14 33 -14.5 76t10.5 103q11 64 19 105.5t14 68.5t10.5 42.5t7.5 27.5q23 85 80.5 135t157.5 50 zM252 750l23 124h297l-23 -124h-297z" />
<glyph unicode="&#x14d;" horiz-adv-x="498" d="M309 509q51 0 87 -13t59.5 -36t34 -56t10.5 -72q0 -26 -3.5 -55.5t-10.5 -59t-16 -56t-20 -45.5q-17 -35 -38.5 -59t-47 -38t-55.5 -20t-63 -6q-105 0 -150.5 47t-45.5 127q0 20 2.5 41t5.5 41q9 51 25 95.5t43 78.5q28 37 71 61.5t112 24.5zM295 360q-15 0 -27 -14 q-19 -23 -34 -93q-9 -42 -9 -70q0 -14 4.5 -27.5t21.5 -13.5q15 0 25 8.5t17.5 22.5t12 32t8.5 37q5 23 7.5 43.5t2.5 37.5q0 16 -5.5 26.5t-23.5 10.5zM186 567l23 124h296l-23 -124h-296z" />
<glyph unicode="&#x14e;" horiz-adv-x="568" d="M361 545q-20 0 -34.5 -12t-21.5 -32q-5 -17 -10.5 -38t-8.5 -38q-8 -42 -15 -79.5t-14 -83.5q-3 -18 -5.5 -35t-3.5 -34q0 -21 14.5 -31t34.5 -10q27 0 41 18.5t21 50.5q12 57 20.5 107.5t18.5 104.5q3 18 5.5 35t3.5 34q-1 20 -13.5 31.5t-32.5 11.5zM367 704 q60 0 105.5 -18t73.5 -51.5t38 -80.5t0 -104q-8 -44 -14.5 -88.5t-16.5 -87.5q-5 -22 -8 -36.5t-5 -25t-4.5 -20t-5.5 -21.5q-22 -85 -79 -131t-166 -46q-75 0 -129 28t-74 74q-14 33 -14.5 76t10.5 103q11 64 19 105.5t14 68.5t10.5 42.5t7.5 27.5q23 85 80.5 135t157.5 50 zM404 725q-48 0 -78.5 17t-47.5 43.5t-22 57t-1 57.5h108q-1 -13 0.5 -26t7.5 -23.5t16.5 -17.5t26.5 -7q17 0 30 7t22.5 17.5t16 23.5t10.5 26h111q-4 -27 -18 -57.5t-39 -57t-60.5 -43.5t-82.5 -17z" />
<glyph unicode="&#x14f;" horiz-adv-x="498" d="M309 509q51 0 87 -13t59.5 -36t34 -56t10.5 -72q0 -26 -3.5 -55.5t-10.5 -59t-16 -56t-20 -45.5q-17 -35 -38.5 -59t-47 -38t-55.5 -20t-63 -6q-105 0 -150.5 47t-45.5 127q0 20 2.5 41t5.5 41q9 51 25 95.5t43 78.5q28 37 71 61.5t112 24.5zM295 360q-15 0 -27 -14 q-19 -23 -34 -93q-9 -42 -9 -70q0 -14 4.5 -27.5t21.5 -13.5q15 0 25 8.5t17.5 22.5t12 32t8.5 37q5 23 7.5 43.5t2.5 37.5q0 16 -5.5 26.5t-23.5 10.5zM335 536q-48 0 -78.5 17.5t-47.5 44t-22 57t-1 57.5h107q-4 -29 8 -51t42 -22q32 0 52 23t27 50h111q-5 -27 -19 -58 t-38 -57t-59.5 -43.5t-81.5 -17.5z" />
<glyph unicode="&#x150;" horiz-adv-x="568" d="M361 545q-20 0 -34.5 -12t-21.5 -32q-5 -17 -10.5 -38t-8.5 -38q-8 -42 -15 -79.5t-14 -83.5q-3 -18 -5.5 -35t-3.5 -34q0 -21 14.5 -31t34.5 -10q27 0 41 18.5t21 50.5q12 57 20.5 107.5t18.5 104.5q3 18 5.5 35t3.5 34q-1 20 -13.5 31.5t-32.5 11.5zM367 704 q60 0 105.5 -18t73.5 -51.5t38 -80.5t0 -104q-8 -44 -14.5 -88.5t-16.5 -87.5q-5 -22 -8 -36.5t-5 -25t-4.5 -20t-5.5 -21.5q-22 -85 -79 -131t-166 -46q-75 0 -129 28t-74 74q-14 33 -14.5 76t10.5 103q11 64 19 105.5t14 68.5t10.5 42.5t7.5 27.5q23 85 80.5 135t157.5 50 zM210 795l200 158l72 -108l-220 -127zM433 792l202 158l72 -108l-222 -127z" />
<glyph unicode="&#x151;" horiz-adv-x="498" d="M309 509q51 0 87 -13t59.5 -36t34 -56t10.5 -72q0 -26 -3.5 -55.5t-10.5 -59t-16 -56t-20 -45.5q-17 -35 -38.5 -59t-47 -38t-55.5 -20t-63 -6q-105 0 -150.5 47t-45.5 127q0 20 2.5 41t5.5 41q9 51 25 95.5t43 78.5q28 37 71 61.5t112 24.5zM295 360q-15 0 -27 -14 q-19 -23 -34 -93q-9 -42 -9 -70q0 -14 4.5 -27.5t21.5 -13.5q15 0 25 8.5t17.5 22.5t12 32t8.5 37q5 23 7.5 43.5t2.5 37.5q0 16 -5.5 26.5t-23.5 10.5zM361 553l134 214l117 -63l-168 -197zM187 572l135 213l117 -62l-168 -198z" />
<glyph unicode="&#x152;" horiz-adv-x="733" d="M261 -6q-52 0 -89 13t-61 37t-35 57t-11 73q0 30 4.5 59t9.5 59l22 113q7 43 18 88q12 50 31.5 89t49.5 66t73 41t103 14q22 0 50 -2t64 -5h309l-28 -156h-211l-10 -54t-10 -53h178l-28 -156h-178l-23 -121h218l-28 -156h-353q-30 -6 -65 -6zM363 543q-20 0 -33 -10.5 t-21 -26t-12 -34t-7 -34.5q-9 -45 -17.5 -90.5t-16.5 -90.5q-3 -16 -5 -31t-2 -29q0 -21 9 -33t32 -12q10 0 15 2l72 387q-10 2 -14 2z" />
<glyph unicode="&#x153;" horiz-adv-x="738" d="M720 102q-32 -59 -87 -85t-129 -26q-38 0 -71.5 11.5t-54.5 34.5q-57 -44 -132 -44q-105 0 -150.5 47t-45.5 127q0 20 2.5 41t5.5 41q9 51 24.5 97.5t38.5 76.5q28 36 70 61t111 25q44 0 80.5 -12.5t58.5 -34.5q26 22 57 34t72 12q48 0 82.5 -11t57.5 -29.5t34 -43.5 t11 -52q0 -51 -20 -85.5t-54 -55.5t-78.5 -30t-93.5 -9q-5 0 -10.5 0.5t-11.5 0.5q-6 -33 4 -46.5t39 -13.5q16 0 35 9.5t37 32.5zM295 360q-15 0 -27 -14q-19 -23 -34 -93q-9 -42 -9 -70q0 -14 4.5 -27.5t21.5 -13.5q15 0 25 8.5t17.5 22.5t12 32t8.5 37q5 23 7.5 43.5 t2.5 37.5q0 16 -5.5 26.5t-23.5 10.5zM562 368q-19 0 -35 -15.5t-22 -50.5q45 0 64.5 10t19.5 29q0 11 -6 19t-21 8z" />
<glyph unicode="&#x154;" horiz-adv-x="569" d="M210 0h-181l128 696h256q41 0 74.5 -11t57.5 -32.5t37 -55t13 -78.5q0 -152 -130 -216l52 -303h-186l-34 264h-39zM300 805l219 132l59 -121l-234 -95zM310 545l-24 -130h38q13 0 28 4.5t28 14t21.5 25.5t8.5 40q0 23 -13 34.5t-35 11.5h-52z" />
<glyph unicode="&#x155;" horiz-adv-x="408" d="M290 423q30 47 66 66t66 19q11 0 26.5 -3t24.5 -7l-59 -185q-31 11 -59 11q-38 0 -65 -24.5t-37 -77.5l-41 -222h-177l91 497h176l-15 -73zM198 581l134 216l119 -61l-169 -203z" />
<glyph unicode="&#x156;" horiz-adv-x="569" d="M210 0h-181l128 696h256q41 0 74.5 -11t57.5 -32.5t37 -55t13 -78.5q0 -152 -130 -216l52 -303h-186l-34 264h-39zM122 -302l49 120h-29l27 147h156l-26 -139l-85 -128h-92zM310 545l-24 -130h38q13 0 28 4.5t28 14t21.5 25.5t8.5 40q0 23 -13 34.5t-35 11.5h-52z" />
<glyph unicode="&#x157;" horiz-adv-x="408" d="M290 423q30 47 66 66t66 19q11 0 26.5 -3t24.5 -7l-59 -185q-31 11 -59 11q-38 0 -65 -24.5t-37 -77.5l-41 -222h-177l91 497h176l-15 -73zM-16 -321l49 120h-29l27 147h156l-26 -139l-85 -128h-92z" />
<glyph unicode="&#x158;" horiz-adv-x="569" d="M210 0h-181l128 696h256q41 0 74.5 -11t57.5 -32.5t37 -55t13 -78.5q0 -152 -130 -216l52 -303h-186l-34 264h-39zM535 930l47 -64l-162 -141h-110l-111 140l65 65l119 -86zM310 545l-24 -130h38q13 0 28 4.5t28 14t21.5 25.5t8.5 40q0 23 -13 34.5t-35 11.5h-52z" />
<glyph unicode="&#x159;" horiz-adv-x="408" d="M290 423q30 47 66 66t66 19q11 0 26.5 -3t24.5 -7l-59 -185q-31 11 -59 11q-38 0 -65 -24.5t-37 -77.5l-41 -222h-177l91 497h176l-15 -73zM421 761l62 -59l-168 -165h-111l-109 165l70 59l110 -103z" />
<glyph unicode="&#x15a;" horiz-adv-x="539" d="M343 540q-23 0 -39.5 -13t-16.5 -33q0 -23 24.5 -38t63.5 -33q82 -40 121.5 -83.5t39.5 -107.5q0 -59 -21.5 -103.5t-58 -74t-85.5 -44.5t-104 -15q-88 0 -148 39t-90 96l136 99q20 -38 47.5 -55.5t56.5 -17.5q35 0 55.5 17t20.5 42q0 23 -22.5 36.5t-55.5 28.5 q-70 31 -113.5 75t-43.5 109q0 55 19 99t52 74.5t78.5 46.5t98.5 16q72 0 122.5 -26.5t82.5 -74.5l-125 -118q-20 33 -45.5 46t-49.5 13zM281 805l219 132l59 -121l-234 -95z" />
<glyph unicode="&#x15b;" horiz-adv-x="458" d="M150 182q17 -32 34.5 -42t43.5 -10q15 0 28 8t13 22q0 11 -11.5 17t-29.5 11q-23 7 -48 16.5t-45.5 25.5t-34 40.5t-13.5 61.5q0 43 18 76t46.5 55.5t64.5 34t72 11.5q66 0 114.5 -26t70.5 -77l-114 -78q-15 28 -35 35.5t-36 7.5q-20 0 -28 -9.5t-8 -14.5 q0 -14 11.5 -20.5t36.5 -13.5q22 -6 46.5 -16t45.5 -26t34.5 -40t13.5 -58q0 -41 -14.5 -75t-43 -58t-70 -36t-96.5 -10q-79 3 -123.5 34t-67.5 88zM232 581l134 216l119 -61l-169 -203z" />
<glyph unicode="&#x15c;" horiz-adv-x="539" d="M343 540q-23 0 -39.5 -13t-16.5 -33q0 -23 24.5 -38t63.5 -33q82 -40 121.5 -83.5t39.5 -107.5q0 -59 -21.5 -103.5t-58 -74t-85.5 -44.5t-104 -15q-88 0 -148 39t-90 96l136 99q20 -38 47.5 -55.5t56.5 -17.5q35 0 55.5 17t20.5 42q0 23 -22.5 36.5t-55.5 28.5 q-70 31 -113.5 75t-43.5 109q0 55 19 99t52 74.5t78.5 46.5t98.5 16q72 0 122.5 -26.5t82.5 -74.5l-125 -118q-20 33 -45.5 46t-49.5 13zM393 803l-151 -86l-47 64l163 141h110l110 -142l-66 -64z" />
<glyph unicode="&#x15d;" horiz-adv-x="458" d="M150 182q17 -32 34.5 -42t43.5 -10q15 0 28 8t13 22q0 11 -11.5 17t-29.5 11q-23 7 -48 16.5t-45.5 25.5t-34 40.5t-13.5 61.5q0 43 18 76t46.5 55.5t64.5 34t72 11.5q66 0 114.5 -26t70.5 -77l-114 -78q-15 28 -35 35.5t-36 7.5q-20 0 -28 -9.5t-8 -14.5 q0 -14 11.5 -20.5t36.5 -13.5q22 -6 46.5 -16t45.5 -26t34.5 -40t13.5 -58q0 -41 -14.5 -75t-43 -58t-70 -36t-96.5 -10q-79 3 -123.5 34t-67.5 88zM332 628l-148 -104l-58 60l170 165h111l108 -165l-74 -61z" />
<glyph unicode="&#x15e;" horiz-adv-x="539" d="M343 540q-23 0 -39.5 -13t-16.5 -33q0 -23 24.5 -38t63.5 -33q82 -40 121.5 -83.5t39.5 -107.5q0 -58 -21 -102t-56.5 -73.5t-83.5 -45t-102 -16.5q-9 -15 -19 -34q27 -2 45 -9.5t28 -18t14 -23.5t4 -26v-4q-1 -13 -8.5 -33t-24.5 -38.5t-46 -32t-73 -13.5q-16 0 -44 3.5 t-58 17.5l34 71q20 -8 36 -11t30 -3q24 0 37 10.5t13 26.5q0 18 -25 18q-7 0 -12 -1l-36 30q10 19 19.5 37.5t20.5 37.5q-65 12 -109.5 47t-69.5 83l136 99q20 -38 47.5 -55.5t56.5 -17.5q35 0 55.5 17t20.5 42q0 23 -22.5 36.5t-55.5 28.5q-70 31 -113.5 75t-43.5 109 q0 55 19 99t52 74.5t78.5 46.5t98.5 16q72 0 122.5 -26.5t82.5 -74.5l-125 -118q-20 33 -45.5 46t-49.5 13z" />
<glyph unicode="&#x15f;" horiz-adv-x="458" d="M150 182q17 -32 34.5 -42t43.5 -10q15 0 28 8t13 22q0 11 -11.5 17t-29.5 11q-23 7 -48 16.5t-45.5 25.5t-34 40.5t-13.5 61.5q0 43 18 76t46.5 55.5t64.5 34t72 11.5q66 0 114.5 -26t70.5 -77l-114 -78q-15 28 -35 35.5t-36 7.5q-20 0 -28 -9.5t-8 -14.5 q0 -14 11.5 -20.5t36.5 -13.5q22 -6 46.5 -16t45.5 -26t34.5 -40t13.5 -58q0 -39 -13 -71.5t-39 -56t-64 -37t-87 -14.5q-5 -8 -9.5 -16.5t-9.5 -16.5q27 -2 45 -9.5t28 -18t14 -23.5t4 -26v-4q-1 -13 -8.5 -33t-24.5 -38.5t-46 -32t-73 -13.5q-16 0 -44 3.5t-58 17.5l34 71 q20 -8 36 -11t30 -3q24 0 37 10.5t13 26.5q0 18 -25 18q-7 0 -12 -1l-36 30l40 74q-58 9 -93 38.5t-54 78.5z" />
<glyph unicode="&#x160;" horiz-adv-x="539" d="M343 540q-23 0 -39.5 -13t-16.5 -33q0 -23 24.5 -38t63.5 -33q82 -40 121.5 -83.5t39.5 -107.5q0 -59 -21.5 -103.5t-58 -74t-85.5 -44.5t-104 -15q-88 0 -148 39t-90 96l136 99q20 -38 47.5 -55.5t56.5 -17.5q35 0 55.5 17t20.5 42q0 23 -22.5 36.5t-55.5 28.5 q-70 31 -113.5 75t-43.5 109q0 55 19 99t52 74.5t78.5 46.5t98.5 16q72 0 122.5 -26.5t82.5 -74.5l-125 -118q-20 33 -45.5 46t-49.5 13zM551 930l47 -64l-162 -141h-110l-111 140l65 65l119 -86z" />
<glyph unicode="&#x161;" horiz-adv-x="458" d="M150 182q17 -32 34.5 -42t43.5 -10q15 0 28 8t13 22q0 11 -11.5 17t-29.5 11q-23 7 -48 16.5t-45.5 25.5t-34 40.5t-13.5 61.5q0 43 18 76t46.5 55.5t64.5 34t72 11.5q66 0 114.5 -26t70.5 -77l-114 -78q-15 28 -35 35.5t-36 7.5q-20 0 -28 -9.5t-8 -14.5 q0 -14 11.5 -20.5t36.5 -13.5q22 -6 46.5 -16t45.5 -26t34.5 -40t13.5 -58q0 -41 -14.5 -75t-43 -58t-70 -36t-96.5 -10q-79 3 -123.5 34t-67.5 88zM481 761l62 -59l-168 -165h-111l-109 165l70 59l110 -103z" />
<glyph unicode="&#x162;" horiz-adv-x="496" d="M419 540l-99 -540h-184l99 540h-143l29 156h470l-28 -156h-144zM93 -322l49 120h-29l27 147h156l-26 -139l-85 -128h-92z" />
<glyph unicode="&#x163;" horiz-adv-x="363" d="M299 366l-31 -164q-5 -28 4.5 -38t34.5 -10h27l-28 -154h-73q-91 0 -126.5 44t-18.5 135l34 187h-50l24 131h52l26 138h174l-26 -138h74l-24 -131h-73zM34 -322l49 120h-29l27 147h156l-26 -139l-85 -128h-92z" />
<glyph unicode="&#x164;" horiz-adv-x="496" d="M419 540l-99 -540h-184l99 540h-143l29 156h470l-28 -156h-144zM534 930l47 -64l-162 -141h-110l-111 140l65 65l119 -86z" />
<glyph unicode="&#x165;" horiz-adv-x="476" d="M398 527l49 120h-29l27 147h156l-26 -139l-85 -128h-92zM299 366l-31 -164q-5 -28 4.5 -38t34.5 -10h27l-28 -154h-73q-91 0 -126.5 44t-18.5 135l34 187h-50l24 131h52l26 138h174l-26 -138h74l-24 -131h-73z" />
<glyph unicode="&#x166;" horiz-adv-x="496" d="M419 540l-24 -132h115l-22 -120h-115l-53 -288h-184l53 288h-107l22 120h107l24 132h-143l29 156h470l-28 -156h-144z" />
<glyph unicode="&#x167;" horiz-adv-x="363" d="M299 366l-10 -49h59l-20 -106h-59l-1 -9q-5 -28 4.5 -38t34.5 -10h27l-28 -154h-73q-91 0 -126.5 44t-18.5 135l6 32h-42l20 106h41l9 49h-50l24 131h52l26 138h174l-26 -138h74l-24 -131h-73z" />
<glyph unicode="&#x168;" horiz-adv-x="577" d="M636 696q-20 -106 -39 -211t-39 -211q-4 -23 -9 -44t-11 -43q-24 -87 -85 -139.5t-167 -52.5q-54 0 -94.5 14t-67 39t-39.5 59.5t-13 76.5v12q1 42 9 87l76 413h182l-88 -475q-1 -5 -1.5 -9.5t-0.5 -9.5q0 -25 13 -37.5t36 -12.5q28 0 45 20.5t22 50.5q2 11 4 21.5 t4 21.5l79 430h184zM474 735q-16 0 -30 6t-27.5 13.5t-26.5 13.5t-27 6q-13 0 -32 -8.5t-41 -34.5l-69 44q35 65 72.5 92t74.5 27q19 0 35 -6.5t29.5 -14t25.5 -13.5t25 -6q15 0 30 9t35 32l68 -42q-17 -34 -35 -56.5t-36.5 -36t-36.5 -19.5t-34 -6z" />
<glyph unicode="&#x169;" horiz-adv-x="513" d="M286 61q-17 -22 -36 -36t-37 -21.5t-34 -10t-26 -2.5q-39 0 -63 11t-36 31.5t-13 49.5t5 65l65 349h177l-54 -288q-4 -24 1.5 -38t26.5 -14q11 0 20 6.5t15.5 16t11 21t6.5 21.5l51 275h177l-92 -497h-175l13 60zM406 560q-16 0 -30 6t-27.5 13.5t-26.5 13.5t-27 6 q-13 0 -32 -8.5t-41 -34.5l-69 44q35 65 72.5 92t74.5 27q19 0 35 -6.5t29.5 -14t25.5 -13.5t25 -6q15 0 30 9t35 32l68 -42q-17 -34 -35 -56.5t-36.5 -36t-36.5 -19.5t-34 -6z" />
<glyph unicode="&#x16a;" horiz-adv-x="577" d="M636 696q-20 -106 -39 -211t-39 -211q-4 -23 -9 -44t-11 -43q-24 -87 -85 -139.5t-167 -52.5q-54 0 -94.5 14t-67 39t-39.5 59.5t-13 76.5v12q1 42 9 87l76 413h182l-88 -475q-1 -5 -1.5 -9.5t-0.5 -9.5q0 -25 13 -37.5t36 -12.5q28 0 45 20.5t22 50.5q2 11 4 21.5 t4 21.5l79 430h184zM256 750l23 124h297l-23 -124h-297z" />
<glyph unicode="&#x16b;" horiz-adv-x="513" d="M286 61q-17 -22 -36 -36t-37 -21.5t-34 -10t-26 -2.5q-39 0 -63 11t-36 31.5t-13 49.5t5 65l65 349h177l-54 -288q-4 -24 1.5 -38t26.5 -14q11 0 20 6.5t15.5 16t11 21t6.5 21.5l51 275h177l-92 -497h-175l13 60zM196 567l23 124h296l-23 -124h-296z" />
<glyph unicode="&#x16c;" horiz-adv-x="577" d="M636 696q-20 -106 -39 -211t-39 -211q-4 -23 -9 -44t-11 -43q-24 -87 -85 -139.5t-167 -52.5q-54 0 -94.5 14t-67 39t-39.5 59.5t-13 76.5v12q1 42 9 87l76 413h182l-88 -475q-1 -5 -1.5 -9.5t-0.5 -9.5q0 -25 13 -37.5t36 -12.5q28 0 45 20.5t22 50.5q2 11 4 21.5 t4 21.5l79 430h184zM413 724q-48 0 -78.5 17t-47.5 43.5t-22 57t-1 57.5h108q-1 -13 0.5 -26t7.5 -23.5t16.5 -17.5t26.5 -7q17 0 30 7t22.5 17.5t16 23.5t10.5 26h111q-4 -27 -18 -57.5t-39 -57t-60.5 -43.5t-82.5 -17z" />
<glyph unicode="&#x16d;" horiz-adv-x="513" d="M286 61q-17 -22 -36 -36t-37 -21.5t-34 -10t-26 -2.5q-39 0 -63 11t-36 31.5t-13 49.5t5 65l65 349h177l-54 -288q-4 -24 1.5 -38t26.5 -14q11 0 20 6.5t15.5 16t11 21t6.5 21.5l51 275h177l-92 -497h-175l13 60zM345 536q-48 0 -78.5 17.5t-47.5 44t-22 57t-1 57.5h107 q-4 -29 8 -51t42 -22q32 0 52 23t27 50h111q-5 -27 -19 -58t-38 -57t-59.5 -43.5t-81.5 -17.5z" />
<glyph unicode="&#x16e;" horiz-adv-x="577" d="M636 696q-20 -106 -39 -211t-39 -211q-4 -23 -9 -44t-11 -43q-24 -87 -85 -139.5t-167 -52.5q-54 0 -94.5 14t-67 39t-39.5 59.5t-13 76.5v12q1 42 9 87l76 413h182l-88 -475q-1 -5 -1.5 -9.5t-0.5 -9.5q0 -25 13 -37.5t36 -12.5q28 0 45 20.5t22 50.5q2 11 4 21.5 t4 21.5l79 430h184zM438 954q47 0 78.5 -29t31.5 -74q0 -32 -12.5 -58t-32.5 -44t-46 -27.5t-53 -9.5q-48 0 -79.5 29t-31.5 74q0 30 12 55.5t32 44t46 29t55 10.5zM428 870q-19 0 -33 -13.5t-14 -30.5q0 -14 9 -23t24 -9q18 0 32.5 14t14.5 31q0 13 -9 22t-24 9z" />
<glyph unicode="&#x16f;" horiz-adv-x="513" d="M286 61q-17 -22 -36 -36t-37 -21.5t-34 -10t-26 -2.5q-39 0 -63 11t-36 31.5t-13 49.5t5 65l65 349h177l-54 -288q-4 -24 1.5 -38t26.5 -14q11 0 20 6.5t15.5 16t11 21t6.5 21.5l51 275h177l-92 -497h-175l13 60zM376 777q47 0 78.5 -29t31.5 -74q0 -32 -12.5 -58 t-32.5 -44t-46 -27.5t-53 -9.5q-48 0 -79.5 29t-31.5 74q0 30 12 55.5t32 44t46 29t55 10.5zM366 693q-19 0 -33 -13.5t-14 -30.5q0 -14 9 -23t24 -9q18 0 32.5 14t14.5 31q0 13 -9 22t-24 9z" />
<glyph unicode="&#x170;" horiz-adv-x="577" d="M636 696q-20 -106 -39 -211t-39 -211q-4 -23 -9 -44t-11 -43q-24 -87 -85 -139.5t-167 -52.5q-54 0 -94.5 14t-67 39t-39.5 59.5t-13 76.5v12q1 42 9 87l76 413h182l-88 -475q-1 -5 -1.5 -9.5t-0.5 -9.5q0 -25 13 -37.5t36 -12.5q28 0 45 20.5t22 50.5q2 11 4 21.5 t4 21.5l79 430h184zM430 792l202 158l72 -108l-222 -127zM207 795l200 158l72 -108l-220 -127z" />
<glyph unicode="&#x171;" horiz-adv-x="513" d="M286 61q-17 -22 -36 -36t-37 -21.5t-34 -10t-26 -2.5q-39 0 -63 11t-36 31.5t-13 49.5t5 65l65 349h177l-54 -288q-4 -24 1.5 -38t26.5 -14q11 0 20 6.5t15.5 16t11 21t6.5 21.5l51 275h177l-92 -497h-175l13 60zM357 553l134 214l117 -63l-168 -197zM183 572l135 213 l117 -62l-168 -198z" />
<glyph unicode="&#x172;" horiz-adv-x="577" d="M636 696q-20 -106 -39 -211t-39 -211q-4 -23 -9 -44t-11 -43q-23 -85 -81 -136.5t-159 -55.5q-22 -32 -29 -55.5t-7 -31.5q0 -17 12 -23.5t29 -6.5q25 0 55 9l9 -76q-28 -14 -60.5 -21t-58.5 -7q-47 0 -74 22t-27 61q0 18 13.5 56t55.5 80q-73 17 -108.5 65t-35.5 117v12 q1 42 9 87l76 413h182l-88 -475q-1 -5 -1.5 -9.5t-0.5 -9.5q0 -25 13 -37.5t36 -12.5q28 0 45 20.5t22 50.5q2 11 4 21.5t4 21.5l79 430h184z" />
<glyph unicode="&#x173;" horiz-adv-x="513" d="M286 61q-17 -22 -36 -36t-37 -21.5t-34 -10t-26 -2.5q-39 0 -63 11t-36 31.5t-13 49.5t5 65l65 349h177l-54 -288q-4 -24 1.5 -38t26.5 -14q11 0 20 6.5t15.5 16t11 21t6.5 21.5l51 275h177l-92 -497h-89q-23 -32 -30.5 -56.5t-7.5 -33.5q0 -17 12 -23.5t29 -6.5 q25 0 55 9l9 -76q-28 -14 -60.5 -21t-58.5 -7q-47 0 -74 22t-27 61q0 9 3 23.5t10.5 32t20.5 38t33 41.5l13 57z" />
<glyph unicode="&#x174;" horiz-adv-x="790" d="M580 310l49 163l67 223h193l-255 -696h-185l-4 167l-1 182l-5 -1q-4 -12 -13.5 -36.5t-19.5 -51t-19.5 -50t-13.5 -34.5l-72 -176h-184l1 696h179l-12 -211q-1 -11 -2.5 -35t-3.5 -52t-4 -53.5t-3 -37.5h4l67 178l80 211h152l2 -215v-35v-51v-51t-1 -34h4zM528 807 l-151 -86l-47 64l163 141h110l110 -142l-66 -64z" />
<glyph unicode="&#x175;" horiz-adv-x="758" d="M401 236q-15 -40 -30.5 -78.5t-31.5 -73.5q-10 -22 -20 -43t-20 -41h-184l-39 496h189v-150q0 -26 -0.5 -58t-4.5 -61h4q28 61 52 123.5t50 145.5h153v-136q0 -24 -0.5 -62t-3.5 -71h5q29 63 52.5 127t45.5 142h198q-26 -72 -53.5 -136t-56.5 -124t-61 -118t-68 -118 h-177q1 28 1 55.5v55.5q0 37 0.5 66.5t2.5 58.5h-3zM471 628l-148 -104l-58 60l170 165h111l108 -165l-74 -61z" />
<glyph unicode="&#x176;" horiz-adv-x="557" d="M332 433l58 125l66 138h199l-255 -425l-51 -271h-183l49 264l-97 432h181l17 -131q4 -33 7.5 -61.5t4.5 -70.5h4zM411 807l-151 -86l-47 64l163 141h110l110 -142l-66 -64z" />
<glyph unicode="&#x177;" horiz-adv-x="507" d="M560 497q-27 -74 -55.5 -147.5t-59.5 -143.5t-65.5 -133.5t-73.5 -117.5q-24 -33 -54.5 -64.5t-69.5 -56t-87 -39t-106 -14.5l-9 149q56 6 91 23.5t63 54.5l-63 489h183l6 -138q1 -18 1 -42.5t-1 -50.5t-2.5 -50.5t-3.5 -41.5h5q14 28 29 65t29.5 79t28.5 87.5t28 91.5 h186zM345 628l-148 -104l-58 60l170 165h111l108 -165l-74 -61z" />
<glyph unicode="&#x178;" horiz-adv-x="557" d="M332 433l58 125l66 138h199l-255 -425l-51 -271h-183l49 264l-97 432h181l17 -131q4 -33 7.5 -61.5t4.5 -70.5h4zM428 737l25 133h143l-25 -133h-143zM218 737l25 133h143l-25 -133h-143z" />
<glyph unicode="&#x179;" horiz-adv-x="496" d="M9 0l26 143l311 399h-227l28 154h427l-25 -140l-311 -399h237l-29 -157h-437zM287 805l219 132l59 -121l-234 -95z" />
<glyph unicode="&#x17a;" horiz-adv-x="443" d="M9 0l23 129l224 232h-168l25 136h372l-23 -122l-226 -234h183l-26 -141h-384zM238 581l134 216l119 -61l-169 -203z" />
<glyph unicode="&#x17b;" horiz-adv-x="496" d="M9 0l26 143l311 399h-227l28 154h427l-25 -140l-311 -399h237l-29 -157h-437zM294 739l26 139h170l-26 -139h-170z" />
<glyph unicode="&#x17c;" horiz-adv-x="443" d="M9 0l23 129l224 232h-168l25 136h372l-23 -122l-226 -234h183l-26 -141h-384zM234 569l26 139h170l-26 -139h-170z" />
<glyph unicode="&#x17d;" horiz-adv-x="496" d="M9 0l26 143l311 399h-227l28 154h427l-25 -140l-311 -399h237l-29 -157h-437zM530 930l47 -64l-162 -141h-110l-111 140l65 65l119 -86z" />
<glyph unicode="&#x17e;" horiz-adv-x="443" d="M9 0l23 129l224 232h-168l25 136h372l-23 -122l-226 -234h183l-26 -141h-384zM469 761l62 -59l-168 -165h-111l-109 165l70 59l110 -103z" />
<glyph unicode="&#x192;" horiz-adv-x="536" d="M113 439h83q7 39 17.5 84.5t33 85t63 66t108.5 26.5q26 0 57 -5t59 -16l-33 -141q-15 5 -29.5 7t-22.5 2q-16 0 -27 -4.5t-19.5 -17t-14.5 -33.5t-12 -54h77v-132h-95q-6 -48 -11.5 -96t-14 -92.5t-22.5 -83t-37 -67t-57.5 -44.5t-84.5 -16q-25 0 -59 5t-72 22l40 132 q16 -2 24.5 -4t20.5 -2q27 0 42 17t23 64q1 6 4.5 30t7.5 52l7.5 52.5t4.5 30.5h-61v132z" />
<glyph unicode="&#x1a0;" horiz-adv-x="603" d="M367 704q51 0 91.5 -13.5t69.5 -38.5q15 2 25.5 7.5t18.5 17t14 29.5t11 45l10 55h121l-18 -94q-12 -68 -44 -107t-81 -54q9 -47 -1 -101q-8 -44 -14.5 -88.5t-16.5 -87.5q-5 -22 -8 -36.5t-5 -25t-4.5 -20t-5.5 -21.5q-22 -85 -79 -131t-166 -46q-75 0 -129 28t-74 74 q-14 33 -14.5 76t10.5 103q11 64 19 105.5t14 68.5t10.5 42.5t7.5 27.5q23 85 80.5 135t157.5 50zM361 545q-20 0 -34.5 -12t-21.5 -32q-5 -17 -10.5 -38t-8.5 -38q-8 -42 -15 -79.5t-14 -83.5q-3 -18 -5.5 -35t-3.5 -34q0 -21 14.5 -31t34.5 -10q27 0 41 18.5t21 50.5 q12 57 20.5 107.5t18.5 104.5q3 18 5.5 35t3.5 34q-1 20 -13.5 31.5t-32.5 11.5z" />
<glyph unicode="&#x1a1;" horiz-adv-x="569" d="M309 509q52 0 88.5 -13.5t59.5 -37.5q23 6 35 27t22 69l10 55h121l-18 -94q-12 -69 -44.5 -108.5t-83.5 -53.5q0 -5 0.5 -10.5t0.5 -10.5q0 -26 -3.5 -55.5t-10.5 -59t-16 -56t-20 -45.5q-17 -35 -38.5 -59t-47 -38t-55.5 -20t-63 -6q-105 0 -150.5 47t-45.5 127 q0 20 2.5 41t5.5 41q9 51 25 95.5t43 78.5q28 37 71 61.5t112 24.5zM295 360q-15 0 -27 -14q-19 -23 -34 -93q-9 -42 -9 -70q0 -14 4.5 -27.5t21.5 -13.5q15 0 25 8.5t17.5 22.5t12 32t8.5 37q5 23 7.5 43.5t2.5 37.5q0 16 -5.5 26.5t-23.5 10.5z" />
<glyph unicode="&#x1af;" horiz-adv-x="684" d="M636 696q-2 -11 -4 -21t-4 -21q14 2 24 8t17.5 17t13 29t10.5 44l10 55h121l-18 -94q-16 -90 -66 -130t-128 -40h-5q-13 -68 -25 -134.5t-24 -134.5q-4 -23 -9 -44t-11 -43q-24 -87 -85 -139.5t-167 -52.5q-54 0 -94.5 14t-67 39t-39.5 59.5t-13 76.5v12q1 42 9 87 l76 413h182l-88 -475q-1 -5 -1.5 -9.5t-0.5 -9.5q0 -25 13 -37.5t36 -12.5q28 0 45 20.5t22 50.5q2 11 4 21.5t4 21.5l79 430h184z" />
<glyph unicode="&#x1b0;" horiz-adv-x="636" d="M286 61q-17 -22 -36 -36t-37 -21.5t-34 -10t-26 -2.5q-39 0 -63 11t-36 31.5t-13 49.5t5 65l65 349h177l-54 -288q-4 -24 1.5 -38t26.5 -14q11 0 20 6.5t15.5 16t11 21t6.5 21.5l51 275h177l-8 -42q23 7 35 28t22 69l10 55h121l-18 -94q-16 -89 -65 -129t-126 -41 l-63 -343h-175l13 60z" />
<glyph unicode="&#x1fc;" horiz-adv-x="873" d="M398 0l18 129h-173l-70 -129h-196l396 696h530l-21 -156h-229l-15 -107h192l-22 -156h-192l-17 -120h232l-22 -157h-411zM327 278h110l36 256h-6zM541 805l219 132l59 -121l-234 -95z" />
<glyph unicode="&#x1fd;" horiz-adv-x="731" d="M710 102q-32 -59 -87 -85t-129 -26q-48 0 -86 14.5t-63 43.5q-40 -33 -82.5 -46t-96.5 -13q-73 0 -108 43t-28 112q7 70 63 113.5t151 43.5h68l4 20q3 15 -4 29.5t-35 14.5q-17 0 -37 -9t-41 -35l-104 89q39 57 95 77.5t124 20.5q35 0 67.5 -9t51.5 -26q51 34 127 34 q48 0 82.5 -11t57.5 -29.5t34 -43.5t11 -52q0 -51 -20 -85.5t-54 -55.5t-78.5 -30t-93.5 -9q-5 0 -10.5 0.5t-11.5 0.5q-6 -33 4 -46.5t39 -13.5q16 0 35 9.5t37 32.5zM294 202h-36q-24 -1 -34.5 -15t-10.5 -34q1 -9 7 -15t20 -6q17 0 31 10.5t18 30.5zM552 368 q-19 0 -35 -15.5t-22 -50.5q45 0 64.5 10t19.5 29q0 11 -6 19t-21 8zM367 581l134 216l119 -61l-169 -203z" />
<glyph unicode="&#x1fe;" horiz-adv-x="568" d="M367 704q100 0 159 -50l42 54l47 -34l-51 -65q37 -64 20 -159q-8 -44 -14.5 -88.5t-16.5 -87.5q-5 -22 -8 -36.5t-5 -25t-4.5 -20t-5.5 -21.5q-22 -85 -79 -131t-166 -46q-52 0 -94.5 14t-71.5 38l-44 -56l-44 34l53 67q-2 4 -2 5q-14 33 -14.5 76t10.5 103 q11 64 19 105.5t14 68.5t10.5 42.5t7.5 27.5q23 85 80.5 135t157.5 50zM309 805l219 132l59 -121l-234 -95zM359 221q9 45 16 85.5t15 82.5l-141 -178q0 -5 -0.5 -9t-0.5 -9q0 -21 14.5 -31t34.5 -10q27 0 41 18.5t21 50.5zM361 545q-20 0 -34.5 -12t-21.5 -32 q-5 -17 -10.5 -38t-8.5 -38l-19 -100l140 178q-2 19 -14.5 30.5t-31.5 11.5z" />
<glyph unicode="&#x1ff;" horiz-adv-x="498" d="M309 509q46 0 80 -10.5t57 -29.5l39 41l35 -33l-44 -45q24 -42 24 -100q0 -26 -3.5 -55.5t-10.5 -59t-16 -56t-20 -45.5q-17 -35 -38.5 -59t-47 -38t-55.5 -20t-63 -6q-51 0 -86.5 11t-59.5 32l-22 -24t-22 -23l-32 32l47 50q-21 40 -21 96q0 20 2.5 41t5.5 41 q9 51 25 95.5t43 78.5q28 37 71 61.5t112 24.5zM249 581l134 216l119 -61l-169 -203zM318 265q-23 -24 -46 -48.5t-46 -49.5q2 -11 7 -18t18 -7q15 0 25 8.5t17.5 22.5t12 32t8.5 37zM295 360q-15 0 -27 -14q-19 -23 -34 -93l-3 -12l92 97q-5 22 -28 22z" />
<glyph unicode="&#x218;" horiz-adv-x="539" d="M343 540q-23 0 -39.5 -13t-16.5 -33q0 -23 24.5 -38t63.5 -33q82 -40 121.5 -83.5t39.5 -107.5q0 -59 -21.5 -103.5t-58 -74t-85.5 -44.5t-104 -15q-88 0 -148 39t-90 96l136 99q20 -38 47.5 -55.5t56.5 -17.5q35 0 55.5 17t20.5 42q0 23 -22.5 36.5t-55.5 28.5 q-70 31 -113.5 75t-43.5 109q0 55 19 99t52 74.5t78.5 46.5t98.5 16q72 0 122.5 -26.5t82.5 -74.5l-125 -118q-20 33 -45.5 46t-49.5 13zM118 -322l49 120h-29l27 147h156l-26 -139l-85 -128h-92z" />
<glyph unicode="&#x219;" horiz-adv-x="458" d="M150 182q17 -32 34.5 -42t43.5 -10q15 0 28 8t13 22q0 11 -11.5 17t-29.5 11q-23 7 -48 16.5t-45.5 25.5t-34 40.5t-13.5 61.5q0 43 18 76t46.5 55.5t64.5 34t72 11.5q66 0 114.5 -26t70.5 -77l-114 -78q-15 28 -35 35.5t-36 7.5q-20 0 -28 -9.5t-8 -14.5 q0 -14 11.5 -20.5t36.5 -13.5q22 -6 46.5 -16t45.5 -26t34.5 -40t13.5 -58q0 -41 -14.5 -75t-43 -58t-70 -36t-96.5 -10q-79 3 -123.5 34t-67.5 88zM79 -322l49 120h-29l27 147h156l-26 -139l-85 -128h-92z" />
<glyph unicode="&#x259;" horiz-adv-x="484" d="M240 131q19 0 35 15.5t22 50.5q-45 0 -64.5 -10t-19.5 -29q0 -11 6 -19t21 -8zM82 397q35 54 85.5 83.5t124.5 29.5q41 0 76 -11t61 -32.5t40.5 -53.5t14.5 -73q0 -58 -11.5 -120t-40 -113t-77 -83.5t-123.5 -32.5q-48 0 -82.5 11t-57.5 29.5t-34 43.5t-11 52 q0 51 20 85.5t54 55.5t78.5 30t93.5 9q5 0 10.5 -0.5t11.5 -0.5q6 33 -4 46.5t-39 13.5q-16 0 -35 -9.5t-37 -32.5z" />
<glyph unicode="&#x2b9;" horiz-adv-x="267" d="M413 699l-209 -321l-103 53l167 322z" />
<glyph unicode="&#x2c6;" horiz-adv-x="455" d="M327 628l-148 -104l-58 60l170 165h111l108 -165l-74 -61z" />
<glyph unicode="&#x2c7;" horiz-adv-x="458" d="M469 761l62 -59l-168 -165h-111l-109 165l70 59l110 -103z" />
<glyph unicode="&#x2d8;" horiz-adv-x="506" d="M349 536q-48 0 -78.5 17.5t-47.5 44t-22 57t-1 57.5h107q-4 -29 8 -51t42 -22q32 0 52 23t27 50h111q-5 -27 -19 -58t-38 -57t-59.5 -43.5t-81.5 -17.5z" />
<glyph unicode="&#x2d9;" horiz-adv-x="363" d="M180 569l26 139h170l-26 -139h-170z" />
<glyph unicode="&#x2da;" horiz-adv-x="451" d="M351 777q47 0 78.5 -29t31.5 -74q0 -32 -12.5 -58t-32.5 -44t-46 -27.5t-53 -9.5q-48 0 -79.5 29t-31.5 74q0 30 12 55.5t32 44t46 29t55 10.5zM341 693q-19 0 -33 -13.5t-14 -30.5q0 -14 9 -23t24 -9q18 0 32.5 14t14.5 31q0 13 -9 22t-24 9z" />
<glyph unicode="&#x2db;" horiz-adv-x="335" d="M248 17q-32 -39 -42.5 -69t-10.5 -40q0 -17 12 -23.5t29 -6.5q25 0 55 9l9 -76q-28 -14 -60.5 -21t-58.5 -7q-47 0 -74 22t-27 61q0 10 3.5 26.5t13.5 37t27 44t44 46.5h79z" />
<glyph unicode="&#x2dc;" horiz-adv-x="458" d="M391 560q-16 0 -30 6t-27.5 13.5t-26.5 13.5t-27 6q-13 0 -32 -8.5t-41 -34.5l-69 44q35 65 72.5 92t74.5 27q19 0 35 -6.5t29.5 -14t25.5 -13.5t25 -6q15 0 30 9t35 32l68 -42q-17 -34 -35 -56.5t-36.5 -36t-36.5 -19.5t-34 -6z" />
<glyph unicode="&#x2dd;" horiz-adv-x="523" d="M379 553l134 214l117 -63l-168 -197zM205 572l135 213l117 -62l-168 -198z" />
<glyph unicode="&#x384;" horiz-adv-x="440" d="M222 581l134 216l119 -61l-169 -203z" />
<glyph unicode="&#x385;" horiz-adv-x="565" d="M468 555l24 133h144l-25 -133h-143zM125 555l25 133h142l-24 -133h-143zM284 567l108 223l127 -46l-147 -213z" />
<glyph unicode="&#x386;" horiz-adv-x="604" d="M383 123h-156l-48 -123h-191l319 696h206l62 -696h-187zM369 482l-50 -131l-30 -78h87l-1 81v128h-6zM-29 546l134 216l119 -61l-169 -203z" />
<glyph unicode="&#x387;" horiz-adv-x="302" d="M90 277l31 172h185l-31 -172h-185z" />
<glyph unicode="&#x388;" horiz-adv-x="519" d="M29 0l128 696h426l-29 -156h-241l-20 -107h212l-29 -156h-212l-22 -120h252l-28 -157h-437zM-127 546l134 216l119 -61l-169 -203z" />
<glyph unicode="&#x389;" horiz-adv-x="578" d="M327 0l50 272h-114l-50 -272h-184l128 696h184l-48 -264h114l48 264h183l-128 -696h-183zM-122 546l134 216l119 -61l-169 -203z" />
<glyph unicode="&#x38a;" horiz-adv-x="302" d="M39 0l128 696h184l-128 -696h-184zM-113 546l134 216l119 -61l-169 -203z" />
<glyph unicode="&#x38c;" horiz-adv-x="568" d="M361 545q-20 0 -34.5 -12t-21.5 -32q-5 -17 -10.5 -38t-8.5 -38q-8 -42 -15 -79.5t-14 -83.5q-3 -18 -5.5 -35t-3.5 -34q0 -21 14.5 -31t34.5 -10q27 0 41 18.5t21 50.5q12 57 20.5 107.5t18.5 104.5q3 18 5.5 35t3.5 34q-1 20 -13.5 31.5t-32.5 11.5zM367 704 q60 0 105.5 -18t73.5 -51.5t38 -80.5t0 -104q-8 -44 -14.5 -88.5t-16.5 -87.5q-5 -22 -8 -36.5t-5 -25t-4.5 -20t-5.5 -21.5q-22 -85 -79 -131t-166 -46q-75 0 -129 28t-74 74q-14 33 -14.5 76t10.5 103q11 64 19 105.5t14 68.5t10.5 42.5t7.5 27.5q23 85 80.5 135t157.5 50 zM-93 546l134 216l119 -61l-169 -203z" />
<glyph unicode="&#x38e;" horiz-adv-x="557" d="M332 433l58 125l66 138h199l-255 -425l-51 -271h-183l49 264l-97 432h181l17 -131q4 -33 7.5 -61.5t4.5 -70.5h4zM-152 546l134 216l119 -61l-169 -203z" />
<glyph unicode="&#x38f;" horiz-adv-x="588" d="M385 703q51 0 90.5 -14t67.5 -39t42.5 -60t14.5 -77q0 -12 -2 -28t-4 -29l-13 -78t-14 -78q-5 -27 -12 -54q-8 -29 -21.5 -53t-37.5 -40h55q-7 -38 -13.5 -76.5t-14.5 -76.5h-233q7 41 14.5 81t14.5 81q11 5 19 13.5t13 19.5q21 42 30 92l29 159q2 11 3.5 21.5t1.5 21.5 q0 23 -10 39.5t-36 16.5q-23 0 -36.5 -12.5t-21.5 -34.5q-10 -26 -14 -52q-8 -46 -16.5 -91.5t-17.5 -92.5q-4 -23 -6 -48q0 -39 28 -52l-30 -162h-230q7 38 13.5 76.5t14.5 76.5h59q-15 13 -21.5 33.5t-6.5 45.5q0 14 2.5 30t4.5 32l23 134q9 56 25 103q26 83 89.5 127.5 t156.5 44.5zM-72 546l134 216l119 -61l-169 -203z" />
<glyph unicode="&#x390;" horiz-adv-x="306" d="M250 -5l-57 -1q-39 -1 -65.5 5.5t-42 19.5t-22.5 32t-7 43q0 12 1.5 25t3.5 27l64 350h176l-59 -314q-1 -5 -1.5 -9.5t-0.5 -8.5q0 -14 8.5 -18t28.5 -5zM147 567l108 223l127 -46l-147 -213zM331 555l24 133h144l-25 -133h-143zM-12 555l25 133h142l-24 -133h-143z" />
<glyph unicode="&#x391;" horiz-adv-x="604" d="M383 123h-156l-48 -123h-191l319 696h206l62 -696h-187zM369 482l-50 -131l-30 -78h87l-1 81v128h-6z" />
<glyph unicode="&#x392;" horiz-adv-x="570" d="M481 361q0 -1 -0.5 -2t-0.5 -2q41 -16 55.5 -48.5t14.5 -68.5q0 -70 -24 -116t-63.5 -73.5t-91.5 -39t-109 -11.5h-233l128 696h253q94 0 139 -41.5t45 -119.5q-1 -20 -6.5 -45.5t-18 -50t-34 -46t-54.5 -32.5zM264 288q-6 -35 -12 -68.5t-13 -68.5h42q37 0 60 25.5 t23 62.5q0 49 -52 49h-48zM312 545l-21 -113h39q31 0 52.5 16t21.5 50q0 47 -50 47h-42z" />
<glyph unicode="&#x393;" horiz-adv-x="502" d="M313 542l-100 -542h-184l128 696h436l-28 -154h-252z" />
<glyph unicode="&#x394;" horiz-adv-x="604" d="M-12 0l319 696h206l61 -696h-586zM372 486l-70 -182l-57 -148h134v151l-2 179h-5z" />
<glyph unicode="&#x395;" horiz-adv-x="519" d="M29 0l128 696h426l-29 -156h-241l-20 -107h212l-29 -156h-212l-22 -120h252l-28 -157h-437z" />
<glyph unicode="&#x396;" horiz-adv-x="496" d="M9 0l26 143l311 399h-227l28 154h427l-25 -140l-311 -399h237l-29 -157h-437z" />
<glyph unicode="&#x397;" horiz-adv-x="578" d="M327 0l50 272h-114l-50 -272h-184l128 696h184l-48 -264h114l48 264h183l-128 -696h-183z" />
<glyph unicode="&#x398;" horiz-adv-x="568" d="M367 704q60 0 105.5 -18t73.5 -51.5t38 -80.5t0 -104q-8 -44 -14.5 -88.5t-16.5 -87.5q-5 -22 -8 -36.5t-5 -25t-4.5 -20t-5.5 -21.5q-22 -85 -79 -131t-166 -46q-75 0 -129 28t-74 74q-14 33 -14.5 76t10.5 103q11 64 19 105.5t14 68.5t10.5 42.5t7.5 27.5 q23 85 80.5 135t157.5 50zM371 281h-111l-3 -19q-3 -18 -5.5 -35t-3.5 -34q0 -21 14.5 -31t34.5 -10q27 0 41 18.5t21 50.5zM361 545q-20 0 -34.5 -12t-21.5 -32q-5 -17 -10.5 -38t-8.5 -38q-1 -2 -1 -6h110l3 14q3 18 5.5 35t3.5 34q-1 20 -13.5 31.5t-32.5 11.5z" />
<glyph unicode="&#x399;" horiz-adv-x="302" d="M39 0l128 696h184l-128 -696h-184z" />
<glyph unicode="&#x39a;" horiz-adv-x="602" d="M446 402l135 -402h-201l-71 243l-65 -72l-31 -171h-184l128 696h184l-40 -215h4l183 215h216z" />
<glyph unicode="&#x39b;" horiz-adv-x="604" d="M381 309l-4 164h-6l-65 -171l-123 -302h-195l319 696h206l62 -696h-184z" />
<glyph unicode="&#x39c;" horiz-adv-x="726" d="M409 364l91 159l99 173h187l-128 -696h-178l54 293h-4l-56 -103l-40 -78h-140l-12 80l-17 104h-3l-55 -296h-178l128 696h178l34 -164l34 -168h6z" />
<glyph unicode="&#x39d;" horiz-adv-x="607" d="M430 378l58 318h178l-128 -696h-160l-58 176l-47 148h-5l-59 -324h-180l128 696h161l59 -165l48 -153h5z" />
<glyph unicode="&#x39e;" horiz-adv-x="516" d="M12 0l28 159h453l-29 -159h-452zM115 538l29 158h444l-29 -158h-444zM106 277l28 155h366l-29 -155h-365z" />
<glyph unicode="&#x39f;" horiz-adv-x="568" d="M361 545q-20 0 -34.5 -12t-21.5 -32q-5 -17 -10.5 -38t-8.5 -38q-8 -42 -15 -79.5t-14 -83.5q-3 -18 -5.5 -35t-3.5 -34q0 -21 14.5 -31t34.5 -10q27 0 41 18.5t21 50.5q12 57 20.5 107.5t18.5 104.5q3 18 5.5 35t3.5 34q-1 20 -13.5 31.5t-32.5 11.5zM367 704 q60 0 105.5 -18t73.5 -51.5t38 -80.5t0 -104q-8 -44 -14.5 -88.5t-16.5 -87.5q-5 -22 -8 -36.5t-5 -25t-4.5 -20t-5.5 -21.5q-22 -85 -79 -131t-166 -46q-75 0 -129 28t-74 74q-14 33 -14.5 76t10.5 103q11 64 19 105.5t14 68.5t10.5 42.5t7.5 27.5q23 85 80.5 135t157.5 50 z" />
<glyph unicode="&#x3a0;" horiz-adv-x="583" d="M332 0l99 539h-119l-99 -539h-184l128 696h485l-128 -696h-182z" />
<glyph unicode="&#x3a1;" horiz-adv-x="547" d="M404 696q90 0 139.5 -41.5t49.5 -133.5q0 -61 -19 -110t-54 -83t-83.5 -52.5t-106.5 -18.5h-72q-11 -64 -23.5 -128.5t-23.5 -128.5h-182l128 696h247zM311 545l-25 -137h42q16 0 31 5.5t27 16t19 27t7 37.5q0 26 -14 38.5t-38 12.5h-49z" />
<glyph unicode="&#x3a3;" horiz-adv-x="496" d="M391 358l-151 -201h237l-28 -157h-437l26 143l162 215l-85 198l25 140h427l-28 -154h-226z" />
<glyph unicode="&#x3a4;" horiz-adv-x="496" d="M419 540l-99 -540h-184l99 540h-143l29 156h470l-28 -156h-144z" />
<glyph unicode="&#x3a5;" horiz-adv-x="557" d="M332 433l58 125l66 138h199l-255 -425l-51 -271h-183l49 264l-97 432h181l17 -131q4 -33 7.5 -61.5t4.5 -70.5h4z" />
<glyph unicode="&#x3a6;" horiz-adv-x="740" d="M272 59q-49 6 -84.5 24t-59 44.5t-34.5 60.5t-11 73q0 45 6 90.5t17 87.5q12 45 35 83t57 66.5t79.5 46.5t103.5 22l8 39h178q-2 -10 -4 -21t-4 -21q52 -5 88.5 -22t59.5 -42.5t34 -58.5t11 -71q0 -48 -8 -98.5t-22 -96.5q-13 -42 -36 -78t-57 -63.5t-78.5 -44.5 t-100.5 -20q-3 -15 -6 -29.5t-5 -29.5h-178zM354 509q-18 -2 -29 -8t-19 -16q-17 -22 -25 -57t-15 -70l-10 -56q-3 -18 -3.5 -34t3.5 -29t14 -22t27 -12zM475 205q23 2 40.5 17t26.5 46q11 37 21 88q4 18 5.5 30.5t3.5 26.5q3 19 4 35.5t-3 29.5t-13.5 21t-27.5 10z" />
<glyph unicode="&#x3a7;" horiz-adv-x="590" d="M322 203l-123 -203h-207l250 359l-112 337h190l42 -178l4 2l105 176h209q-60 -85 -119 -168.5t-119 -168.5l121 -359h-191q-11 51 -23.5 101t-23.5 101z" />
<glyph unicode="&#x3a8;" horiz-adv-x="747" d="M291 163q-99 6 -148 58.5t-49 132.5q0 24 3 49t8 51l44 242h179q-14 -75 -27.5 -149t-27.5 -149q-1 -6 -1.5 -12t-0.5 -11q0 -48 49 -54h1l69 374h182l-69 -374q24 2 38 13t22 27t12.5 35t7.5 37l49 263h181q-11 -63 -22.5 -125.5t-23.5 -125.5q-11 -57 -31 -107.5 t-54.5 -88.5t-85 -61t-122.5 -25l-30 -163h-182l29 163v0z" />
<glyph unicode="&#x3a9;" horiz-adv-x="588" d="M385 703q51 0 90.5 -14t67.5 -39t42.5 -60t14.5 -77q0 -12 -2 -28t-4 -29l-13 -78t-14 -78q-5 -27 -12 -54q-8 -29 -21.5 -53t-37.5 -40h55q-7 -38 -13.5 -76.5t-14.5 -76.5h-233q7 41 14.5 81t14.5 81q11 5 19 13.5t13 19.5q21 42 30 92l29 159q2 11 3.5 21.5t1.5 21.5 q0 23 -10 39.5t-36 16.5q-23 0 -36.5 -12.5t-21.5 -34.5q-10 -26 -14 -52q-8 -46 -16.5 -91.5t-17.5 -92.5q-4 -23 -6 -48q0 -39 28 -52l-30 -162h-230q7 38 13.5 76.5t14.5 76.5h59q-15 13 -21.5 33.5t-6.5 45.5q0 14 2.5 30t4.5 32l23 134q9 56 25 103q26 83 89.5 127.5 t156.5 44.5z" />
<glyph unicode="&#x3aa;" horiz-adv-x="302" d="M39 0l128 696h184l-128 -696h-184zM302 737l25 133h143l-25 -133h-143zM92 737l25 133h143l-25 -133h-143z" />
<glyph unicode="&#x3ab;" horiz-adv-x="557" d="M332 433l58 125l66 138h199l-255 -425l-51 -271h-183l49 264l-97 432h181l17 -131q4 -33 7.5 -61.5t4.5 -70.5h4zM429 737l25 133h143l-25 -133h-143zM219 737l25 133h143l-25 -133h-143z" />
<glyph unicode="&#x3ac;" horiz-adv-x="507" d="M267 0l6 33q-1 0 -2 1q-15 -14 -31 -22t-31 -12t-27 -5.5t-18 -1.5q-66 0 -94 31.5t-28 84.5q0 33 3.5 70t9.5 69q10 49 24.5 95.5t38 82.5t57.5 57.5t82 21.5q9 0 22 -1.5t27 -7t26.5 -14.5t20.5 -24h4q2 10 3.5 19.5t3.5 18.5h173l-92 -496h-178zM271 581l134 216 l119 -61l-169 -203zM255 142q9 0 15.5 4t11.5 10q11 12 21 44t16 68q3 14 4 27t1 26q0 16 -6 26.5t-23 10.5q-8 0 -14 -4.5t-11 -9.5q-19 -23 -33 -86q-4 -18 -7 -36t-3 -34t4 -31t24 -15z" />
<glyph unicode="&#x3ad;" horiz-adv-x="448" d="M335 325q-9 20 -25 27.5t-24 7.5q-17 0 -28.5 -9t-11.5 -27q0 -8 6.5 -16t23.5 -8h44l-21 -103h-40q-21 0 -29.5 -12.5t-8.5 -24.5q0 -20 27 -20q18 0 35 9t30 26l120 -75q-35 -56 -88 -81.5t-122 -25.5q-40 0 -74.5 7.5t-60 23t-40.5 39t-15 56.5q0 15 3.5 34t14 39.5 t29 39.5t48.5 33q-25 10 -38 31.5t-13 46.5q0 34 13.5 64t38.5 52.5t61.5 35.5t81.5 13q69 0 119.5 -32.5t64.5 -87.5zM204 581l134 216l119 -61l-169 -203z" />
<glyph unicode="&#x3ae;" horiz-adv-x="513" d="M282 446q35 35 71 48.5t57 13.5q38 0 62.5 -11t36.5 -31.5t14 -49.5t-5 -65l-88 -483h-177l77 422q5 25 -1 38.5t-27 13.5t-33.5 -19t-16.5 -39l-53 -284h-177l91 497h175l-9 -50zM248 581l134 216l119 -61l-169 -203z" />
<glyph unicode="&#x3af;" horiz-adv-x="306" d="M250 -5l-57 -1q-39 -1 -65.5 5.5t-42 19.5t-22.5 32t-7 43q0 12 1.5 25t3.5 27l64 350h176l-59 -314q-1 -5 -1.5 -9.5t-0.5 -8.5q0 -14 8.5 -18t28.5 -5zM155 581l134 216l119 -61l-169 -203z" />
<glyph unicode="&#x3b0;" horiz-adv-x="503" d="M108 497h88.5t88.5 -1l-52 -284q-2 -12 -3.5 -24.5t0 -22t8 -16t20.5 -6.5q18 0 28.5 12t15.5 29q2 3 4.5 16.5t5.5 30.5l50 266h175q-12 -67 -24.5 -134t-25.5 -134q-5 -28 -12.5 -56t-18.5 -52q-28 -69 -79 -98.5t-128 -29.5q-102 0 -149.5 42.5t-47.5 117.5q0 35 6 68 zM248 567l108 223l127 -46l-147 -213zM432 555l24 133h144l-25 -133h-143zM89 555l25 133h142l-24 -133h-143z" />
<glyph unicode="&#x3b1;" horiz-adv-x="507" d="M267 0l6 33q-1 0 -2 1q-15 -14 -31 -22t-31 -12t-27 -5.5t-18 -1.5q-66 0 -94 31.5t-28 84.5q0 33 3.5 70t9.5 69q10 49 24.5 95.5t38 82.5t57.5 57.5t82 21.5q9 0 22 -1.5t27 -7t26.5 -14.5t20.5 -24h4q2 10 3.5 19.5t3.5 18.5h173l-92 -496h-178zM255 142q9 0 15.5 4 t11.5 10q11 12 21 44t16 68q3 14 4 27t1 26q0 16 -6 26.5t-23 10.5q-8 0 -14 -4.5t-11 -9.5q-19 -23 -33 -86q-4 -18 -7 -36t-3 -34t4 -31t24 -15z" />
<glyph unicode="&#x3b2;" horiz-adv-x="512" d="M-8 -159q30 168 61 333t62 333q9 48 29 88t50.5 69t71 45.5t90.5 16.5q94 0 137.5 -43t43.5 -109q0 -49 -18 -92.5t-63 -70.5l-2 -4q33 -14 44 -43t11 -61q0 -28 -4 -60.5t-11.5 -64t-19 -60t-25.5 -47.5q-25 -42 -59.5 -61.5t-84.5 -19.5q-10 0 -23 2t-26.5 6t-26 11 t-21.5 18q-2 0 -3 -1l-35 -185h-178zM262 142q19 0 32 16.5t21.5 40t12 47.5t5.5 39q3 23 -10.5 34.5t-35.5 13.5l23 129q22 2 34 17t18 39q2 10 3.5 18t1.5 16q0 34 -26 34q-14 0 -23.5 -9t-15.5 -21.5t-9 -27t-5 -25.5q-14 -70 -26.5 -140t-25.5 -140q-2 -11 -3.5 -21 t-3.5 -20q0 -40 33 -40z" />
<glyph unicode="&#x3b3;" horiz-adv-x="502" d="M139 -12q-8 81 -16.5 155.5t-18.5 152.5q-3 28 -7.5 42t-23.5 14h-13l12 138q27 10 54 13.5t44 3.5q54 0 79 -27.5t28 -85.5q1 -22 1.5 -40t0 -36.5t-1.5 -39.5t-3 -50h3q17 38 29.5 71t23.5 62l47 134h188q-30 -71 -58 -133.5t-56 -118.5q-27 -56 -61 -118t-76 -132 q-8 -49 -17 -98l-18 -98h-175q9 48 18 95.5t17 95.5z" />
<glyph unicode="&#x3b4;" horiz-adv-x="492" d="M372 726q28 0 67 -4t85 -18q-12 -35 -22.5 -70t-22.5 -70q-29 11 -49.5 14t-35.5 3q-30 0 -48.5 -9t-18.5 -29q0 -13 16.5 -26t40.5 -28q19 -12 38 -28t34 -37.5t24 -50.5t9 -67q0 -20 -3.5 -51t-9.5 -54q-15 -58 -37.5 -98t-52.5 -64.5t-67 -35t-82 -10.5 q-57 0 -94.5 14.5t-60 38.5t-31.5 55.5t-9 64.5v13t1 13q4 44 14 84.5t27 75t44 60.5t66 42q-19 23 -28 46.5t-9 51.5q0 43 16 75.5t45 54.5t68 33t86 11zM253 141q10 0 18 4.5t13 11.5q8 10 14.5 30.5t11.5 47.5q3 17 4 30t2 21q1 20 -4 35.5t-22 27.5q-27 -14 -39 -37 t-21 -69q-4 -19 -5.5 -32.5t-2.5 -24.5q0 -17 5.5 -31t25.5 -14z" />
<glyph unicode="&#x3b5;" horiz-adv-x="430" d="M335 325q-9 20 -25 27.5t-24 7.5q-17 0 -28.5 -9t-11.5 -27q0 -8 6.5 -16t23.5 -8h44l-21 -103h-40q-21 0 -29.5 -12.5t-8.5 -24.5q0 -20 27 -20q18 0 35 9t30 26l120 -75q-35 -56 -88 -81.5t-122 -25.5q-40 0 -74.5 7.5t-60 23t-40.5 39t-15 56.5q0 15 3.5 34t14 39.5 t29 39.5t48.5 33q-25 10 -38 31.5t-13 46.5q0 34 13.5 64t38.5 52.5t61.5 35.5t81.5 13q69 0 119.5 -32.5t64.5 -87.5z" />
<glyph unicode="&#x3b6;" horiz-adv-x="441" d="M292 544h-151l28 153h395l-25 -134q-70 -42 -126.5 -87t-96.5 -88t-62 -81.5t-22 -68.5q0 -18 8 -31t21.5 -23.5t31 -20t36.5 -18.5q46 -23 71 -44.5t25 -55.5q0 -16 -9.5 -41.5t-30 -57.5t-51.5 -69t-73 -76l-91 74q37 46 53.5 72t16.5 37t-9.5 17t-30.5 16l-35 17 q-24 12 -45.5 26.5t-37 34t-24.5 45t-9 57.5q0 41 18.5 86t51.5 90t77.5 88t96.5 80z" />
<glyph unicode="&#x3b7;" horiz-adv-x="513" d="M282 446q35 35 71 48.5t57 13.5q38 0 62.5 -11t36.5 -31.5t14 -49.5t-5 -65l-88 -483h-177l77 422q5 25 -1 38.5t-27 13.5t-33.5 -19t-16.5 -39l-53 -284h-177l91 497h175l-9 -50z" />
<glyph unicode="&#x3b8;" horiz-adv-x="493" d="M350 725q93 0 135.5 -43t42.5 -115q2 -65 -25 -208q-6 -31 -12.5 -63.5t-14.5 -64t-17.5 -60.5t-19.5 -51q-17 -38 -38 -62.5t-47 -38.5t-56 -19.5t-63 -5.5q-51 0 -85.5 11.5t-55.5 33.5t-30 53t-9 70q0 22 2.5 42t4.5 43q3 25 8 56t11 62.5t12.5 61.5t12.5 54 q11 39 20.5 68.5t20.5 52.5q15 28 32.5 50.5t41.5 38.5t55.5 25t73.5 9zM243 306q-11 -58 -15.5 -86.5t-5.5 -40.5q0 -36 30 -36q21 0 33 15q5 5 7.5 12.5t6.5 18.5l14 71q2 8 5 21.5t5 24.5h-80zM342 427l7 34q6 32 9 55.5t4 32.5q0 13 -8.5 20.5t-18.5 7.5q-17 0 -26 -7 t-15 -22q-4 -11 -7.5 -25.5t-8.5 -33.5q-3 -14 -6.5 -29.5t-6.5 -32.5h77z" />
<glyph unicode="&#x3b9;" horiz-adv-x="306" d="M250 -5l-57 -1q-39 -1 -65.5 5.5t-42 19.5t-22.5 32t-7 43q0 12 1.5 25t3.5 27l64 350h176l-59 -314q-1 -5 -1.5 -9.5t-0.5 -8.5q0 -14 8.5 -18t28.5 -5z" />
<glyph unicode="&#x3ba;" horiz-adv-x="531" d="M397 301l113 -301h-192l-53 168l-48 -51l-20 -117h-175l91 497h176l-23 -126l4 -1l114 127h206z" />
<glyph unicode="&#x3bb;" horiz-adv-x="474" d="M255 222l-40 -96l-54 -126h-175q60 120 121 238.5t122 238.5l-3 70q-1 13 -4 22.5t-10.5 15t-21 8.5t-34.5 3l10 125q27 7 58 10t48 3q34 0 57 -7.5t37.5 -23t21.5 -38.5t9 -54l30 -462q1 -16 9 -21.5t31 -7.5l-13 -119q-22 -5 -45.5 -6t-37.5 -1q-59 0 -83.5 24 t-26.5 81l-2 123h-4z" />
<glyph unicode="&#x3bc;" horiz-adv-x="513" d="M111 497h177l-55 -295q-3 -20 3.5 -32.5t26.5 -12.5q21 0 33.5 17t16.5 37l53 286h177l-92 -497h-175l8 43l-3 1q-24 -22 -45 -32t-39 -14l-37 -196h-177z" />
<glyph unicode="&#x3bd;" horiz-adv-x="538" d="M275 189q26 56 56.5 135.5t59.5 172.5h195q-27 -72 -55 -136.5t-58.5 -125t-65 -118.5t-73.5 -117h-189l-63 497h188l5 -164q1 -29 -0.5 -63.5t-5.5 -80.5h6z" />
<glyph unicode="&#x3be;" horiz-adv-x="433" d="M348 726q31 0 61 -6.5t56 -20.5t45.5 -36.5t29.5 -55.5l-125 -81q-8 23 -25.5 40t-42.5 17q-17 0 -28 -8t-17.5 -20.5t-9.5 -28t-3 -29.5q0 -26 13 -39t44 -13h90l-24 -131h-84q-25 0 -44 -9t-31.5 -24t-18.5 -34t-6 -40q0 -25 13.5 -38.5t34.5 -24.5q41 -20 68 -34 t43 -26t23 -25t8 -30q0 -16 -7.5 -38t-24.5 -50t-46.5 -62t-72.5 -74l-96 72q26 32 42 56.5t16 35.5q0 16 -16.5 25.5t-33.5 17.5q-29 13 -53.5 28t-42.5 33.5t-28 43t-10 57.5q0 31 5.5 62.5t20.5 59.5t40.5 50.5t64.5 36.5v1q-33 18 -48 47t-15 61q0 54 16.5 97t47.5 73.5 t74.5 47t96.5 16.5z" />
<glyph unicode="&#x3bf;" horiz-adv-x="498" d="M309 509q51 0 87 -13t59.5 -36t34 -56t10.5 -72q0 -26 -3.5 -55.5t-10.5 -59t-16 -56t-20 -45.5q-17 -35 -38.5 -59t-47 -38t-55.5 -20t-63 -6q-105 0 -150.5 47t-45.5 127q0 20 2.5 41t5.5 41q9 51 25 95.5t43 78.5q28 37 71 61.5t112 24.5zM295 360q-15 0 -27 -14 q-19 -23 -34 -93q-9 -42 -9 -70q0 -14 4.5 -27.5t21.5 -13.5q15 0 25 8.5t17.5 22.5t12 32t8.5 37q5 23 7.5 43.5t2.5 37.5q0 16 -5.5 26.5t-23.5 10.5z" />
<glyph unicode="&#x3c0;" horiz-adv-x="515" d="M277 0l66 361h-77l-67 -361h-177l91 497h432l-91 -497h-177z" />
<glyph unicode="&#x3c1;" horiz-adv-x="507" d="M311 508q53 0 90.5 -14t61 -38.5t34 -59t10.5 -75.5q0 -29 -3.5 -60t-10.5 -61.5t-16.5 -59t-21.5 -51.5q-21 -41 -59.5 -70t-97.5 -29q-20 0 -46 6t-44 28q-1 -1 -3 -1l-41 -221h-177l78 430q4 20 9.5 44.5t13 49t17 47.5t21.5 40q13 20 30 37.5t39 30t50.5 20t65.5 7.5 zM306 360q-17 0 -29 -15q-8 -11 -17 -35.5t-16 -60.5q-9 -48 -9 -69q0 -14 6 -26t23 -12q6 0 12 3t11 6q14 10 23.5 37.5t14.5 59.5q4 21 6.5 39t2.5 32q0 20 -5.5 30.5t-22.5 10.5z" />
<glyph unicode="&#x3c2;" horiz-adv-x="447" d="M306 508q77 0 122.5 -36.5t58.5 -95.5l-147 -67q-3 29 -18 38.5t-27 9.5q-24 0 -39 -25t-25 -77q-8 -41 -4 -68t35 -46q40 -23 66.5 -39.5t41.5 -31t19.5 -30t0.5 -36.5q-6 -32 -40 -81.5t-100 -112.5l-95 73q25 31 37 51t14 32q3 14 -14 23q-52 25 -83 48.5t-45.5 51.5 t-15.5 64.5t6 87.5q8 61 25.5 110t47 84t73.5 54t106 19z" />
<glyph unicode="&#x3c3;" horiz-adv-x="516" d="M572 496q-7 -34 -13 -67t-12 -67h-73q13 -20 14.5 -47t-0.5 -50q-3 -45 -11 -77.5t-22 -62.5q-32 -71 -87 -101.5t-126 -30.5q-54 0 -90.5 12.5t-59 34.5t-32.5 53t-10 68q0 75 18 137.5t48 105.5q26 38 72.5 65t118.5 27h265zM290 347q-20 0 -30 -15q-8 -12 -15 -33 t-15 -57q-4 -20 -6 -35.5t-2 -25.5q0 -6 1 -13t4 -13t9 -10.5t15 -4.5q15 0 25 8t16.5 21.5t10.5 31t9 37.5t7.5 43.5t1.5 35.5t-8 21t-23 9z" />
<glyph unicode="&#x3c4;" horiz-adv-x="398" d="M320 361l-30 -159q-5 -28 3.5 -38t36.5 -10h32l-28 -154h-69q-91 0 -132 44t-24 135l34 182h-81l25 136h354l-25 -136h-96z" />
<glyph unicode="&#x3c5;" horiz-adv-x="503" d="M108 497h88.5t88.5 -1l-52 -284q-2 -12 -3.5 -24.5t0 -22t8 -16t20.5 -6.5q18 0 28.5 12t15.5 29q2 3 4.5 16.5t5.5 30.5l50 266h175q-12 -67 -24.5 -134t-25.5 -134q-5 -28 -12.5 -56t-18.5 -52q-28 -69 -79 -98.5t-128 -29.5q-102 0 -149.5 42.5t-47.5 117.5q0 35 6 68 z" />
<glyph unicode="&#x3c6;" horiz-adv-x="678" d="M195 -198q8 48 17 95t18 95q-44 2 -79.5 13.5t-60.5 35.5q-18 17 -26.5 41.5t-11 51.5t-0.5 55t6 52q7 46 18 86.5t32 73t53.5 55t82.5 32.5l39 -135q-8 -2 -16.5 -8t-13.5 -15q-10 -20 -16 -45t-11 -57q-3 -19 -3.5 -30t-0.5 -16q0 -16 7 -30t28 -16l67 365h161 q81 0 127 -32t58 -86q3 -14 4 -28t1 -31q1 -35 -5.5 -75.5t-20.5 -80t-34.5 -73t-46.5 -52.5q-34 -24 -74 -36t-88 -14q-9 -48 -18 -95.5t-17 -95.5h-176zM431 137q17 1 28.5 11.5t19.5 28t13 41.5t10 53q3 19 4 31t1 23q0 8 -4 15t-13 12q-2 2 -7.5 3t-10.5 1z" />
<glyph unicode="&#x3c7;" horiz-adv-x="509" d="M270 134l-77 -134h-200l185 253l-87 245h182l25 -123h2l71 123h199q-46 -62 -91.5 -122.5t-90.5 -122.5l96 -253h-182l-30 134h-2z" />
<glyph unicode="&#x3c8;" horiz-adv-x="696" d="M267 139q17 92 34 183.5t34 183.5h173q-17 -92 -34 -183.5t-34 -183.5q32 4 45.5 24.5t21.5 59.5l52 273h171l-50 -269q-21 -113 -87.5 -174t-172.5 -61h-7q-9 -47 -17.5 -93.5t-16.5 -93.5h-174l34 187q-38 2 -72 13.5t-59.5 33t-41 53t-15.5 74.5q0 21 3 39.5t7 38.5 l47 252h172l-49 -269q-2 -11 -3 -25.5t1.5 -27.5t11 -23t26.5 -12z" />
<glyph unicode="&#x3c9;" horiz-adv-x="703" d="M341 60q-29 -35 -67 -51t-74 -16q-44 0 -73 12.5t-46 33.5t-23.5 49.5t-6.5 60.5q0 33 4 70.5t12 74.5t20.5 70.5t30.5 58.5q27 42 73.5 63.5t122.5 21.5h5l-6 -145q-22 -1 -36 -11.5t-23 -27.5t-14 -38.5t-8 -43.5q-6 -44 -6 -69q0 -31 25 -31q14 0 25 11.5t14 30.5 l26 151h152l-26 -149q-3 -17 0.5 -31t19.5 -14q14 0 25 13q7 11 14.5 33t13.5 48t8.5 52t1.5 46q-2 16 -11 24.5t-29 12.5q10 35 19 69t18 69q76 -3 115 -28.5t53 -62.5q7 -17 9.5 -38t2.5 -45t-3 -54.5t-9.5 -62.5t-16 -62t-22.5 -53q-26 -47 -69.5 -78t-114.5 -31 q-17 0 -35.5 3t-35 10.5t-30.5 20.5t-22 33h-3z" />
<glyph unicode="&#x3ca;" horiz-adv-x="306" d="M250 -5l-57 -1q-39 -1 -65.5 5.5t-42 19.5t-22.5 32t-7 43q0 12 1.5 25t3.5 27l64 350h176l-59 -314q-1 -5 -1.5 -9.5t-0.5 -8.5q0 -14 8.5 -18t28.5 -5zM259 555l24 133h144l-25 -133h-143zM49 555l25 133h142l-24 -133h-143z" />
<glyph unicode="&#x3cb;" horiz-adv-x="503" d="M108 497h88.5t88.5 -1l-52 -284q-2 -12 -3.5 -24.5t0 -22t8 -16t20.5 -6.5q18 0 28.5 12t15.5 29q2 3 4.5 16.5t5.5 30.5l50 266h175q-12 -67 -24.5 -134t-25.5 -134q-5 -28 -12.5 -56t-18.5 -52q-28 -69 -79 -98.5t-128 -29.5q-102 0 -149.5 42.5t-47.5 117.5q0 35 6 68 zM368 555l24 133h144l-25 -133h-143zM158 555l25 133h142l-24 -133h-143z" />
<glyph unicode="&#x3cc;" horiz-adv-x="498" d="M309 509q51 0 87 -13t59.5 -36t34 -56t10.5 -72q0 -26 -3.5 -55.5t-10.5 -59t-16 -56t-20 -45.5q-17 -35 -38.5 -59t-47 -38t-55.5 -20t-63 -6q-105 0 -150.5 47t-45.5 127q0 20 2.5 41t5.5 41q9 51 25 95.5t43 78.5q28 37 71 61.5t112 24.5zM295 360q-15 0 -27 -14 q-19 -23 -34 -93q-9 -42 -9 -70q0 -14 4.5 -27.5t21.5 -13.5q15 0 25 8.5t17.5 22.5t12 32t8.5 37q5 23 7.5 43.5t2.5 37.5q0 16 -5.5 26.5t-23.5 10.5zM264 581l134 216l119 -61l-169 -203z" />
<glyph unicode="&#x3cd;" horiz-adv-x="503" d="M108 497h88.5t88.5 -1l-52 -284q-2 -12 -3.5 -24.5t0 -22t8 -16t20.5 -6.5q18 0 28.5 12t15.5 29q2 3 4.5 16.5t5.5 30.5l50 266h175q-12 -67 -24.5 -134t-25.5 -134q-5 -28 -12.5 -56t-18.5 -52q-28 -69 -79 -98.5t-128 -29.5q-102 0 -149.5 42.5t-47.5 117.5q0 35 6 68 zM257 581l134 216l119 -61l-169 -203z" />
<glyph unicode="&#x3ce;" horiz-adv-x="703" d="M341 60q-29 -35 -67 -51t-74 -16q-44 0 -73 12.5t-46 33.5t-23.5 49.5t-6.5 60.5q0 33 4 70.5t12 74.5t20.5 70.5t30.5 58.5q27 42 73.5 63.5t122.5 21.5h5l-6 -145q-22 -1 -36 -11.5t-23 -27.5t-14 -38.5t-8 -43.5q-6 -44 -6 -69q0 -31 25 -31q14 0 25 11.5t14 30.5 l26 151h152l-26 -149q-3 -17 0.5 -31t19.5 -14q14 0 25 13q7 11 14.5 33t13.5 48t8.5 52t1.5 46q-2 16 -11 24.5t-29 12.5q10 35 19 69t18 69q76 -3 115 -28.5t53 -62.5q7 -17 9.5 -38t2.5 -45t-3 -54.5t-9.5 -62.5t-16 -62t-22.5 -53q-26 -47 -69.5 -78t-114.5 -31 q-17 0 -35.5 3t-35 10.5t-30.5 20.5t-22 33h-3zM356 581l134 216l119 -61l-169 -203z" />
<glyph unicode="&#x401;" horiz-adv-x="519" d="M29 0l128 696h426l-29 -156h-241l-20 -107h212l-29 -156h-212l-22 -120h252l-28 -157h-437zM410 737l25 133h143l-25 -133h-143zM200 737l25 133h143l-25 -133h-143z" />
<glyph unicode="&#x402;" horiz-adv-x="650" d="M403 542l-20 -109h1q29 17 60.5 27.5t59.5 10.5q40 0 68.5 -12.5t47 -34.5t27 -52t8.5 -65q0 -77 -12.5 -142.5t-44.5 -114.5t-88.5 -76.5t-143.5 -27.5h-13t-14 1l27 148q54 5 76.5 45.5t22.5 107.5q0 12 -1.5 22.5t-6 18.5t-13.5 13t-24 5q-14 0 -31 -6.5t-34 -19.5 l-52 -281h-183l100 542h-134l28 154h509l-28 -154h-192z" />
<glyph unicode="&#x403;" horiz-adv-x="502" d="M313 542l-100 -542h-184l128 696h436l-28 -154h-252zM282 805l219 132l59 -121l-234 -95z" />
<glyph unicode="&#x404;" horiz-adv-x="536" d="M367 704q54 0 93.5 -14.5t65.5 -40t39 -60.5t14 -76l-170 -43v7q0 38 -13.5 53.5t-33.5 15.5q-23 0 -36 -12.5t-21 -30.5q-4 -12 -7.5 -25t-5.5 -27l-5 -24h144l-27 -146h-144l-11 -65q-1 -5 -1.5 -9.5t-0.5 -9.5q0 -20 11 -33t37 -13q22 0 39.5 17.5t30.5 59.5l177 -41 q-25 -91 -88.5 -142t-166.5 -51q-22 0 -37 4q-88 8 -136 56.5t-48 126.5q0 19 2 38t6 39l30 163q6 29 13 57.5t16 56.5q12 37 31.5 68.5t48 53.5t66.5 34.5t88 12.5z" />
<glyph unicode="&#x405;" horiz-adv-x="539" d="M343 540q-23 0 -39.5 -13t-16.5 -33q0 -23 24.5 -38t63.5 -33q82 -40 121.5 -83.5t39.5 -107.5q0 -59 -21.5 -103.5t-58 -74t-85.5 -44.5t-104 -15q-88 0 -148 39t-90 96l136 99q20 -38 47.5 -55.5t56.5 -17.5q35 0 55.5 17t20.5 42q0 23 -22.5 36.5t-55.5 28.5 q-70 31 -113.5 75t-43.5 109q0 55 19 99t52 74.5t78.5 46.5t98.5 16q72 0 122.5 -26.5t82.5 -74.5l-125 -118q-20 33 -45.5 46t-49.5 13z" />
<glyph unicode="&#x406;" horiz-adv-x="302" d="M39 0l128 696h184l-128 -696h-184z" />
<glyph unicode="&#x407;" horiz-adv-x="302" d="M39 0l128 696h184l-128 -696h-184zM304 734l24 133h144l-25 -133h-143zM94 734l25 133h142l-24 -133h-143z" />
<glyph unicode="&#x408;" horiz-adv-x="487" d="M452 212q-21 -112 -80 -164.5t-165 -52.5q-57 0 -112.5 21t-96.5 80l130 116q23 -31 44 -40.5t38 -9.5q26 0 41.5 16.5t20.5 44.5l87 473h182z" />
<glyph unicode="&#x409;" horiz-adv-x="865" d="M446 542h-67l-14 -78t-15 -79q-17 -92 -37.5 -160.5t-55 -117t-88 -79t-136.5 -45.5q-8 38 -15 76.5t-14 77.5q35 10 60 23.5t42.5 33t30 46.5t21.5 65q3 11 11 52.5t19 98t22.5 120.5t22.5 120h424l-48 -262h69q51 0 87 -12.5t59 -35t33.5 -54t10.5 -70.5 q0 -67 -21 -116.5t-56.5 -81.5t-83 -48t-101.5 -16h-260zM612 153q29 0 49.5 20.5t20.5 65.5q0 20 -12 32.5t-37 12.5h-52l-24 -131h55z" />
<glyph unicode="&#x40a;" horiz-adv-x="822" d="M300 0q14 71 26.5 141t25.5 142h-87q-13 -72 -25.5 -142t-26.5 -141h-184l128 696h184l-48 -262h87l48 262h184l-48 -262h68q100 0 145.5 -47.5t45.5 -124.5q0 -67 -21 -116.5t-57 -81.5t-83.5 -48t-101.5 -16h-260zM566 153q30 0 49.5 19.5t21.5 66.5q0 20 -12 32.5 t-37 12.5h-52l-25 -131h55z" />
<glyph unicode="&#x40b;" horiz-adv-x="644" d="M400 550l-21 -113h2q32 17 68.5 24.5t66.5 7.5q74 0 105.5 -32.5t31.5 -83.5q0 -18 -2 -37.5t-6 -39.5l-51 -276h-182l22 120l22 120q3 13 3 24q0 19 -9.5 30t-35.5 11q-14 0 -31.5 -6.5t-32.5 -18.5l-51 -280h-183l101 550h-130l27 146h503l-26 -146h-191z" />
<glyph unicode="&#x40c;" horiz-adv-x="587" d="M29 0l129 697h183l-51 -271h16q15 0 27 3.5t22.5 13t21 25.5t21.5 42l80 184h189q-23 -53 -45 -104t-44 -104q-21 -50 -52.5 -81t-63.5 -44q-1 -1 -1 -2q36 -14 54 -45.5t21 -82.5l13 -231h-186l-9 188q-2 28 -5.5 45.5t-11.5 26.5t-21 12t-32 3h-21l-51 -275h-183z M336 805l219 132l59 -121l-234 -95z" />
<glyph unicode="&#x40e;" horiz-adv-x="544" d="M328 416q10 24 23.5 55t36.5 81q13 32 27.5 67.5t31.5 76.5h196l-252 -523q-25 -52 -49.5 -87.5t-53 -57.5t-64.5 -32t-85 -10h-71q6 40 11 78.5t11 78.5h29q15 0 35 5t32 20l12 15q-20 131 -41.5 256.5t-41.5 255.5h191l11 -141l7 -138h4zM391 702q-48 0 -78.5 17.5 t-47.5 44t-22 57t-1 57.5h107q-4 -29 8 -51t42 -22q32 0 52 23t27 50h111q-5 -27 -19 -58t-38 -57t-59.5 -43.5t-81.5 -17.5z" />
<glyph unicode="&#x40f;" horiz-adv-x="581" d="M623 696l-131 -696h-161l-35 -175h-152l34 175h-169l130 696h184l-101 -540h117l101 540h183z" />
<glyph unicode="&#x410;" horiz-adv-x="604" d="M383 123h-156l-48 -123h-191l319 696h206l62 -696h-187zM369 482l-50 -131l-30 -78h87l-1 81v128h-6z" />
<glyph unicode="&#x411;" horiz-adv-x="553" d="M29 0l128 696h409l-27 -148h-226l-21 -114h68q51 0 87 -12.5t59.5 -35t34 -54t10.5 -70.5q0 -67 -21 -116.5t-57 -81.5t-83.5 -48t-101.5 -16h-259zM294 153q29 0 50 21t21 65q0 20 -12.5 32.5t-36.5 12.5h-52l-25 -131h55z" />
<glyph unicode="&#x412;" horiz-adv-x="570" d="M481 361q0 -1 -0.5 -2t-0.5 -2q41 -16 55.5 -48.5t14.5 -68.5q0 -70 -24 -116t-63.5 -73.5t-91.5 -39t-109 -11.5h-233l128 696h253q94 0 139 -41.5t45 -119.5q-1 -20 -6.5 -45.5t-18 -50t-34 -46t-54.5 -32.5zM264 288q-6 -35 -12 -68.5t-13 -68.5h42q37 0 60 25.5 t23 62.5q0 49 -52 49h-48zM312 545l-21 -113h39q31 0 52.5 16t21.5 50q0 47 -50 47h-42z" />
<glyph unicode="&#x413;" horiz-adv-x="502" d="M313 542l-100 -542h-184l128 696h436l-28 -154h-252z" />
<glyph unicode="&#x414;" horiz-adv-x="671" d="M127 0l-29 -153h-151l52 295l54 11q25 12 43.5 35t32 56t24.5 75.5t23 93.5l64 283h432q-25 -137 -50 -272.5t-51 -272.5h67q-14 -77 -28 -152t-28 -152h-153l28 153h-330zM334 381q-11 -48 -20 -84t-18 -62.5t-18.5 -46t-19.5 -35.5h134l73 400h-92z" />
<glyph unicode="&#x415;" horiz-adv-x="519" d="M29 0l128 696h426l-29 -156h-241l-20 -107h212l-29 -156h-212l-22 -120h252l-28 -157h-437z" />
<glyph unicode="&#x416;" horiz-adv-x="872" d="M325 0l51 275h-14q-18 0 -31 -3t-23.5 -12t-20 -25t-21.5 -42l-80 -193h-188l97 231q13 31 26.5 52.5t28.5 36.5t31.5 24t34.5 15q-19 9 -31 22.5t-19.5 30t-11 35.5t-5.5 39l-13 208h182l12 -188q1 -26 6.5 -41.5t13.5 -24t19 -11.5t23 -3h11l51 271h183l-51 -271h11 q12 0 23 3t21 11.5t20 24t22 41.5l80 188h191l-89 -208q-21 -50 -52.5 -81t-64.5 -44q0 -1 -1 -2q37 -14 55 -45.5t20 -82.5l14 -231h-186l-9 193q-1 27 -5 43t-11.5 24.5t-19 11.5t-29.5 3h-17l-51 -275h-183z" />
<glyph unicode="&#x417;" horiz-adv-x="510" d="M440 357q39 -24 52.5 -64.5t8.5 -83.5q-6 -56 -30 -96.5t-60 -66.5t-81 -38.5t-94 -12.5q-95 0 -150.5 45.5t-63.5 123.5l160 55q2 -33 19 -51.5t45 -18.5q32 0 51 23.5t19 63.5q0 27 -17.5 40.5t-42.5 13.5h-41l24 133h47q32 0 56 17t24 56q0 17 -11 33.5t-39 16.5 q-26 0 -49 -17.5t-37 -49.5l-144 61q35 83 101 122t154 39q98 0 150 -46.5t52 -121.5q0 -17 -4 -40.5t-15 -48t-31 -47t-52 -36.5z" />
<glyph unicode="&#x418;" horiz-adv-x="611" d="M279 350l46 64t45 64q5 7 16 23.5t25.5 38.5t30.5 46.5t30.5 46.5t25.5 39t16 24h157l-128 -696h-182l58 326h-4q-20 -29 -36.5 -54t-37.5 -54q-37 -55 -76.5 -109.5t-76.5 -108.5h-159l128 696h181l-63 -346h4z" />
<glyph unicode="&#x419;" horiz-adv-x="611" d="M279 350l46 64t45 64q5 7 16 23.5t25.5 38.5t30.5 46.5t30.5 46.5t25.5 39t16 24h157l-128 -696h-182l58 326h-4q-20 -29 -36.5 -54t-37.5 -54q-37 -55 -76.5 -109.5t-76.5 -108.5h-159l128 696h181l-63 -346h4zM431 712q-48 0 -78.5 17.5t-47.5 44t-22 57t-1 57.5h107 q-4 -29 8 -51t42 -22q32 0 52 23t27 50h111q-5 -27 -19 -58t-38 -57t-59.5 -43.5t-81.5 -17.5z" />
<glyph unicode="&#x41a;" horiz-adv-x="586" d="M29 0l129 697h183l-51 -271h16q15 0 27 3.5t22.5 13t21 25.5t21.5 42l80 184h189q-23 -53 -45 -104t-44 -104q-21 -50 -52.5 -81t-63.5 -44q-1 -1 -1 -2q36 -14 54 -45.5t21 -82.5l13 -231h-186l-9 188q-2 28 -5.5 45.5t-11.5 26.5t-21 12t-32 3h-21l-51 -275h-183z" />
<glyph unicode="&#x41b;" horiz-adv-x="603" d="M535 0h-184l100 542h-75l-37 -198q-15 -78 -36 -140t-56 -107t-88 -74.5t-131 -42.5l-30 155q41 11 69 27.5t47 42.5t31 64t22 92l62 335h434z" />
<glyph unicode="&#x41c;" horiz-adv-x="726" d="M409 364l91 159l99 173h187l-128 -696h-178l54 293h-4l-56 -103l-40 -78h-140l-12 80l-17 104h-3l-55 -296h-178l128 696h178l34 -164l34 -168h6z" />
<glyph unicode="&#x41d;" horiz-adv-x="578" d="M327 0l50 272h-114l-50 -272h-184l128 696h184l-48 -264h114l48 264h183l-128 -696h-183z" />
<glyph unicode="&#x41e;" horiz-adv-x="568" d="M361 545q-20 0 -34.5 -12t-21.5 -32q-5 -17 -10.5 -38t-8.5 -38q-8 -42 -15 -79.5t-14 -83.5q-3 -18 -5.5 -35t-3.5 -34q0 -21 14.5 -31t34.5 -10q27 0 41 18.5t21 50.5q12 57 20.5 107.5t18.5 104.5q3 18 5.5 35t3.5 34q-1 20 -13.5 31.5t-32.5 11.5zM367 704 q60 0 105.5 -18t73.5 -51.5t38 -80.5t0 -104q-8 -44 -14.5 -88.5t-16.5 -87.5q-5 -22 -8 -36.5t-5 -25t-4.5 -20t-5.5 -21.5q-22 -85 -79 -131t-166 -46q-75 0 -129 28t-74 74q-14 33 -14.5 76t10.5 103q11 64 19 105.5t14 68.5t10.5 42.5t7.5 27.5q23 85 80.5 135t157.5 50 z" />
<glyph unicode="&#x41f;" horiz-adv-x="583" d="M332 0l99 539h-119l-99 -539h-184l128 696h485l-128 -696h-182z" />
<glyph unicode="&#x420;" horiz-adv-x="547" d="M404 696q90 0 139.5 -41.5t49.5 -133.5q0 -61 -19 -110t-54 -83t-83.5 -52.5t-106.5 -18.5h-72q-11 -64 -23.5 -128.5t-23.5 -128.5h-182l128 696h247zM311 545l-25 -137h42q16 0 31 5.5t27 16t19 27t7 37.5q0 26 -14 38.5t-38 12.5h-49z" />
<glyph unicode="&#x421;" horiz-adv-x="542" d="M367 704q54 0 93.5 -14.5t65.5 -40t39 -60.5t14 -76l-170 -43v7q0 38 -13.5 53.5t-33.5 15.5q-23 0 -36 -12.5t-21 -30.5q-4 -12 -7.5 -25t-5.5 -27q-11 -60 -21.5 -117.5t-21.5 -117.5q-1 -5 -1.5 -9.5t-0.5 -9.5q0 -20 11 -33t37 -13q22 0 39.5 17.5t30.5 59.5l177 -41 q-25 -91 -88.5 -142t-166.5 -51q-22 0 -37 4q-88 8 -136 56.5t-48 126.5q0 19 2 38t6 39l30 163q6 29 13 57.5t16 56.5q12 37 31.5 68.5t48 53.5t66.5 34.5t88 12.5z" />
<glyph unicode="&#x422;" horiz-adv-x="496" d="M419 540l-99 -540h-184l99 540h-143l29 156h470l-28 -156h-144z" />
<glyph unicode="&#x423;" horiz-adv-x="544" d="M328 416q10 24 23.5 55t36.5 81q13 32 27.5 67.5t31.5 76.5h196l-252 -523q-25 -52 -49.5 -87.5t-53 -57.5t-64.5 -32t-85 -10h-71q6 40 11 78.5t11 78.5h29q15 0 35 5t32 20l12 15q-20 131 -41.5 256.5t-41.5 255.5h191l11 -141l7 -138h4z" />
<glyph unicode="&#x424;" horiz-adv-x="740" d="M272 59q-49 6 -84.5 24t-59 44.5t-34.5 60.5t-11 73q0 45 6 90.5t17 87.5q12 45 35 83t57 66.5t79.5 46.5t103.5 22l8 39h178q-2 -10 -4 -21t-4 -21q52 -5 88.5 -22t59.5 -42.5t34 -58.5t11 -71q0 -48 -8 -98.5t-22 -96.5q-13 -42 -36 -78t-57 -63.5t-78.5 -44.5 t-100.5 -20q-3 -15 -6 -29.5t-5 -29.5h-178zM354 509q-18 -2 -29 -8t-19 -16q-17 -22 -25 -57t-15 -70l-10 -56q-3 -18 -3.5 -34t3.5 -29t14 -22t27 -12zM475 205q23 2 40.5 17t26.5 46q11 37 21 88q4 18 5.5 30.5t3.5 26.5q3 19 4 35.5t-3 29.5t-13.5 21t-27.5 10z" />
<glyph unicode="&#x425;" horiz-adv-x="590" d="M322 203l-123 -203h-207l250 359l-112 337h190l42 -178l4 2l105 176h209q-60 -85 -119 -168.5t-119 -168.5l121 -359h-191q-11 51 -23.5 101t-23.5 101z" />
<glyph unicode="&#x426;" horiz-adv-x="638" d="M424 0h-415l130 696h184l-101 -540h116l101 540h182l-102 -542h88l-59 -308h-154z" />
<glyph unicode="&#x427;" horiz-adv-x="546" d="M346 266h-1q-23 -9 -57 -15.5t-63 -6.5q-75 0 -108 32.5t-33 90.5q0 40 7 81l46 248h181l-41 -218q-1 -7 -1.5 -13t-0.5 -12q0 -46 43 -46q14 0 31 4.5t26 11.5l51 273h180l-129 -696h-180z" />
<glyph unicode="&#x428;" horiz-adv-x="822" d="M881 696l-128 -696h-724l128 696h184l-100 -540h86l100 540h185l-100 -540h87l100 540h182z" />
<glyph unicode="&#x429;" horiz-adv-x="870" d="M761 154h78l-58 -308h-155l30 154h-647l130 696h184l-101 -540h86l102 540h184l-102 -540h87l101 540h183z" />
<glyph unicode="&#x42a;" horiz-adv-x="672" d="M246 542h-156q7 38 13.5 77t14.5 77h339l-48 -262h69q51 0 87 -12.5t59 -35t33.5 -54t10.5 -70.5q0 -74 -24 -124t-65.5 -81t-96 -44t-115.5 -13h-221zM412 153q28 0 49 21t21 65q0 20 -12 32.5t-37 12.5h-52l-24 -131h55z" />
<glyph unicode="&#x42b;" horiz-adv-x="819" d="M29 0l128 696h183l-48 -262h69q51 0 87 -12.5t59 -35t33.5 -54t10.5 -70.5q0 -67 -21 -116.5t-56.5 -81.5t-83 -48t-101.5 -16h-260zM556 0l128 696h184l-128 -696h-184zM295 153q28 0 49 21t21 65q0 20 -12 32.5t-37 12.5h-52l-24 -131h55z" />
<glyph unicode="&#x42c;" horiz-adv-x="553" d="M29 0l128 696h183l-48 -262h69q51 0 87 -12.5t59 -35t33.5 -54t10.5 -70.5q0 -67 -21 -116.5t-56.5 -81.5t-83 -48t-101.5 -16h-260zM295 153q28 0 49 21t21 65q0 20 -12 32.5t-37 12.5h-52l-24 -131h55z" />
<glyph unicode="&#x42d;" horiz-adv-x="540" d="M353 704q53 0 92 -13.5t64 -37.5t37 -57t12 -72q0 -18 -2.5 -36.5t-5.5 -38.5q-8 -48 -15.5 -95.5t-15.5 -95.5q-4 -21 -7 -41t-8 -39q-21 -91 -78.5 -137.5t-159.5 -46.5q-48 0 -88.5 13.5t-69.5 38.5t-44.5 61.5t-13.5 81.5l168 39v-6q0 -39 15 -55t35 -16 q32 0 44.5 19.5t17.5 45.5l12 68h-147l26 141h147l9 53q2 12 1.5 24t-4.5 22t-13 16t-24 6q-21 0 -38.5 -17t-33.5 -59l-156 48q13 39 33 73t49 59t69 39.5t93 14.5z" />
<glyph unicode="&#x42e;" horiz-adv-x="793" d="M157 696h184l-50 -271h59q11 61 31 111q26 78 82 122t150 44q97 0 149.5 -51.5t52.5 -136.5q1 -23 -2 -48t-8 -51l-26 -143l-8 -40t-9 -39q-11 -47 -30 -83.5t-47.5 -62.5t-69 -39.5t-94.5 -13.5q-102 0 -154 50t-52 134q0 50 9 101h-60l-51 -279h-184zM633 435 q3 17 5.5 34.5t3.5 34.5q0 20 -13 30t-32 10q-11 0 -23 -5.5t-18 -13.5q-11 -17 -17 -41t-11 -49l-37 -192q-2 -13 -3.5 -28t-0.5 -23q1 -20 13.5 -30t32.5 -10q26 0 40 17.5t20 49.5z" />
<glyph unicode="&#x42f;" horiz-adv-x="580" d="M429 545h-49q-29 0 -48.5 -16t-23.5 -54q-3 -31 12.5 -45t38.5 -14h46zM636 696l-124 -696h-184l49 268h-26q-12 0 -22.5 -3.5t-20.5 -13.5t-19.5 -26.5t-21.5 -43.5l-66 -181h-190l78 211q13 33 34 59.5t62 39.5q-41 23 -54.5 66t-7.5 97q5 59 26 101t53 69t74.5 40 t90.5 13h269z" />
<glyph unicode="&#x430;" horiz-adv-x="507" d="M267 0l6 33q-1 0 -2 1q-15 -14 -31 -22t-31 -12t-27 -5.5t-18 -1.5q-66 0 -94 31.5t-28 84.5q0 33 3.5 70t9.5 69q10 49 24.5 95.5t38 82.5t57.5 57.5t82 21.5q9 0 22 -1.5t27 -7t26.5 -14.5t20.5 -24h4q2 10 3.5 19.5t3.5 18.5h173l-92 -496h-178zM255 142q9 0 15.5 4 t11.5 10q11 12 21 44t16 68q3 14 4 27t1 26q0 16 -6 26.5t-23 10.5q-8 0 -14 -4.5t-11 -9.5q-19 -23 -33 -86q-4 -18 -7 -36t-3 -34t4 -31t24 -15z" />
<glyph unicode="&#x431;" horiz-adv-x="496" d="M267 452q17 9 44 14.5t45 5.5q57 0 87 -23.5t43 -58.5q11 -28 11 -69q0 -21 -2.5 -42.5t-6.5 -45.5q-5 -29 -11.5 -52t-17.5 -49q-28 -69 -81.5 -103.5t-130.5 -34.5q-53 0 -89.5 10.5t-59 30t-33.5 46.5t-13 60q0 6 -0.5 12t-0.5 13q0 28 4.5 69t12.5 81 q11 59 21.5 106.5t22.5 85.5q23 73 53 115.5t73 65t102 29.5t141 10l9 -135q-41 -6 -77 -9.5t-64.5 -12t-48 -26t-28.5 -52.5l-9 -38zM288 329q-26 0 -36.5 -21.5t-18.5 -59.5q-4 -20 -6.5 -36t-2.5 -29q0 -19 7 -29q6 -13 25 -13q17 0 29 14q10 10 16.5 32t11.5 51 q5 25 5.5 41.5t-1.5 28.5q-5 21 -29 21z" />
<glyph unicode="&#x432;" horiz-adv-x="504" d="M308 509q54 0 89 -12.5t56 -31t29.5 -41.5t8.5 -44q0 -11 -3 -25t-9.5 -29t-18 -28.5t-28.5 -22.5q0 -1 -0.5 -1t-0.5 -1q29 -13 43.5 -36.5t14.5 -52.5q0 -35 -14 -69t-44 -61t-76.5 -43.5t-111.5 -16.5q-66 0 -106.5 17t-61 45.5t-24 66.5t4.5 81l20 103q7 36 22 72.5 t42 65t68 46.5t100 18zM293 370q-22 0 -32 -18t-15 -44l-21 -104q-2 -11 -3.5 -22t1 -21t9.5 -16t22 -6q23 0 36.5 15t13.5 31q0 25 -32 25h-16l19 100q19 -2 33 6.5t14 25.5q0 28 -29 28z" />
<glyph unicode="&#x433;" horiz-adv-x="452" d="M288 510q37 0 69.5 -8.5t57 -25.5t39 -43t15.5 -62q0 -44 -19 -74t-47.5 -50t-62.5 -32t-63 -21q-9 -3 -20.5 -6t-21 -8.5t-16 -12.5t-6.5 -17q0 -11 8.5 -14t17.5 -3q23 0 48 14.5t47 37.5l103 -98q-45 -51 -96.5 -72.5t-120.5 -21.5q-39 0 -72.5 9t-58 26t-39 43 t-14.5 59q0 50 22.5 84t56 56.5t73 36.5t73.5 24q37 11 37 29q0 10 -7 12.5t-15 2.5q-22 0 -52.5 -13.5t-53.5 -35.5l-86 97q44 45 92.5 66t111.5 21z" />
<glyph unicode="&#x434;" horiz-adv-x="513" d="M288 337q-8 0 -14 -4t-12 -9q-7 -7 -15 -27t-16 -55q-5 -18 -6 -33t-1 -27q0 -17 6.5 -27.5t20.5 -10.5t23 7t17 20q6 10 11 27t8.5 35.5t6 36t2.5 28.5q0 15 -7 27t-24 12zM364 458q3 21 3 38q0 40 -22 57.5t-72 17.5q-11 0 -25 -1t-27 -3l-17 133q34 8 64 11t55 3 q61 0 101.5 -17t64.5 -45.5t34 -66.5t10 -80q0 -33 -4 -77.5t-12 -92.5t-20 -96.5t-28 -89.5q-28 -72 -79.5 -114t-131.5 -42q-106 0 -158 48t-52 129q0 27 5 57t13.5 59.5t19.5 56t23 44.5q26 39 65.5 63t98.5 24q44 0 85 -19z" />
<glyph unicode="&#x435;" horiz-adv-x="478" d="M293 368q-19 0 -35 -15.5t-22 -50.5q45 0 64.5 10t19.5 29q0 11 -6 19t-21 8zM451 102q-32 -59 -87 -85t-129 -26q-41 0 -75 11t-59 32t-38.5 52.5t-13.5 72.5q0 20 2 41.5t5 40.5q7 49 22.5 97t43.5 86t71.5 61t107.5 23q48 0 82.5 -11t57.5 -29.5t34 -43.5t11 -52 q0 -51 -20 -85.5t-54 -55.5t-78.5 -30t-93.5 -9q-5 0 -10.5 0.5t-11.5 0.5q-6 -33 4 -46.5t39 -13.5q16 0 35 9.5t37 32.5z" />
<glyph unicode="&#x436;" horiz-adv-x="985" d="M613 135l-79 -135h-145l57 256q-2 0 -3 1q-14 -28 -25 -49t-19 -35t-18 -30.5t-21 -33.5q-33 -52 -75.5 -83t-111.5 -31q-57 0 -96.5 29.5t-53.5 77.5q29 17 57.5 38t56.5 38q11 -22 24.5 -27.5t20.5 -5.5q8 0 17 4t17 14q7 9 13.5 27.5t12 40.5t8.5 44.5t3 39.5t-7.5 27 t-21.5 10q-11 0 -24 -6.5t-27 -23.5q-26 19 -50 38.5t-50 38.5q31 58 75.5 84t100.5 26q38 0 67.5 -12t49.5 -34t30 -51.5t10 -63.5l4 -2q23 36 45 74t43 76h138l-59 -272h3q22 46 37 76t26 50t19 33t16 25q14 21 31 39t38.5 32t47.5 22t59 8q67 0 102.5 -31.5t47.5 -85.5 q-29 -17 -57 -37t-56 -37q-11 21 -21.5 27t-18.5 6q-15 0 -30 -15q-8 -8 -15.5 -25.5t-13.5 -39t-10 -44.5t-4 -41q0 -17 6.5 -26.5t19.5 -9.5q8 0 23 7t29 25q27 -17 54.5 -34.5t54.5 -34.5q-28 -59 -77.5 -89t-111.5 -30q-70 0 -112.5 33t-46.5 111z" />
<glyph unicode="&#x437;" horiz-adv-x="442" d="M362 259q0 -1 -0.5 -1t-0.5 -1q31 -13 44 -39.5t13 -52.5q0 -77 -55.5 -124t-155.5 -47q-75 0 -122.5 29.5t-68.5 80.5l128 72q12 -18 29.5 -28.5t34.5 -10.5t29 11t12 28q0 14 -10 18t-25 4h-36l20 109h32q16 0 31 7t15 30q0 9 -7.5 16t-22.5 7q-35 0 -71 -33l-97 72 q21 31 46.5 51t52.5 31t54 15.5t51 4.5q77 0 123 -32.5t46 -90.5q0 -9 -2 -25t-11 -34.5t-27 -36.5t-49 -30z" />
<glyph unicode="&#x438;" horiz-adv-x="513" d="M286 61q-17 -22 -36 -36t-37 -21.5t-34 -10t-26 -2.5q-39 0 -63 11t-36 31.5t-13 49.5t5 65l65 349h177l-54 -288q-4 -24 1.5 -38t26.5 -14q11 0 20 6.5t15.5 16t11 21t6.5 21.5l51 275h177l-92 -497h-175l13 60z" />
<glyph unicode="&#x439;" horiz-adv-x="513" d="M346 536q-48 0 -78.5 17.5t-47.5 44t-22 57t-1 57.5h107q-4 -29 8 -51t42 -22q32 0 52 23t27 50h111q-5 -27 -19 -58t-38 -57t-59.5 -43.5t-81.5 -17.5zM286 61q-17 -22 -36 -36t-37 -21.5t-34 -10t-26 -2.5q-39 0 -63 11t-36 31.5t-13 49.5t5 65l65 349h177l-54 -288 q-4 -24 1.5 -38t26.5 -14q11 0 20 6.5t15.5 16t11 21t6.5 21.5l51 275h177l-92 -497h-175l13 60z" />
<glyph unicode="&#x43a;" horiz-adv-x="516" d="M407 260q31 -12 44 -37t15 -62l10 -161h-174l-4 119q-1 28 -13 45t-40 17h-15l-33 -181h-176l92 495h175l-32 -174h7q10 0 19 1.5t17.5 7.5t17 18.5t17.5 34.5l48 113h179l-61 -144q-16 -38 -41 -61t-52 -31z" />
<glyph unicode="&#x43b;" horiz-adv-x="508" d="M446 0h-174l67 361h-47l-15 -82q-13 -72 -32.5 -125.5t-50 -89.5t-75.5 -55t-109 -22l-17 127q29 7 49 16.5t34.5 27.5t24.5 48.5t18 79.5l39 210h380z" />
<glyph unicode="&#x43c;" horiz-adv-x="596" d="M326 277l65 106l74 114h161l-91 -497h-170l33 179h-3l-53 -89h-95l-23 90h-2l-33 -180h-167l91 497h149l32 -115l27 -105h5z" />
<glyph unicode="&#x43d;" horiz-adv-x="516" d="M281 0l34 187h-84l-34 -187h-175l91 497h175l-33 -179h84l33 179h174l-91 -497h-174z" />
<glyph unicode="&#x43e;" horiz-adv-x="498" d="M309 509q51 0 87 -13t59.5 -36t34 -56t10.5 -72q0 -26 -3.5 -55.5t-10.5 -59t-16 -56t-20 -45.5q-17 -35 -38.5 -59t-47 -38t-55.5 -20t-63 -6q-105 0 -150.5 47t-45.5 127q0 20 2.5 41t5.5 41q9 51 25 95.5t43 78.5q28 37 71 61.5t112 24.5zM295 360q-15 0 -27 -14 q-19 -23 -34 -93q-9 -42 -9 -70q0 -14 4.5 -27.5t21.5 -13.5q15 0 25 8.5t17.5 22.5t12 32t8.5 37q5 23 7.5 43.5t2.5 37.5q0 16 -5.5 26.5t-23.5 10.5z" />
<glyph unicode="&#x43f;" horiz-adv-x="513" d="M281 438q17 20 35.5 33.5t35.5 21.5t32 11.5t26 3.5q38 0 62.5 -11t36.5 -31.5t14 -49.5t-5 -65l-64 -351h-177l52 289q5 24 -1 38t-27 14q-12 0 -20.5 -6.5t-14.5 -16.5t-10 -22t-6 -22l-51 -274h-177l91 497h175l-11 -58z" />
<glyph unicode="&#x440;" horiz-adv-x="507" d="M-14 -198l127 694h173l-7 -41h4q13 15 29 24t31.5 14.5t29 7.5t22.5 2q63 0 92.5 -32.5t29.5 -90.5q0 -30 -4 -70.5t-12 -82t-19.5 -79.5t-25.5 -64q-21 -39 -57.5 -66.5t-95.5 -27.5q-20 0 -49 6.5t-48 27.5q-1 0 -2 -1l-41 -221h-177zM263 141q13 0 23.5 10t18 26 t12.5 37t8 42q3 17 5 32t2 31q0 14 -6 24t-21 10q-24 0 -37 -26.5t-22 -68.5q-11 -55 -11 -81q0 -15 5.5 -25.5t22.5 -10.5z" />
<glyph unicode="&#x441;" horiz-adv-x="457" d="M301 508q72 0 119 -33.5t55 -94.5l-132 -67q-8 26 -19.5 35.5t-23.5 9.5q-28 0 -40 -21t-20 -52q-6 -23 -10 -47.5t-5 -46.5q-1 -20 6.5 -33.5t31.5 -13.5q13 0 30 10t34 36q29 -17 61.5 -35t61.5 -35q-31 -66 -86.5 -96t-127.5 -30q-98 0 -142 43.5t-44 117.5q0 40 6 87 q8 54 23 98.5t35 73.5q31 45 75.5 69.5t111.5 24.5z" />
<glyph unicode="&#x442;" horiz-adv-x="750" d="M281 440q35 38 71.5 53t58.5 15q41 0 66.5 -17.5t32.5 -49.5q22 23 43 36.5t39 20t32.5 8.5t23.5 2q39 0 63 -12t35.5 -33.5t12.5 -51.5t-6 -66l-63 -345h-177l53 287q5 24 1 38t-25 14t-31.5 -18.5t-14.5 -37.5l-52 -283h-176l52 287q5 24 1 38t-24 14q-11 0 -19 -6 t-14 -15t-9.5 -20.5t-5.5 -22.5l-51 -275h-176l91 497h175l-11 -56z" />
<glyph unicode="&#x443;" horiz-adv-x="507" d="M560 497q-27 -74 -55.5 -147.5t-59.5 -143.5t-65.5 -133.5t-73.5 -117.5q-24 -33 -54.5 -64.5t-69.5 -56t-87 -39t-106 -14.5l-9 149q56 6 91 23.5t63 54.5l-63 489h183l6 -138q1 -18 1 -42.5t-1 -50.5t-2.5 -50.5t-3.5 -41.5h5q14 28 29 65t29.5 79t28.5 87.5t28 91.5 h186z" />
<glyph unicode="&#x444;" horiz-adv-x="668" d="M365 -190h-174l34 185q-55 5 -90 23t-55 44.5t-26.5 59t-3.5 65.5q2 21 4.5 42.5t7.5 41.5q10 49 30 89.5t50.5 70.5t74 48t102.5 22l39 214h174q-11 -54 -20 -107t-20 -107q52 -5 86 -21.5t53.5 -42t27.5 -58t8 -67.5q0 -55 -12.5 -105.5t-32.5 -86.5q-14 -23 -33.5 -45 t-46.5 -40t-62 -29t-80 -11zM293 360q-16 -2 -26 -9.5t-18 -18.5q-9 -13 -16 -34t-12 -50q-4 -20 -5.5 -38t0.5 -33q2 -11 9 -22.5t27 -16.5zM425 138q14 1 23.5 7.5t14.5 13.5q7 8 12.5 21.5t9.5 28.5t7.5 30.5t5.5 27.5q2 13 3 22.5t1 15.5q0 24 -6 37.5t-30 17.5z" />
<glyph unicode="&#x445;" horiz-adv-x="509" d="M270 134l-77 -134h-200l185 253l-87 245h182l25 -123h2l71 123h199q-46 -62 -91.5 -122.5t-90.5 -122.5l96 -253h-182l-30 134h-2z" />
<glyph unicode="&#x446;" horiz-adv-x="553" d="M481 164q-8 -41 3 -60t39 -31l-49 -213h-144l24 134q-26 5 -44.5 24.5t-20.5 42.5h-3q-32 -43 -68 -56.5t-65 -13.5q-39 0 -63 11t-36 31.5t-13 49.5t5 65l65 349h177l-54 -288q-4 -24 1.5 -38t26.5 -14q11 0 20 6.5t15.5 16t11 21t6.5 21.5l51 275h177z" />
<glyph unicode="&#x447;" horiz-adv-x="486" d="M424 0h-174l32 172q-25 -8 -50.5 -12.5t-50.5 -4.5q-76 0 -104.5 44t-14.5 117q9 45 17 90t17 90h177q-8 -38 -14.5 -74.5t-13.5 -74.5q-4 -17 1.5 -32.5t26.5 -15.5q8 0 17.5 2.5t15.5 4.5l35 190h175z" />
<glyph unicode="&#x448;" horiz-adv-x="749" d="M520 56q-15 -19 -33.5 -31.5t-36 -20.5t-33.5 -11.5t-27 -3.5q-41 0 -66.5 17t-32.5 49q-22 -23 -42.5 -36t-38 -20t-31.5 -8.5t-23 -1.5q-39 0 -63.5 11t-37 31.5t-14 49.5t4.5 65l65 351h177l-53 -287q-5 -25 -1 -38.5t25 -13.5t31.5 18.5t14.5 37.5l52 283h176 l-52 -287q-5 -25 -1 -38.5t24 -13.5q22 0 32.5 20.5t15.5 42.5l51 276h176l-91 -497h-175l11 55z" />
<glyph unicode="&#x449;" horiz-adv-x="789" d="M390 -11q-41 0 -66.5 17t-32.5 49q-22 -23 -43 -36t-39 -20t-32.5 -8.5t-23.5 -1.5q-39 0 -63 11.5t-36 32.5t-13 49.5t5 63.5l65 351h177l-53 -287q-5 -25 -1 -38.5t25 -13.5t31.5 18.5t14.5 37.5l52 283h176l-52 -287q-5 -25 -1 -38.5t24 -13.5q22 0 32.5 20.5 t15.5 42.5l51 276h176l-62 -333q-8 -41 0.5 -60t37.5 -31l-47 -212h-146l24 133q-25 8 -42 26t-19 41h-3q-33 -44 -68 -58t-64 -14z" />
<glyph unicode="&#x44a;" horiz-adv-x="583" d="M73 496h302l-30 -159h63q50 0 82.5 -14t51 -35t26 -46.5t7.5 -49.5q0 -35 -13.5 -70.5t-42 -64t-73.5 -46.5t-108 -18q-99 0 -147 43.5t-48 119.5q0 29 6 64q7 35 13.5 70.5t12.5 70.5h-127zM315 178q-4 -20 4 -32t31 -12q26 0 36 15t10 26q0 12 -7.5 21.5t-33.5 9.5h-35 z" />
<glyph unicode="&#x44b;" horiz-adv-x="728" d="M50 220q14 69 26 138t26 138h174l-30 -159h63q50 0 82.5 -14t51 -35t26 -46.5t7.5 -49.5q0 -35 -13.5 -70.5t-42 -64t-73.5 -46.5t-108 -18q-99 0 -147 43.5t-48 119.5q0 29 6 64zM490 0l92 496h176l-92 -496h-176zM216 178q-4 -20 4 -32t31 -12q26 0 36 15t10 26 q0 12 -7.5 21.5t-33.5 9.5h-35z" />
<glyph unicode="&#x44c;" horiz-adv-x="483" d="M50 220q14 69 26 138t26 138h174l-30 -159h63q50 0 82.5 -14t51 -35t26 -46.5t7.5 -49.5q0 -35 -13.5 -70.5t-42 -64t-73.5 -46.5t-108 -18q-99 0 -147 43.5t-48 119.5q0 29 6 64zM216 178q-4 -20 4 -32t31 -12q26 0 36 15t10 26q0 12 -7.5 21.5t-33.5 9.5h-35z" />
<glyph unicode="&#x44d;" horiz-adv-x="448" d="M143 176q9 -20 24.5 -28.5t26.5 -8.5q29 0 41 17.5t17 40.5h-93l21 108l91 -1q3 17 1.5 28t-7 17t-13 8.5t-14.5 2.5q-11 0 -26.5 -6.5t-29.5 -26.5l-114 67q30 60 80 87t113 27q49 0 84.5 -15t58 -40.5t33 -60t10.5 -72.5q0 -60 -14 -120t-37 -99q-27 -45 -73.5 -76 t-123.5 -31q-67 0 -114.5 26t-66.5 83z" />
<glyph unicode="&#x44e;" horiz-adv-x="695" d="M21 0l92 496h175l-34 -185h38q12 43 31 82.5t53 67.5q27 23 63.5 35.5t84.5 12.5q47 0 80.5 -12t54.5 -33.5t30.5 -52.5t9.5 -68q0 -26 -3 -55t-8 -58t-12.5 -55.5t-17.5 -47.5q-34 -75 -86 -104.5t-121 -29.5q-94 0 -137.5 44.5t-43.5 121.5q0 8 0.5 16t1.5 16h-40 l-35 -191h-176zM505 360q-9 0 -15 -4t-11 -10q-10 -10 -19 -35t-15 -57q-5 -22 -6.5 -41.5t-1.5 -33.5t6 -25.5t23 -11.5q10 0 18 5t13 12q7 9 14 29.5t12 45t8 48.5t3 41q0 37 -29 37z" />
<glyph unicode="&#x44f;" horiz-adv-x="495" d="M288 366q-14 0 -27.5 -9t-13.5 -30q0 -12 8 -19.5t24 -7.5h35l13 66h-39zM434 0h-175l33 178h-13q-15 0 -31 -13t-32 -54l-40 -111h-169l49 133q8 21 23 44.5t49 33.5q-29 15 -41 46t-12 62q0 42 14.5 75t41 56t62.5 35t79 12h253z" />
<glyph unicode="&#x451;" horiz-adv-x="478" d="M293 368q-19 0 -35 -15.5t-22 -50.5q45 0 64.5 10t19.5 29q0 11 -6 19t-21 8zM451 102q-32 -59 -87 -85t-129 -26q-41 0 -75 11t-59 32t-38.5 52.5t-13.5 72.5q0 20 2 41.5t5 40.5q7 49 22.5 97t43.5 86t71.5 61t107.5 23q48 0 82.5 -11t57.5 -29.5t34 -43.5t11 -52 q0 -51 -20 -85.5t-54 -55.5t-78.5 -30t-93.5 -9q-5 0 -10.5 0.5t-11.5 0.5q-6 -33 4 -46.5t39 -13.5q16 0 35 9.5t37 32.5zM365 562l24 133h144l-25 -133h-143zM155 562l25 133h142l-24 -133h-143z" />
<glyph unicode="&#x452;" horiz-adv-x="521" d="M416 485q51 0 83 -37t32 -121q0 -15 -1 -32t-4 -36q-8 -60 -21 -112.5t-37 -92t-62.5 -62t-99.5 -22.5q-11 0 -23.5 1t-26.5 3l26 142q14 3 23.5 7t16.5 15.5t12.5 33t11.5 59.5q2 12 3 22.5t1 18.5q0 28 -9.5 38t-26.5 10q-12 0 -21 -8t-15 -19t-10 -24t-6 -23l-45 -246 h-177l100 545h-43l19 106h44l15 81h175l-16 -81h150l-19 -106h-151l-21 -110l3 -1q31 28 64.5 39.5t55.5 11.5z" />
<glyph unicode="&#x453;" horiz-adv-x="452" d="M228 581l134 216l119 -61l-169 -203zM288 510q37 0 69.5 -8.5t57 -25.5t39 -43t15.5 -62q0 -44 -19 -74t-47.5 -50t-62.5 -32t-63 -21q-9 -3 -20.5 -6t-21 -8.5t-16 -12.5t-6.5 -17q0 -11 8.5 -14t17.5 -3q23 0 48 14.5t47 37.5l103 -98q-45 -51 -96.5 -72.5 t-120.5 -21.5q-39 0 -72.5 9t-58 26t-39 43t-14.5 59q0 50 22.5 84t56 56.5t73 36.5t73.5 24q37 11 37 29q0 10 -7 12.5t-15 2.5q-22 0 -52.5 -13.5t-53.5 -35.5l-86 97q44 45 92.5 66t111.5 21z" />
<glyph unicode="&#x454;" horiz-adv-x="451" d="M446 111q-32 -62 -86.5 -89.5t-123.5 -27.5q-98 0 -142 43.5t-44 117.5q0 40 6 87q8 54 23 98.5t35 73.5q31 45 75.5 69.5t111.5 24.5q69 0 115 -30.5t57 -86.5l-136 -62q-8 17 -17.5 23t-19.5 6q-23 0 -34.5 -14.5t-19.5 -37.5h91l-20 -107h-92v-8q-1 -20 6.5 -33.5 t31.5 -13.5q11 0 25 7t29 26z" />
<glyph unicode="&#x455;" horiz-adv-x="458" d="M150 182q17 -32 34.5 -42t43.5 -10q15 0 28 8t13 22q0 11 -11.5 17t-29.5 11q-23 7 -48 16.5t-45.5 25.5t-34 40.5t-13.5 61.5q0 43 18 76t46.5 55.5t64.5 34t72 11.5q66 0 114.5 -26t70.5 -77l-114 -78q-15 28 -35 35.5t-36 7.5q-20 0 -28 -9.5t-8 -14.5 q0 -14 11.5 -20.5t36.5 -13.5q22 -6 46.5 -16t45.5 -26t34.5 -40t13.5 -58q0 -41 -14.5 -75t-43 -58t-70 -36t-96.5 -10q-79 3 -123.5 34t-67.5 88z" />
<glyph unicode="&#x456;" horiz-adv-x="284" d="M34 0l92 497h176l-92 -497h-176zM139 569l26 142h176l-26 -142h-176z" />
<glyph unicode="&#x457;" horiz-adv-x="284" d="M263 555l24 133h144l-25 -133h-143zM53 555l25 133h142l-24 -133h-143zM34 0l92 497h176l-92 -497h-176z" />
<glyph unicode="&#x458;" horiz-adv-x="288" d="M206 -42q-17 -83 -67 -124t-143 -41h-12.5h-22.5t-22.5 0.5t-13.5 1.5l29 154h26q31 0 43 16t17 46l90 486h176zM143 569l27 142h176l-26 -142h-177z" />
<glyph unicode="&#x459;" horiz-adv-x="750" d="M316 220q7 35 13.5 70.5t12.5 70.5h-44l-19 -94q-14 -69 -33 -120t-49 -85.5t-74 -53t-108 -21.5q-5 32 -9 63.5t-8 63.5q28 7 48 16.5t34 27t24 46t18 75.5l42 217h378l-30 -159h63q50 0 82.5 -14t51 -35t26 -46.5t7.5 -49.5q0 -35 -13.5 -70.5t-42 -64t-73.5 -46.5 t-108 -18q-99 0 -147 43.5t-48 119.5q0 29 6 64zM482 178q-4 -20 4 -32t31 -12q26 0 36 15t10 26q0 12 -7.5 21.5t-33.5 9.5h-35z" />
<glyph unicode="&#x45a;" horiz-adv-x="730" d="M258 336h60q8 40 15 79.5t15 80.5h174l-30 -159h63q50 0 82.5 -14t51 -35t26 -46.5t7.5 -49.5q0 -35 -13.5 -70.5t-42 -64t-73.5 -46.5t-108 -18q-99 0 -147 43.5t-48 119.5q0 23 3 49h-59l-38 -205h-175l92 496h175zM462 178q-4 -20 4 -32t31 -12q26 0 36 15t10 26 q0 12 -7.5 21.5t-33.5 9.5h-35z" />
<glyph unicode="&#x45b;" horiz-adv-x="519" d="M284 434q36 29 71 40t56 11q38 0 62.5 -11t36.5 -31.5t14 -49.5t-5 -65l-60 -328h-177l49 268q5 24 -0.5 38t-27.5 14q-11 0 -19.5 -6t-15 -15t-10.5 -19.5t-6 -20.5l-48 -259h-177l99 540h-37l19 108h38l16 84h175l-16 -84h154l-19 -108h-155l-20 -105z" />
<glyph unicode="&#x45c;" horiz-adv-x="516" d="M407 260q31 -12 44 -37t15 -62l10 -161h-174l-4 119q-1 28 -13 45t-40 17h-15l-33 -181h-176l92 495h175l-32 -174h7q10 0 19 1.5t17.5 7.5t17 18.5t17.5 34.5l48 113h179l-61 -144q-16 -38 -41 -61t-52 -31zM264 581l134 216l119 -61l-169 -203z" />
<glyph unicode="&#x45e;" horiz-adv-x="507" d="M560 497q-27 -74 -55.5 -147.5t-59.5 -143.5t-65.5 -133.5t-73.5 -117.5q-24 -33 -54.5 -64.5t-69.5 -56t-87 -39t-106 -14.5l-9 149q56 6 91 23.5t63 54.5l-63 489h183l6 -138q1 -18 1 -42.5t-1 -50.5t-2.5 -50.5t-3.5 -41.5h5q14 28 29 65t29.5 79t28.5 87.5t28 91.5 h186zM335 536q-48 0 -78.5 17.5t-47.5 44t-22 57t-1 57.5h107q-4 -29 8 -51t42 -22q32 0 52 23t27 50h111q-5 -27 -19 -58t-38 -57t-59.5 -43.5t-81.5 -17.5z" />
<glyph unicode="&#x45f;" horiz-adv-x="513" d="M125 -223l41 177l140 12l-46 -189h-135zM286 61q-17 -22 -36 -36t-37 -21.5t-34 -10t-26 -2.5q-39 0 -63 11t-36 31.5t-13 49.5t5 65l65 349h177l-54 -288q-4 -24 1.5 -38t26.5 -14q11 0 20 6.5t15.5 16t11 21t6.5 21.5l51 275h177l-92 -497h-175l13 60z" />
<glyph unicode="&#x490;" horiz-adv-x="503" d="M313 540l-100 -540h-185l130 696h289l22 125h142l-50 -281h-248z" />
<glyph unicode="&#x491;" horiz-adv-x="435" d="M264 360l-65 -360h-177l89 497h237l22 116h137l-46 -253h-197z" />
<glyph unicode="&#x4d9;" horiz-adv-x="484" d="M240 131q19 0 35 15.5t22 50.5q-45 0 -64.5 -10t-19.5 -29q0 -11 6 -19t21 -8zM82 397q35 54 85.5 83.5t124.5 29.5q41 0 76 -11t61 -32.5t40.5 -53.5t14.5 -73q0 -58 -11.5 -120t-40 -113t-77 -83.5t-123.5 -32.5q-48 0 -82.5 11t-57.5 29.5t-34 43.5t-11 52 q0 51 20 85.5t54 55.5t78.5 30t93.5 9q5 0 10.5 -0.5t11.5 -0.5q6 33 -4 46.5t-39 13.5q-16 0 -35 -9.5t-37 -32.5z" />
<glyph unicode="&#x1e80;" horiz-adv-x="790" d="M580 310l49 163l67 223h193l-255 -696h-185l-4 167l-1 182l-5 -1q-4 -12 -13.5 -36.5t-19.5 -51t-19.5 -50t-13.5 -34.5l-72 -176h-184l1 696h179l-12 -211q-1 -11 -2.5 -35t-3.5 -52t-4 -53.5t-3 -37.5h4l67 178l80 211h152l2 -215v-35v-51v-51t-1 -34h4zM533 733 l-218 117l94 119l191 -152z" />
<glyph unicode="&#x1e81;" horiz-adv-x="758" d="M401 236q-15 -40 -30.5 -78.5t-31.5 -73.5q-10 -22 -20 -43t-20 -41h-184l-39 496h189v-150q0 -26 -0.5 -58t-4.5 -61h4q28 61 52 123.5t50 145.5h153v-136q0 -24 -0.5 -62t-3.5 -71h5q29 63 52.5 127t45.5 142h198q-26 -72 -53.5 -136t-56.5 -124t-61 -118t-68 -118 h-177q1 28 1 55.5v55.5q0 37 0.5 66.5t2.5 58.5h-3zM418 541l-122 214l127 61l91 -230z" />
<glyph unicode="&#x1e82;" horiz-adv-x="790" d="M580 310l49 163l67 223h193l-255 -696h-185l-4 167l-1 182l-5 -1q-4 -12 -13.5 -36.5t-19.5 -51t-19.5 -50t-13.5 -34.5l-72 -176h-184l1 696h179l-12 -211q-1 -11 -2.5 -35t-3.5 -52t-4 -53.5t-3 -37.5h4l67 178l80 211h152l2 -215v-35v-51v-51t-1 -34h4zM432 805 l219 132l59 -121l-234 -95z" />
<glyph unicode="&#x1e83;" horiz-adv-x="758" d="M401 236q-15 -40 -30.5 -78.5t-31.5 -73.5q-10 -22 -20 -43t-20 -41h-184l-39 496h189v-150q0 -26 -0.5 -58t-4.5 -61h4q28 61 52 123.5t50 145.5h153v-136q0 -24 -0.5 -62t-3.5 -71h5q29 63 52.5 127t45.5 142h198q-26 -72 -53.5 -136t-56.5 -124t-61 -118t-68 -118 h-177q1 28 1 55.5v55.5q0 37 0.5 66.5t2.5 58.5h-3zM382 581l134 216l119 -61l-169 -203z" />
<glyph unicode="&#x1e84;" horiz-adv-x="790" d="M580 310l49 163l67 223h193l-255 -696h-185l-4 167l-1 182l-5 -1q-4 -12 -13.5 -36.5t-19.5 -51t-19.5 -50t-13.5 -34.5l-72 -176h-184l1 696h179l-12 -211q-1 -11 -2.5 -35t-3.5 -52t-4 -53.5t-3 -37.5h4l67 178l80 211h152l2 -215v-35v-51v-51t-1 -34h4zM545 737 l25 133h143l-25 -133h-143zM335 737l25 133h143l-25 -133h-143z" />
<glyph unicode="&#x1e85;" horiz-adv-x="758" d="M401 236q-15 -40 -30.5 -78.5t-31.5 -73.5q-10 -22 -20 -43t-20 -41h-184l-39 496h189v-150q0 -26 -0.5 -58t-4.5 -61h4q28 61 52 123.5t50 145.5h153v-136q0 -24 -0.5 -62t-3.5 -71h5q29 63 52.5 127t45.5 142h198q-26 -72 -53.5 -136t-56.5 -124t-61 -118t-68 -118 h-177q1 28 1 55.5v55.5q0 37 0.5 66.5t2.5 58.5h-3zM487 555l24 133h144l-25 -133h-143zM277 555l25 133h142l-24 -133h-143z" />
<glyph unicode="&#x1ef2;" horiz-adv-x="557" d="M332 433l58 125l66 138h199l-255 -425l-51 -271h-183l49 264l-97 432h181l17 -131q4 -33 7.5 -61.5t4.5 -70.5h4zM413 718l-218 117l94 119l191 -152z" />
<glyph unicode="&#x1ef3;" horiz-adv-x="507" d="M560 497q-27 -74 -55.5 -147.5t-59.5 -143.5t-65.5 -133.5t-73.5 -117.5q-24 -33 -54.5 -64.5t-69.5 -56t-87 -39t-106 -14.5l-9 149q56 6 91 23.5t63 54.5l-63 489h183l6 -138q1 -18 1 -42.5t-1 -50.5t-2.5 -50.5t-3.5 -41.5h5q14 28 29 65t29.5 79t28.5 87.5t28 91.5 h186zM303 541l-122 214l127 61l91 -230z" />
<glyph unicode="&#x2013;" horiz-adv-x="488" d="M38 210l24 131h451l-24 -131h-451z" />
<glyph unicode="&#x2014;" horiz-adv-x="975" d="M38 210l24 131h937l-24 -131h-937z" />
<glyph unicode="&#x2015;" horiz-adv-x="975" d="M38 210l24 131h937l-24 -131h-937z" />
<glyph unicode="&#x2018;" horiz-adv-x="279" d="M343 730l-63 -160h34l-32 -170h-181l29 160l107 170h106z" />
<glyph unicode="&#x2019;" horiz-adv-x="279" d="M104 400l62 160h-34l32 170h182l-30 -160l-106 -170h-106z" />
<glyph unicode="&#x201a;" horiz-adv-x="301" d="M10 -163l64 161h-35l31 174h186l-31 -164l-107 -171h-108z" />
<glyph unicode="&#x201c;" horiz-adv-x="492" d="M343 730l-63 -160h34l-32 -170h-181l29 160l107 170h106zM558 730l-63 -160h34l-32 -170h-181l29 160l107 170h106z" />
<glyph unicode="&#x201d;" horiz-adv-x="492" d="M319 400l63 160h-34l32 170h181l-30 -160l-106 -170h-106zM104 400l62 160h-33l32 170h181l-30 -160l-106 -170h-106z" />
<glyph unicode="&#x201e;" horiz-adv-x="532" d="M10 -163l64 161h-35l31 174h186l-31 -164l-107 -171h-108zM241 -163l64 161h-35l32 174h186l-31 -164l-107 -171h-109z" />
<glyph unicode="&#x2020;" horiz-adv-x="493" d="M374 338l-91 -497h-171l92 497h-140l28 148h140l36 200h171l-37 -200h139l-28 -148h-139z" />
<glyph unicode="&#x2021;" horiz-adv-x="493" d="M205 343h-140l28 149h139l36 194h171l-36 -194h138l-27 -149h-139l-18 -97h139l-28 -148h-138l-47 -257h-171l47 257h-139l27 148h140z" />
<glyph unicode="&#x2022;" horiz-adv-x="493" d="M251 111q-34 0 -63.5 12.5t-51.5 35t-35 52.5t-13 65q0 34 13 64.5t35 53t51.5 35.5t63.5 13t64 -13t52 -35.5t35 -53t13 -64.5q0 -35 -13 -65t-35 -52t-52 -35t-64 -13z" />
<glyph unicode="&#x2023;" horiz-adv-x="584" d="M544 287l-463 -281v551z" />
<glyph unicode="&#x2026;" horiz-adv-x="878" d="M16 0l31 172h185l-31 -172h-185zM308 0l31 172h185l-31 -172h-185zM598 0l31 172h185l-31 -172h-185z" />
<glyph unicode="&#x2030;" horiz-adv-x="1172" d="M811 122q-5 -28 -16 -51.5t-29.5 -40.5t-45.5 -26.5t-63 -9.5q-33 0 -60.5 10.5t-46 29t-26.5 45t-2 59.5l31 171q11 57 49 92.5t108 35.5q33 0 60 -11t45 -30t25.5 -45t1.5 -57zM717 310q4 22 -14 22q-19 0 -22 -22l-36 -190q-3 -21 16 -21q16 0 21 21zM398 402 q-5 -28 -16 -51.5t-29.5 -40.5t-45.5 -26.5t-63 -9.5q-33 0 -60.5 10.5t-46 29t-26.5 45t-2 59.5l31 171q11 57 49 92.5t108 35.5q33 0 60 -11t45 -30t25.5 -45t1.5 -57zM304 590q4 22 -14 22q-19 0 -22 -22l-36 -190q-3 -21 16 -21q16 0 21 21zM286 -17h-128l496 730h128z M1132 122q-5 -28 -16 -51.5t-29.5 -40.5t-45.5 -26.5t-63 -9.5q-33 0 -60.5 10.5t-46 29t-26.5 45t-2 59.5l31 171q11 57 49 92.5t108 35.5q33 0 60 -11t45 -30t25.5 -45t1.5 -57zM1038 310q4 22 -14 22q-19 0 -22 -22l-36 -190q-3 -21 16 -21q16 0 21 21z" />
<glyph unicode="&#x2039;" horiz-adv-x="395" d="M158 28l-89 207l166 207h171l-165 -207l88 -207h-171z" />
<glyph unicode="&#x203a;" horiz-adv-x="395" d="M32 28l164 207l-87 207h170l89 -207l-166 -207h-170z" />
<glyph unicode="&#x2044;" horiz-adv-x="195" d="M-38 -17h-128l496 730h128z" />
<glyph unicode="&#x2070;" horiz-adv-x="353" d="M379 492q-5 -28 -16 -51.5t-29.5 -40.5t-45.5 -26.5t-63 -9.5q-33 0 -60.5 10.5t-46 29t-26.5 45t-2 59.5l31 171q11 57 49 92.5t108 35.5q33 0 60 -11t45 -30t25.5 -45t1.5 -57zM285 680q4 22 -14 22q-19 0 -22 -22l-36 -190q-3 -21 16 -21q16 0 21 21z" />
<glyph unicode="&#x2074;" horiz-adv-x="357" d="M384 610l-15 -83h30l-18 -99h-30l-11 -58h-116l11 58h-178l14 80l173 297h119l-160 -278h50l16 83h115z" />
<glyph unicode="&#x2075;" horiz-adv-x="355" d="M304 672q37 0 57 -12t28 -31.5t7.5 -44.5t-3.5 -52q-5 -35 -16 -65.5t-31 -53t-49 -35t-69 -12.5q-28 0 -53 6t-44 19.5t-30.5 34.5t-11.5 51v9t1 9l128 17q-2 -15 -0.5 -27.5t12.5 -12.5q7 0 12.5 5.5t9 13t5.5 16.5t3 16q1 5 2 14t0.5 17.5t-4.5 15t-12 6.5t-12.5 -4 t-11.5 -16h-106q11 63 23 124.5t24 124.5h270l-18 -99h-145q-2 -11 -4 -21t-4 -21q11 4 22.5 6t19.5 2z" />
<glyph unicode="&#x2076;" horiz-adv-x="352" d="M217 366q-36 0 -61.5 9t-41 25.5t-22.5 39t-7 48.5q0 21 9.5 51t25.5 53l147 213h137l-114 -167q19 1 36.5 -3t30.5 -14t21 -27.5t8 -43.5q0 -38 -10.5 -71t-31.5 -58.5t-52.5 -40t-74.5 -14.5zM242 548q-9 0 -18 -9q-6 -6 -10 -22.5t-4 -28.5q0 -13 4 -17.5t12 -4.5 q16 0 22.5 17t8.5 41q1 24 -15 24z" />
<glyph unicode="&#x2077;" horiz-adv-x="338" d="M222 370h-130l189 336h-43l-8 -46h-108l27 145h288l-16 -89z" />
<glyph unicode="&#x2078;" horiz-adv-x="357" d="M284 809q65 0 98 -29.5t33 -75.5q0 -11 -2.5 -25.5t-10 -29.5t-20 -29t-31.5 -23v-1q21 -11 29 -29t8 -40q0 -36 -12.5 -66t-35 -51.5t-53.5 -33.5t-69 -12q-66 0 -101.5 32.5t-35.5 83.5q0 10 2.5 25.5t10 32.5t21 33t36.5 27v1q-17 9 -23.5 25t-6.5 35q0 28 10.5 55 t31 48t51 34t70.5 13zM229 469q8 0 14 6.5t10 16.5t6 21.5t2 20.5t-5 13.5t-13 4.5q-14 0 -21.5 -16.5t-9.5 -36.5v-7t1.5 -10t5 -9t10.5 -4zM259 642q14 0 19.5 14t7.5 31q0 12 -3.5 16.5t-10.5 4.5q-12 0 -18.5 -13.5t-8.5 -30.5q0 -13 4 -17.5t10 -4.5z" />
<glyph unicode="&#x2079;" horiz-adv-x="354" d="M283 809q36 0 61.5 -9t41 -25.5t22.5 -39t7 -48.5q0 -21 -9.5 -51t-25.5 -53l-147 -213h-137l114 167q-19 -1 -36.5 3t-30.5 14t-21 27.5t-8 43.5q0 37 10.5 70.5t31.5 59t52.5 40t74.5 14.5zM258 627q9 0 18 9q6 6 10 22.5t4 28.5q0 13 -4 17.5t-12 4.5q-16 0 -22.5 -17 t-8.5 -41q-1 -24 15 -24z" />
<glyph unicode="&#x207a;" horiz-adv-x="363" d="M292 500l-19 -101h-102l19 101h-105l18 95h105l18 101h101l-18 -101h106l-18 -95h-105z" />
<glyph unicode="&#x207b;" horiz-adv-x="363" d="M128 474l19 104h224l-19 -104h-224z" />
<glyph unicode="&#x207c;" horiz-adv-x="363" d="M103 554l17 93h305l-17 -93h-305zM79 425l18 92h304l-17 -92h-305z" />
<glyph unicode="&#x207d;" horiz-adv-x="258" d="M171 281q-33 49 -53.5 105t-20.5 116q0 46 14 91t37.5 88t55 83t66.5 75l75 -47q-63 -74 -94 -150t-31 -143q0 -88 38 -167z" />
<glyph unicode="&#x207e;" horiz-adv-x="258" d="M34 334q58 69 91 143.5t33 147.5q0 42 -10 85.5t-30 83.5l93 45q30 -47 50 -103t20 -117q0 -45 -13.5 -89.5t-37.5 -87.5t-57 -83.5t-71 -77.5z" />
<glyph unicode="&#x207f;" horiz-adv-x="353" d="M239 560q23 25 48.5 34t36.5 9q27 0 43.5 -7.5t25 -21t9.5 -33t-3 -42.5l-39 -219h-130l33 180q2 11 -1 18t-15 7t-19 -11.5t-9 -23.5l-31 -169h-131l59 316h130l-7 -37v0z" />
<glyph unicode="&#x2080;" horiz-adv-x="353" d="M295 32q-5 -28 -16 -51.5t-29.5 -40.5t-45.5 -26.5t-63 -9.5q-33 0 -60.5 10.5t-46 29t-26.5 45t-2 59.5l31 171q11 57 49 92.5t108 35.5q33 0 60 -11t45 -30t25.5 -45t1.5 -57zM201 220q4 22 -14 22q-19 0 -22 -22l-36 -190q-3 -21 16 -21q16 0 21 21z" />
<glyph unicode="&#x2081;" horiz-adv-x="295" d="M82 -90l55 299l-69 -43l23 125l89 54h114l-81 -435h-131z" />
<glyph unicode="&#x2082;" horiz-adv-x="352" d="M40 218q17 66 61 99t101 33q60 0 95 -25t35 -73q0 -27 -13.5 -58t-39.5 -60l-115 -125h122l-19 -99h-283l16 83l179 191q8 10 13.5 22t5.5 23q0 14 -13 14q-8 0 -15 -9.5t-14 -35.5z" />
<glyph unicode="&#x2083;" horiz-adv-x="353" d="M198 350q35 0 60 -8.5t41.5 -22.5t24 -32.5t7.5 -39.5q0 -35 -14 -63t-52 -48q22 -9 30 -26.5t8 -37.5q0 -35 -10.5 -65.5t-31 -53t-51 -35t-70.5 -12.5q-27 0 -52 6t-44.5 19t-31 34.5t-11.5 51.5v8t1 9l122 14q-2 -6 -2 -10.5v-8.5q0 -14 5.5 -17t10.5 -3q7 0 12.5 5.5 t9.5 14t6 17.5t2 16q0 13 -5 20t-20 7h-32l15 84h36q10 0 16.5 5.5t11 14t6.5 17.5t2 15q0 17 -14 17q-7 0 -15 -6.5t-16 -34.5l-112 17q13 66 55.5 99t101.5 33z" />
<glyph unicode="&#x2084;" horiz-adv-x="357" d="M300 150l-15 -83h30l-18 -99h-30l-11 -58h-116l11 58h-178l14 80l173 297h119l-160 -278h50l16 83h115z" />
<glyph unicode="&#x2085;" horiz-adv-x="355" d="M220 212q37 0 57 -12t28 -31.5t7.5 -44.5t-3.5 -52q-5 -35 -16 -65.5t-31 -53t-49 -35t-69 -12.5q-28 0 -53 6t-44 19.5t-30.5 34.5t-11.5 51v9t1 9l128 17q-2 -15 -0.5 -27.5t12.5 -12.5q7 0 12.5 5.5t9 13t5.5 16.5t3 16q1 5 2 14t0.5 17.5t-4.5 15t-12 6.5t-12.5 -4 t-11.5 -16h-106q11 63 23 124.5t24 124.5h270l-18 -99h-145q-2 -11 -4 -21t-4 -21q11 4 22.5 6t19.5 2z" />
<glyph unicode="&#x2086;" horiz-adv-x="352" d="M133 -94q-36 0 -61.5 9t-41 25.5t-22.5 39t-7 48.5q0 21 9.5 51t25.5 53l147 213h137l-114 -167q19 1 36.5 -3t30.5 -14t21 -27.5t8 -43.5q0 -38 -10.5 -71t-31.5 -58.5t-52.5 -40t-74.5 -14.5zM158 88q-9 0 -18 -9q-6 -6 -10 -22.5t-4 -28.5q0 -13 4 -17.5t12 -4.5 q16 0 22.5 17t8.5 41q1 24 -15 24z" />
<glyph unicode="&#x2087;" horiz-adv-x="338" d="M138 -90h-130l189 336h-43l-8 -46h-108l27 145h288l-16 -89z" />
<glyph unicode="&#x2088;" horiz-adv-x="357" d="M200 349q65 0 98 -29.5t33 -75.5q0 -11 -2.5 -25.5t-10 -29.5t-20 -29t-31.5 -23v-1q21 -11 29 -29t8 -40q0 -36 -12.5 -66t-35 -51.5t-53.5 -33.5t-69 -12q-66 0 -101.5 32.5t-35.5 83.5q0 10 2.5 25.5t10 32.5t21 33t36.5 27v1q-17 9 -23.5 25t-6.5 35q0 28 10.5 55 t31 48t51 34t70.5 13zM145 9q8 0 14 6.5t10 16.5t6 21.5t2 20.5t-5 13.5t-13 4.5q-14 0 -21.5 -16.5t-9.5 -36.5v-7t1.5 -10t5 -9t10.5 -4zM175 182q14 0 19.5 14t7.5 31q0 12 -3.5 16.5t-10.5 4.5q-12 0 -18.5 -13.5t-8.5 -30.5q0 -13 4 -17.5t10 -4.5z" />
<glyph unicode="&#x2089;" horiz-adv-x="354" d="M199 349q36 0 61.5 -9t41 -25.5t22.5 -39t7 -48.5q0 -21 -9.5 -51t-25.5 -53l-147 -213h-137l114 167q-19 -1 -36.5 3t-30.5 14t-21 27.5t-8 43.5q0 37 10.5 70.5t31.5 59t52.5 40t74.5 14.5zM174 167q9 0 18 9q6 6 10 22.5t4 28.5q0 13 -4 17.5t-12 4.5q-16 0 -22.5 -17 t-8.5 -41q-1 -24 15 -24z" />
<glyph unicode="&#x208a;" horiz-adv-x="363" d="M227 48l-19 -102h-102l19 102h-105l18 95h105l18 100h102l-19 -100h106l-18 -95h-105z" />
<glyph unicode="&#x208b;" horiz-adv-x="363" d="M63 22l19 103h224l-20 -103h-223z" />
<glyph unicode="&#x208c;" horiz-adv-x="363" d="M33 101l17 93h305l-17 -93h-305zM9 -28l17 92h305l-17 -92h-305z" />
<glyph unicode="&#x208d;" horiz-adv-x="258" d="M87 -179q-33 49 -53.5 105t-20.5 116q0 46 14 91t37.5 88t55 83t66.5 75l75 -47q-63 -74 -94 -150t-31 -143q0 -88 38 -167z" />
<glyph unicode="&#x208e;" horiz-adv-x="258" d="M-34 -126q58 69 91 143.5t33 147.5q0 42 -10 85.5t-30 83.5l93 45q30 -47 50 -103t20 -117q0 -45 -13.5 -89.5t-37.5 -87.5t-57 -83.5t-71 -77.5z" />
<glyph unicode="&#x20ab;" horiz-adv-x="530" d="M275 553q4 21 7.5 42.5t8.5 42.5h88l11 58h153l-11 -58h38q-4 -21 -7.5 -42.5t-8.5 -42.5h-38q-20 -107 -39.5 -212.5t-39.5 -212.5h-149l8 37h-3q-25 -27 -54 -35t-42 -8q-47 0 -75 22.5t-28 69.5q0 41 3 63t6 42q7 35 17 67t21 53q17 31 47 53t77 22q17 0 42.5 -5 t40.5 -22h2l13 66h-88zM84 85h345l-23 -118h-344zM303 394q-18 0 -29 -21.5t-18 -56.5q-3 -14 -4.5 -27t-1.5 -21q0 -11 4.5 -19t17.5 -8q15 0 26 14.5t19 47.5q4 14 5.5 26.5t2.5 24.5q1 14 -2.5 27t-19.5 13z" />
<glyph unicode="&#x20ac;" horiz-adv-x="530" d="M576 541q-40 -15 -79 -29.5t-79 -28.5q-2 29 -14.5 42.5t-29.5 13.5q-20 0 -32 -8.5t-20 -22.5t-13 -31.5t-9 -35.5h104l-15 -77h-103l-6 -32h103l-14 -76h-103q-3 -15 -5.5 -29t-2.5 -28q0 -19 7 -34t33 -15q20 0 39 15t33 51l139 -56q-32 -75 -88.5 -120.5 t-146.5 -45.5q-94 0 -142 41t-48 118q0 26 3.5 51t8.5 52h-37l14 76h37l6 32h-37l14 77h37q4 19 9 37.5t10 36.5q13 40 34 74t50.5 58.5t68 38t86.5 13.5q91 0 138 -44t50 -114z" />
<glyph unicode="&#x2103;" horiz-adv-x="890" d="M715 704q54 0 93.5 -14.5t65.5 -40t39 -60.5t14 -76l-170 -43v7q0 38 -13.5 53.5t-33.5 15.5q-23 0 -36 -12.5t-21 -30.5q-4 -12 -7.5 -25t-5.5 -27q-11 -60 -21.5 -117.5t-21.5 -117.5q-1 -5 -1.5 -9.5t-0.5 -9.5q0 -20 11 -33t37 -13q22 0 39.5 17.5t30.5 59.5l177 -41 q-25 -91 -88.5 -142t-166.5 -51q-22 0 -37 4q-88 8 -136 56.5t-48 126.5q0 19 2 38t6 39l30 163q6 29 13 57.5t16 56.5q12 37 31.5 68.5t48 53.5t66.5 34.5t88 12.5zM413 545q0 -32 -12.5 -60.5t-34.5 -49.5t-51.5 -33.5t-63.5 -12.5q-33 0 -62.5 12.5t-51.5 33.5 t-34.5 49.5t-12.5 60.5t12.5 60.5t34.5 49.5t51.5 33.5t62.5 12.5q34 0 63.5 -12.5t51.5 -33.5t34.5 -49.5t12.5 -60.5zM309 545q0 24 -16.5 40.5t-41.5 16.5t-41 -16.5t-16 -40.5q0 -23 16 -40t41 -17t41.5 17t16.5 40z" />
<glyph unicode="&#x2105;" horiz-adv-x="810" d="M656 358q45 0 74.5 -13t47 -35.5t23 -52.5t1.5 -64q-8 -94 -54 -144.5t-131 -50.5q-42 0 -70 10.5t-45.5 29t-24.5 43t-7 53.5q0 50 12 91t35.5 70.5t58 46t80.5 16.5zM756 713q-125 -183 -248 -365t-248 -365h-127l495 730h128zM280 701q110 0 125 -91 q-24 -13 -48 -25.5t-49 -24.5q-4 19 -12.5 24.5t-16.5 5.5q-16 0 -26 -16q-3 -5 -6.5 -16t-6.5 -24.5t-5 -27.5t-2 -25t5 -20t19 -9q8 0 20 5.5t24 21.5l92 -51q-25 -45 -63.5 -66t-89.5 -21q-44 0 -72 11.5t-45 30t-23.5 43t-6.5 51.5q0 45 10.5 85.5t33.5 71t58 49 t85 18.5zM626 111q17 0 24 20t12 42q2 14 4 27t2 23q0 8 -3.5 15t-11.5 7q-18 0 -24.5 -17t-13.5 -47q-4 -17 -5.5 -28.5t-1.5 -17.5q0 -11 3 -16.5t15 -7.5z" />
<glyph unicode="&#x2109;" horiz-adv-x="861" d="M662 540l-21 -113h216l-29 -158h-216l-50 -269h-184l128 696h428l-28 -156h-244zM413 545q0 -32 -12.5 -60.5t-34.5 -49.5t-51.5 -33.5t-63.5 -12.5q-33 0 -62.5 12.5t-51.5 33.5t-34.5 49.5t-12.5 60.5t12.5 60.5t34.5 49.5t51.5 33.5t62.5 12.5q34 0 63.5 -12.5 t51.5 -33.5t34.5 -49.5t12.5 -60.5zM309 545q0 24 -16.5 40.5t-41.5 16.5t-41 -16.5t-16 -40.5q0 -23 16 -40t41 -17t41.5 17t16.5 40z" />
<glyph unicode="&#x2113;" horiz-adv-x="472" d="M469 163q-42 -78 -100 -125.5t-127 -47.5q-74 0 -105.5 41t-31.5 109v14.5t2 15.5q-2 -2 -8.5 -5t-13 -7t-12.5 -7l-6 -3q-7 19 -14.5 37.5t-14.5 36.5q21 13 43.5 26.5t45.5 30.5q10 50 18.5 99.5t17.5 100.5q12 61 31.5 103.5t45.5 69.5t57 39t64 12q22 0 43 -6.5 t36.5 -20t25 -33.5t9.5 -48q0 -88 -61.5 -172t-173.5 -177q-5 -21 -8.5 -43.5t-3.5 -39.5q0 -35 13.5 -50t29.5 -15q21 0 49 27t55 79zM267 393q19 21 37 44t32 47t22 48t8 47q0 11 -5.5 19t-16.5 8q-13 0 -30.5 -26t-28.5 -85z" />
<glyph unicode="&#x2116;" horiz-adv-x="912" d="M403 379l58 317h177l-128 -696h-158q-10 42 -21.5 82.5t-22.5 82.5q-10 39 -19.5 77t-20.5 76h-4l-57 -318h-178l128 696h159l41 -160l41 -157h5zM830 693q42 0 68.5 -12t41 -32.5t18 -47.5t0.5 -58q-7 -86 -49 -132t-120 -46q-38 0 -64 9.5t-41.5 26.5t-22 39.5 t-6.5 48.5q0 45 10.5 82.5t32 64.5t54.5 42t78 15zM633 314h269l-20 -110h-269zM797 468q15 0 22 18.5t11 38.5l4 24t2 21q0 8 -3 14t-11 6q-17 0 -23 -15.5t-12 -42.5q-6 -30 -6 -42q0 -10 2.5 -15t13.5 -7z" />
<glyph unicode="&#x2117;" horiz-adv-x="794" d="M563 417q0 -60 -36 -95.5t-98 -35.5h-35v-151h-116v411h151q59 0 96.5 -30.5t37.5 -98.5zM448 417q0 36 -34 36h-20v-74h21q14 0 23.5 9t9.5 29zM394 -21q-79 0 -142.5 27.5t-108.5 76.5t-69.5 116.5t-24.5 147.5t24.5 147.5t69.5 117t108.5 77.5t142.5 28 q77 0 140.5 -27.5t108.5 -77t69.5 -117t24.5 -148.5q0 -80 -24.5 -147t-69.5 -116.5t-108.5 -77t-140.5 -27.5zM394 83q53 0 96 20.5t73.5 56t47 83.5t16.5 104q0 57 -16.5 106t-47.5 84.5t-74 56t-95 20.5q-54 0 -97 -21t-73.5 -57t-46.5 -84.5t-16 -104.5t16.5 -104 t47 -83.5t73.5 -56t96 -20.5z" />
<glyph unicode="&#x2122;" horiz-adv-x="831" d="M611 516q22 46 49 90t50 89h109l-36 -414h-114l16 166h-1l-26 -52t-27 -52h-73q-9 26 -17.5 52t-16.5 52h-1l-17 -166h-113l37 414h107zM291 593q-7 -78 -13.5 -156t-14.5 -156h-115q7 78 13.5 156t14.5 156h-101l9 103h317l-9 -103h-101z" />
<glyph unicode="&#x2126;" horiz-adv-x="588" d="M385 703q51 0 90.5 -14t67.5 -39t42.5 -60t14.5 -77q0 -12 -2 -28t-4 -29l-13 -78t-14 -78q-5 -27 -12 -54q-8 -29 -21.5 -53t-37.5 -40h55q-7 -38 -13.5 -76.5t-14.5 -76.5h-233q7 41 14.5 81t14.5 81q11 5 19 13.5t13 19.5q21 42 30 92l29 159q2 11 3.5 21.5t1.5 21.5 q0 23 -10 39.5t-36 16.5q-23 0 -36.5 -12.5t-21.5 -34.5q-10 -26 -14 -52q-8 -46 -16.5 -91.5t-17.5 -92.5q-4 -23 -6 -48q0 -39 28 -52l-30 -162h-230q7 38 13.5 76.5t14.5 76.5h59q-15 13 -21.5 33.5t-6.5 45.5q0 14 2.5 30t4.5 32l23 134q9 56 25 103q26 83 89.5 127.5 t156.5 44.5z" />
<glyph unicode="&#x212b;" horiz-adv-x="604" d="M444 933q47 0 78.5 -29t31.5 -74q0 -54 -31.5 -88.5t-74.5 -45.5h65l62 -696h-187l-5 123h-156l-48 -123h-191l319 696h67q-33 10 -54 36.5t-21 61.5q0 30 12 55.5t32 44t46 29t55 10.5zM369 482l-50 -131l-30 -78h87l-1 81v128h-6zM434 849q-19 0 -33 -13.5t-14 -30.5 q0 -14 9 -23t24 -9q18 0 32.5 14t14.5 31q0 13 -9 22t-24 9z" />
<glyph unicode="&#x212e;" horiz-adv-x="817" d="M208 295v-149q15 -21 36.5 -39.5t47 -31.5t53 -20.5t54.5 -7.5q60 0 115.5 28.5t87.5 76.5h102q-62 -75 -141.5 -119t-164.5 -44q-72 0 -136 26t-112 71t-75.5 106t-27.5 130q0 70 27.5 131t75.5 106.5t112 71.5t136 26q74 0 137.5 -27t110 -75t73.5 -114.5t30 -145.5 h-541zM587 502q-14 21 -35 38t-46.5 29.5t-53 19.5t-53.5 7q-49 0 -100 -26.5t-92 -71.5l1 1v-147h379v150z" />
<glyph unicode="&#x2153;" horiz-adv-x="863" d="M265 -17h-128l496 730h128zM693 440q35 0 60 -8.5t41.5 -22.5t24 -32.5t7.5 -39.5q0 -35 -14 -63t-52 -48q22 -9 30 -26.5t8 -37.5q0 -35 -10.5 -65.5t-31 -53t-51 -35t-70.5 -12.5q-27 0 -52 6t-44.5 19t-31 34.5t-11.5 51.5v8t1 9l122 14q-2 -6 -2 -10.5v-8.5 q0 -14 5.5 -17t10.5 -3q7 0 12.5 5.5t9.5 14t6 17.5t2 16q0 13 -5 20t-20 7h-32l15 84h36q10 0 16.5 5.5t11 14t6.5 17.5t2 15q0 17 -14 17q-7 0 -15 -6.5t-16 -34.5l-112 17q13 66 55.5 99t101.5 33zM187 280l55 299l-69 -43l23 125l89 54h114l-81 -435h-131z" />
<glyph unicode="&#x2154;" horiz-adv-x="863" d="M299 -17h-128l496 730h128zM732 440q35 0 60 -8.5t41.5 -22.5t24 -32.5t7.5 -39.5q0 -35 -14 -63t-52 -48q22 -9 30 -26.5t8 -37.5q0 -35 -10.5 -65.5t-31 -53t-51 -35t-70.5 -12.5q-27 0 -52 6t-44.5 19t-31 34.5t-11.5 51.5v8t1 9l122 14q-2 -6 -2 -10.5v-8.5 q0 -14 5.5 -17t10.5 -3q7 0 12.5 5.5t9.5 14t6 17.5t2 16q0 13 -5 20t-20 7h-32l15 84h36q10 0 16.5 5.5t11 14t6.5 17.5t2 15q0 17 -14 17q-7 0 -15 -6.5t-16 -34.5l-112 17q13 66 55.5 99t101.5 33zM122 588q17 66 61 99t101 33q60 0 95 -25t35 -73q0 -27 -13.5 -58 t-39.5 -60l-115 -125h122l-19 -99h-283l16 83l179 191q8 10 13.5 22t5.5 23q0 14 -13 14q-8 0 -15 -9.5t-14 -35.5z" />
<glyph unicode="&#x2155;" horiz-adv-x="863" d="M728 302q37 0 57 -12t28 -31.5t7.5 -44.5t-3.5 -52q-5 -35 -16 -65.5t-31 -53t-49 -35t-69 -12.5q-28 0 -53 6t-44 19.5t-30.5 34.5t-11.5 51v9t1 9l128 17q-2 -15 -0.5 -27.5t12.5 -12.5q7 0 12.5 5.5t9 13t5.5 16.5t3 16q1 5 2 14t0.5 17.5t-4.5 15t-12 6.5t-12.5 -4 t-11.5 -16h-106q11 63 23 124.5t24 124.5h270l-18 -99h-145q-2 -11 -4 -21t-4 -21q11 4 22.5 6t19.5 2zM247 -17h-128l496 730h128zM151 280l55 299l-69 -43l23 125l89 54h114l-81 -435h-131z" />
<glyph unicode="&#x2156;" horiz-adv-x="863" d="M749 302q37 0 57 -12t28 -31.5t7.5 -44.5t-3.5 -52q-5 -35 -16 -65.5t-31 -53t-49 -35t-69 -12.5q-28 0 -53 6t-44 19.5t-30.5 34.5t-11.5 51v9t1 9l128 17q-2 -15 -0.5 -27.5t12.5 -12.5q7 0 12.5 5.5t9 13t5.5 16.5t3 16q1 5 2 14t0.5 17.5t-4.5 15t-12 6.5t-12.5 -4 t-11.5 -16h-106q11 63 23 124.5t24 124.5h270l-18 -99h-145q-2 -11 -4 -21t-4 -21q11 4 22.5 6t19.5 2zM275 -17h-128l496 730h128zM100 588q17 66 61 99t101 33q60 0 95 -25t35 -73q0 -27 -13.5 -58t-39.5 -60l-115 -125h122l-19 -99h-283l16 83l179 191q8 10 13.5 22 t5.5 23q0 14 -13 14q-8 0 -15 -9.5t-14 -35.5z" />
<glyph unicode="&#x2157;" horiz-adv-x="863" d="M741 302q37 0 57 -12t28 -31.5t7.5 -44.5t-3.5 -52q-5 -35 -16 -65.5t-31 -53t-49 -35t-69 -12.5q-28 0 -53 6t-44 19.5t-30.5 34.5t-11.5 51v9t1 9l128 17q-2 -15 -0.5 -27.5t12.5 -12.5q7 0 12.5 5.5t9 13t5.5 16.5t3 16q1 5 2 14t0.5 17.5t-4.5 15t-12 6.5t-12.5 -4 t-11.5 -16h-106q11 63 23 124.5t24 124.5h270l-18 -99h-145q-2 -11 -4 -21t-4 -21q11 4 22.5 6t19.5 2zM261 -17h-128l496 730h128zM258 720q35 0 60 -8.5t41.5 -22.5t24 -32.5t7.5 -39.5q0 -35 -14 -63t-52 -48q22 -9 30 -26.5t8 -37.5q0 -35 -10.5 -65.5t-31 -53t-51 -35 t-70.5 -12.5q-27 0 -52 6t-44.5 19t-31 34.5t-11.5 51.5v8t1 9l122 14q-2 -6 -2 -10.5v-8.5q0 -14 5.5 -17t10.5 -3q7 0 12.5 5.5t9.5 14t6 17.5t2 16q0 13 -5 20t-20 7h-32l15 84h36q10 0 16.5 5.5t11 14t6.5 17.5t2 15q0 17 -14 17q-7 0 -15 -6.5t-16 -34.5l-112 17 q13 66 55.5 99t101.5 33z" />
<glyph unicode="&#x2158;" horiz-adv-x="863" d="M764 302q37 0 57 -12t28 -31.5t7.5 -44.5t-3.5 -52q-5 -35 -16 -65.5t-31 -53t-49 -35t-69 -12.5q-28 0 -53 6t-44 19.5t-30.5 34.5t-11.5 51v9t1 9l128 17q-2 -15 -0.5 -27.5t12.5 -12.5q7 0 12.5 5.5t9 13t5.5 16.5t3 16q1 5 2 14t0.5 17.5t-4.5 15t-12 6.5t-12.5 -4 t-11.5 -16h-106q11 63 23 124.5t24 124.5h270l-18 -99h-145q-2 -11 -4 -21t-4 -21q11 4 22.5 6t19.5 2zM294 -17h-128l496 730h128zM381 520l-15 -83h30l-18 -99h-30l-11 -58h-116l11 58h-178l14 80l173 297h119l-160 -278h50l16 83h115z" />
<glyph unicode="&#x2159;" horiz-adv-x="863" d="M291 -17h-128l496 730h128zM639 -4q-36 0 -61.5 9t-41 25.5t-22.5 39t-7 48.5q0 21 9.5 51t25.5 53l147 213h137l-114 -167q19 1 36.5 -3t30.5 -14t21 -27.5t8 -43.5q0 -38 -10.5 -71t-31.5 -58.5t-52.5 -40t-74.5 -14.5zM191 280l55 299l-69 -43l23 125l89 54h114 l-81 -435h-131zM664 178q-9 0 -18 -9q-6 -6 -10 -22.5t-4 -28.5q0 -13 4 -17.5t12 -4.5q16 0 22.5 17t8.5 41q1 24 -15 24z" />
<glyph unicode="&#x215a;" horiz-adv-x="863" d="M312 582q37 0 57 -12t28 -31.5t7.5 -44.5t-3.5 -52q-5 -35 -16 -65.5t-31 -53t-49 -35t-69 -12.5q-28 0 -53 6t-44 19.5t-30.5 34.5t-11.5 51v9t1 9l128 17q-2 -15 -0.5 -27.5t12.5 -12.5q7 0 12.5 5.5t9 13t5.5 16.5t3 16q1 5 2 14t0.5 17.5t-4.5 15t-12 6.5t-12.5 -4 t-11.5 -16h-106q11 63 23 124.5t24 124.5h270l-18 -99h-145q-2 -11 -4 -21t-4 -21q11 4 22.5 6t19.5 2zM301 -17h-128l496 730h128zM634 -4q-36 0 -61.5 9t-41 25.5t-22.5 39t-7 48.5q0 21 9.5 51t25.5 53l147 213h137l-114 -167q19 1 36.5 -3t30.5 -14t21 -27.5t8 -43.5 q0 -38 -10.5 -71t-31.5 -58.5t-52.5 -40t-74.5 -14.5zM659 178q-9 0 -18 -9q-6 -6 -10 -22.5t-4 -28.5q0 -13 4 -17.5t12 -4.5q16 0 22.5 17t8.5 41q1 24 -15 24z" />
<glyph unicode="&#x215b;" horiz-adv-x="863" d="M263 -17h-128l496 730h128zM174 280l55 299l-69 -43l23 125l89 54h114l-81 -435h-131zM716 439q65 0 98 -29.5t33 -75.5q0 -11 -2.5 -25.5t-10 -29.5t-20 -29t-31.5 -23v-1q21 -11 29 -29t8 -40q0 -36 -12.5 -66t-35 -51.5t-53.5 -33.5t-69 -12q-66 0 -101.5 32.5 t-35.5 83.5q0 10 2.5 25.5t10 32.5t21 33t36.5 27v1q-17 9 -23.5 25t-6.5 35q0 28 10.5 55t31 48t51 34t70.5 13zM661 99q8 0 14 6.5t10 16.5t6 21.5t2 20.5t-5 13.5t-13 4.5q-14 0 -21.5 -16.5t-9.5 -36.5v-7t1.5 -10t5 -9t10.5 -4zM691 272q14 0 19.5 14t7.5 31 q0 12 -3.5 16.5t-10.5 4.5q-12 0 -18.5 -13.5t-8.5 -30.5q0 -13 4 -17.5t10 -4.5z" />
<glyph unicode="&#x215c;" horiz-adv-x="863" d="M714 439q65 0 98 -29.5t33 -75.5q0 -11 -2.5 -25.5t-10 -29.5t-20 -29t-31.5 -23v-1q21 -11 29 -29t8 -40q0 -36 -12.5 -66t-35 -51.5t-53.5 -33.5t-69 -12q-66 0 -101.5 32.5t-35.5 83.5q0 10 2.5 25.5t10 32.5t21 33t36.5 27v1q-17 9 -23.5 25t-6.5 35q0 28 10.5 55 t31 48t51 34t70.5 13zM275 -17h-128l496 730h128zM277 720q35 0 60 -8.5t41.5 -22.5t24 -32.5t7.5 -39.5q0 -35 -14 -63t-52 -48q22 -9 30 -26.5t8 -37.5q0 -35 -10.5 -65.5t-31 -53t-51 -35t-70.5 -12.5q-27 0 -52 6t-44.5 19t-31 34.5t-11.5 51.5v8t1 9l122 14 q-2 -6 -2 -10.5v-8.5q0 -14 5.5 -17t10.5 -3q7 0 12.5 5.5t9.5 14t6 17.5t2 16q0 13 -5 20t-20 7h-32l15 84h36q10 0 16.5 5.5t11 14t6.5 17.5t2 15q0 17 -14 17q-7 0 -15 -6.5t-16 -34.5l-112 17q13 66 55.5 99t101.5 33zM659 99q8 0 14 6.5t10 16.5t6 21.5t2 20.5t-5 13.5 t-13 4.5q-14 0 -21.5 -16.5t-9.5 -36.5v-7t1.5 -10t5 -9t10.5 -4zM689 272q14 0 19.5 14t7.5 31q0 12 -3.5 16.5t-10.5 4.5q-12 0 -18.5 -13.5t-8.5 -30.5q0 -13 4 -17.5t10 -4.5z" />
<glyph unicode="&#x215d;" horiz-adv-x="863" d="M716 439q65 0 98 -29.5t33 -75.5q0 -11 -2.5 -25.5t-10 -29.5t-20 -29t-31.5 -23v-1q21 -11 29 -29t8 -40q0 -36 -12.5 -66t-35 -51.5t-53.5 -33.5t-69 -12q-66 0 -101.5 32.5t-35.5 83.5q0 10 2.5 25.5t10 32.5t21 33t36.5 27v1q-17 9 -23.5 25t-6.5 35q0 28 10.5 55 t31 48t51 34t70.5 13zM297 582q37 0 57 -12t28 -31.5t7.5 -44.5t-3.5 -52q-5 -35 -16 -65.5t-31 -53t-49 -35t-69 -12.5q-28 0 -53 6t-44 19.5t-30.5 34.5t-11.5 51v9t1 9l128 17q-2 -15 -0.5 -27.5t12.5 -12.5q7 0 12.5 5.5t9 13t5.5 16.5t3 16q1 5 2 14t0.5 17.5t-4.5 15 t-12 6.5t-12.5 -4t-11.5 -16h-106q11 63 23 124.5t24 124.5h270l-18 -99h-145q-2 -11 -4 -21t-4 -21q11 4 22.5 6t19.5 2zM273 -17h-128l496 730h128zM661 99q8 0 14 6.5t10 16.5t6 21.5t2 20.5t-5 13.5t-13 4.5q-14 0 -21.5 -16.5t-9.5 -36.5v-7t1.5 -10t5 -9t10.5 -4z M691 272q14 0 19.5 14t7.5 31q0 12 -3.5 16.5t-10.5 4.5q-12 0 -18.5 -13.5t-8.5 -30.5q0 -13 4 -17.5t10 -4.5z" />
<glyph unicode="&#x215e;" horiz-adv-x="863" d="M257 -17h-128l496 730h128zM258 280h-130l189 336h-43l-8 -46h-108l27 145h288l-16 -89zM710 439q65 0 98 -29.5t33 -75.5q0 -11 -2.5 -25.5t-10 -29.5t-20 -29t-31.5 -23v-1q21 -11 29 -29t8 -40q0 -36 -12.5 -66t-35 -51.5t-53.5 -33.5t-69 -12q-66 0 -101.5 32.5 t-35.5 83.5q0 10 2.5 25.5t10 32.5t21 33t36.5 27v1q-17 9 -23.5 25t-6.5 35q0 28 10.5 55t31 48t51 34t70.5 13zM655 99q8 0 14 6.5t10 16.5t6 21.5t2 20.5t-5 13.5t-13 4.5q-14 0 -21.5 -16.5t-9.5 -36.5v-7t1.5 -10t5 -9t10.5 -4zM685 272q14 0 19.5 14t7.5 31 q0 12 -3.5 16.5t-10.5 4.5q-12 0 -18.5 -13.5t-8.5 -30.5q0 -13 4 -17.5t10 -4.5z" />
<glyph unicode="&#x215f;" horiz-adv-x="498" d="M265 -17h-128l496 730h128zM183 280l55 299l-69 -43l23 125l89 54h114l-81 -435h-131z" />
<glyph unicode="&#x2190;" horiz-adv-x="824" d="M764 381v-115h-510l107 -104l-83 -83l-243 244l243 246l83 -83l-107 -105h510z" />
<glyph unicode="&#x2191;" horiz-adv-x="534" d="M325 0h-115v487l-104 -107l-83 83l244 243l246 -243l-83 -83l-105 107v-487z" />
<glyph unicode="&#x2192;" horiz-adv-x="824" d="M546 381l-107 105l83 83l243 -246l-243 -244l-83 83l107 104h-510v115h510z" />
<glyph unicode="&#x2193;" horiz-adv-x="534" d="M325 219l105 107l83 -83l-246 -243l-244 243l83 83l104 -107v487h115v-487z" />
<glyph unicode="&#x2196;" horiz-adv-x="840" d="M779 74l-81 -82l-462 457v-149h-115v344h346v-115h-149z" />
<glyph unicode="&#x2198;" horiz-adv-x="840" d="M121 562l81 82l462 -457v149h115v-344h-346v115h149z" />
<glyph unicode="&#x21a9;" horiz-adv-x="880" d="M238 380h421q35 0 49.5 21t14.5 51v74q0 28 -15 43.5t-49 15.5h-116v112h120q48 0 81 -13.5t54 -36.5t30 -55.5t9 -69.5v-70q0 -84 -46 -135t-140 -51h-413l107 -105l-81 -80l-241 242l241 243l81 -80z" />
<glyph unicode="&#x21aa;" horiz-adv-x="880" d="M515 486l81 80l241 -243l-241 -242l-81 80l107 105h-413q-95 0 -140.5 51t-45.5 135v70q0 37 9 69.5t30 55.5t54 36.5t81 13.5h120v-112h-116q-34 0 -49 -15.5t-15 -43.5v-74q0 -30 14.5 -51t49.5 -21h421z" />
<glyph unicode="&#x21b3;" horiz-adv-x="860" d="M191 380h426l-106 106l81 80l241 -243l-241 -242l-81 80l106 106h-541v426h115v-313z" />
<glyph unicode="&#x21b5;" horiz-adv-x="860" d="M719 693h115v-426h-541l106 -106l-81 -80l-241 242l241 243l81 -80l-106 -106h426v313z" />
<glyph unicode="&#x21de;" horiz-adv-x="522" d="M97 361h97v128l-92 -83l-83 83l232 217l240 -217l-83 -83l-99 83v-128h96v-106h-96v-43h96v-103h-96v-109h-115v109h-97v103h97v43h-97v106z" />
<glyph unicode="&#x21df;" horiz-adv-x="522" d="M97 451h97v43h-97v103h97v109h115v-109h96v-103h-96v-43h96v-106h-96v-128l99 83l83 -83l-240 -217l-232 217l83 83l92 -83v128h-97v106z" />
<glyph unicode="&#x21e0;" horiz-adv-x="834" d="M373 380v-115h-108l107 -104l-83 -83l-243 244l243 246l83 -83l-107 -105h108zM397 380h108v-115h-108v115zM530 380h108v-115h-108v115zM665 380h108v-115h-108v115z" />
<glyph unicode="&#x21e1;" horiz-adv-x="540" d="M325 370h-115v108l-104 -107l-83 83l244 243l246 -243l-83 -83l-105 107v-108zM325 346v-108h-115v108h115zM325 213v-108h-115v108h115zM325 78v-108h-115v108h115z" />
<glyph unicode="&#x21e2;" horiz-adv-x="834" d="M555 380l-107 105l83 83l243 -246l-243 -244l-83 83l107 104h-108v115h108zM423 265h-108v115h108v-115zM290 265h-108v115h108v-115zM155 265h-108v115h108v-115z" />
<glyph unicode="&#x21e3;" horiz-adv-x="540" d="M325 190l105 107l83 -83l-246 -243l-244 243l83 83l104 -107v108h115v-108zM210 322v108h115v-108h-115zM210 455v108h115v-108h-115zM210 590v108h115v-108h-115z" />
<glyph unicode="&#x21e4;" horiz-adv-x="886" d="M62 104v435h125v-435h-125zM835 381v-115h-400l107 -104l-83 -83l-243 244l243 246l83 -83l-107 -105h400z" />
<glyph unicode="&#x21e5;" horiz-adv-x="886" d="M711 104v435h125v-435h-125zM463 381l-107 105l83 83l243 -246l-243 -244l-83 83l107 104h-400v115h400z" />
<glyph unicode="&#x21e7;" horiz-adv-x="840" d="M422 579l-188 -195h83v-296h211v296h82zM28 301l394 404l394 -404h-200v-301h-388v301h-200z" />
<glyph unicode="&#x21ea;" horiz-adv-x="840" d="M312 -42v-60h211v60h-211zM223 38h387v-216h-387v216zM417 579l-188 -195h83v-196h211v196h82zM23 301l394 404l394 -404h-200v-201h-388v201h-200z" />
<glyph unicode="&#x2202;" horiz-adv-x="533" d="M260 141q22 0 39.5 15t30 39t21 54t13.5 59q-26 19 -55 19q-15 0 -30 -8.5t-27.5 -25t-20.5 -42.5t-8 -60q0 -29 11 -39.5t26 -10.5zM235 -10q-87 0 -136 47t-49 140q0 67 22 120.5t58 91t82.5 57t96.5 19.5q19 0 39 -2.5t37 -7.5q1 5 1.5 10t0.5 10q0 28 -10.5 48 t-28 32.5t-40.5 18.5t-49 6q-29 0 -63 -8l14 139q32 8 63.5 10t54.5 2q63 0 105.5 -20t69 -55.5t38 -84t11.5 -105.5q0 -116 -26 -203.5t-70 -146.5t-101 -88.5t-120 -29.5z" />
<glyph unicode="&#x2207;" horiz-adv-x="604" d="M702 696l-317 -696h-206l-63 696h586zM323 210l70 179l56 151h-134l1 -148l2 -182h5z" />
<glyph unicode="&#x220f;" horiz-adv-x="583" d="M317 -78l114 617h-119l-114 -617h-184l143 774h485l-143 -774h-182z" />
<glyph unicode="&#x2211;" horiz-adv-x="497" d="M-5 -78l28 148l163 246l-76 235l26 145h429l-27 -153h-227l72 -227l-157 -238h235l-29 -156h-437z" />
<glyph unicode="&#x2212;" horiz-adv-x="530" d="M58 240l25 137h460l-25 -137h-460z" />
<glyph unicode="&#x221a;" horiz-adv-x="594" d="M354 -76h-140l-47 345l-80 -27l-16 134l231 75l25 -199l206 536h162z" />
<glyph unicode="&#x221e;" horiz-adv-x="750" d="M221 459q43 0 84.5 -22.5t70.5 -50.5q29 35 65.5 54t91.5 19q37 0 69 -13.5t55.5 -37t36.5 -56.5t13 -72q0 -36 -13 -69t-36.5 -57.5t-57 -39.5t-74.5 -15q-47 0 -84 23.5t-66 54.5q-30 -34 -66 -56t-92 -22q-37 0 -69 13.5t-55 37.5t-36.5 57t-13.5 73q0 36 12.5 68.5 t36 57t56 39t72.5 14.5zM225 332q-17 0 -28.5 -15t-11.5 -37q0 -23 11 -39t27 -16q19 0 36.5 15t34.5 38q-16 22 -33.5 38t-35.5 16zM529 332q-15 0 -34 -14.5t-38 -37.5q19 -23 37 -39t34 -16q15 0 26.5 16t11.5 39t-11 37.5t-26 14.5z" />
<glyph unicode="&#x2227;" horiz-adv-x="530" d="M297 269l-119 -269h-178l270 537h149l71 -537h-171l-18 269h-4z" />
<glyph unicode="&#x2228;" horiz-adv-x="530" d="M294 268l117 270h178l-269 -537h-149l-72 537h171l21 -270h3z" />
<glyph unicode="&#x2229;" horiz-adv-x="530" d="M472 0h-170l54 294q6 32 -3.5 56t-42.5 24q-29 0 -46.5 -22.5t-24.5 -57.5l-54 -294h-167l58 316q8 45 27 85.5t50 71t74.5 48.5t100.5 18q59 0 101 -17.5t67.5 -48.5t33.5 -73t-1 -91z" />
<glyph unicode="&#x222a;" horiz-adv-x="530" d="M117 537h168l-55 -294q-6 -34 6.5 -57t41.5 -23q32 0 47.5 23.5t22.5 56.5l54 294h169l-59 -316q-8 -45 -26 -85.5t-48 -71t-73.5 -48.5t-103.5 -18q-57 0 -99.5 17t-68.5 47t-34.5 71.5t0.5 91.5z" />
<glyph unicode="&#x222b;" horiz-adv-x="357" d="M391 770q18 0 44 -2.5t49 -13.5l-26 -112q-11 1 -20.5 1.5t-18.5 0.5q-18 0 -32 -4t-25.5 -15.5t-20 -32.5t-14.5 -55q-4 -20 -10.5 -53.5t-14.5 -72t-16 -79t-15 -74t-11.5 -57t-5.5 -28.5q-12 -73 -29 -131t-42.5 -98.5t-62 -62.5t-87.5 -22q-42 0 -94 15l28 110 q21 -3 37 -3t29.5 4.5t24 16.5t19.5 33t18 54q10 42 28 133t45 231q10 52 24 108.5t38 102.5t62.5 76t98.5 30z" />
<glyph unicode="&#x2248;" horiz-adv-x="530" d="M257 487q22 0 41.5 -9t36 -19.5t31.5 -19t29 -8.5q19 0 40.5 13.5t47.5 43.5l68 -49q-42 -68 -81.5 -99t-79.5 -31q-23 0 -42.5 8.5t-37 18.5t-33.5 18.5t-31 8.5q-19 0 -41.5 -11t-52.5 -46l-67 51q40 63 80.5 96.5t91.5 33.5zM221 291q22 0 41.5 -9t36 -19.5t31 -19 t28.5 -8.5q20 0 41.5 13.5t47.5 43.5l68 -49q-42 -67 -81.5 -98.5t-79.5 -31.5q-23 0 -42.5 8.5t-37 18.5t-33.5 18.5t-31 8.5q-19 0 -42 -11t-53 -46l-67 51q41 63 81.5 96.5t91.5 33.5z" />
<glyph unicode="&#x2260;" horiz-adv-x="530" d="M236 140l-88 -119h-121l88 119h-70l24 128h142l48 66h-178l24 127h249l89 118h120l-87 -118h76l-24 -127h-148l-49 -66h185l-23 -128h-257z" />
<glyph unicode="&#x2264;" horiz-adv-x="530" d="M81 322l20 107l468 171l-27 -156l-221 -77q10 -5 38 -15t59 -21.5t59 -21.5t38 -14l-28 -141zM483 135l-25 -135h-436l25 135h436z" />
<glyph unicode="&#x2265;" horiz-adv-x="530" d="M50 154l28 157q7 2 24 7.5t39 12.5t46 15t46 15t39 12.5t25 8.5l-192 77l27 141l406 -171l-20 -107zM483 135l-25 -135h-436l25 135h436z" />
<glyph unicode="&#x2303;" horiz-adv-x="720" d="M56 411l300 299l300 -299l-74 -76l-226 220l-225 -220z" />
<glyph unicode="&#x2318;" horiz-adv-x="824" d="M266 501v50q0 20 -14.5 34.5t-34.5 14.5q-21 0 -35.5 -14t-14.5 -35q0 -22 14.5 -36t35.5 -14h49zM572 501h49q21 0 35 14.5t14 35.5q0 20 -14 34.5t-35 14.5q-20 0 -34.5 -14t-14.5 -35v-50zM266 196h-49q-21 0 -35.5 -14.5t-14.5 -34.5q0 -22 14.5 -36.5t35.5 -14.5 t35 14.5t14 36.5v49zM572 196v-49q0 -22 14.5 -36.5t34.5 -14.5q21 0 35 14.5t14 36.5q0 20 -14 34.5t-35 14.5h-49zM468 299v99h-98v-99h98zM572 299h49q38 0 67 -12.5t48 -33.5t28.5 -48.5t9.5 -57.5q0 -31 -9.5 -59t-28.5 -49t-48 -33.5t-67 -12.5q-36 0 -64.5 12t-48 33 t-30 49t-10.5 60v49h-98v-49q0 -30 -9.5 -58t-28.5 -49t-48 -34t-67 -13q-35 0 -63.5 12t-48.5 33t-31 49t-11 60q0 31 10.5 58.5t30 48.5t48.5 33t65 12h49v99h-49q-31 0 -59 12t-49 33t-33.5 49t-12.5 59t11.5 59t31.5 49t48.5 33t62.5 12q38 0 67 -12t48 -33t28.5 -49 t9.5 -59v-50h98v50q0 31 11 59t31.5 49t48.5 33t62 12q37 0 65.5 -12t48 -33t29.5 -49t10 -59q0 -30 -12 -57.5t-33 -49t-49 -34t-59 -12.5h-49v-99z" />
<glyph unicode="&#x2324;" horiz-adv-x="766" d="M670 696v-107h-587v107h587zM76 263l300 315l300 -315l-75 -77l-225 240l-224 -240z" />
<glyph unicode="&#x2325;" horiz-adv-x="1188" d="M591 685h543v-107h-543v107zM63 685h298l349 -579h424v-106h-502l-350 578h-219v107z" />
<glyph unicode="&#x2326;" horiz-adv-x="1168" d="M483 269l-134 -135l-67 67l135 134l-135 136l67 67l134 -135l135 135l67 -67l-135 -135l135 -135l-67 -67zM938 347l-240 244h-493v-488h493zM749 0h-647v695h647l338 -348z" />
<glyph unicode="&#x232b;" horiz-adv-x="1168" d="M572 134l-67 67l135 135l-135 135l67 67l135 -135l134 135l67 -67l-135 -136l135 -134l-67 -67l-134 135zM492 103h493v488h-493l-240 -244zM103 347l338 348h647v-695h-647z" />
<glyph unicode="&#x235f;" horiz-adv-x="804" d="M752 346q0 -73 -28 -137.5t-76 -112.5t-112.5 -75.5t-137.5 -27.5t-137 27.5t-112 75.5t-75.5 112.5t-27.5 138.5q0 73 27.5 137.5t75.5 112.5t112.5 75.5t138.5 27.5q73 0 137.5 -28t112.5 -76t75.5 -112.5t27.5 -137.5h-1zM693 346q0 61 -23 115t-63 94t-94 63t-115 23 t-115 -23t-94 -63t-63 -94t-23 -115t23 -114.5t63 -93.5t94 -63t115 -23t115 23t94 63t63 93.5t23 114.5zM521 301l26 -169l-157 76l-141 -76l21 165l-118 117l163 32l75 148l80 -146l164 -34z" />
<glyph unicode="&#x23cf;" horiz-adv-x="854" d="M768 227v-136h-702v136h702zM768 314h-702l351 351z" />
<glyph unicode="&#x25a0;" horiz-adv-x="875" d="M756 40h-633v633h633v-633z" />
<glyph unicode="&#x25a1;" horiz-adv-x="841" d="M174 94h500v505h-500v-505zM80 0v693h687v-693h-687z" />
<glyph unicode="&#x25b2;" horiz-adv-x="820" d="M781 176h-702l351 351z" />
<glyph unicode="&#x25b6;" horiz-adv-x="595" d="M138 701l351 -350l-351 -351v701z" />
<glyph unicode="&#x25bc;" horiz-adv-x="820" d="M430 176l-351 351h702z" />
<glyph unicode="&#x25c0;" horiz-adv-x="595" d="M452 0l-351 351l351 350v-701z" />
<glyph unicode="&#x25ca;" horiz-adv-x="530" d="M293 -18h-89l-174 336l175 338h89l172 -338zM249 502l-91 -183l93 -183l90 182z" />
<glyph unicode="&#x25cf;" horiz-adv-x="843" d="M744 357q0 -64 -25 -121.5t-68.5 -101t-101 -69t-121.5 -25.5q-65 0 -122.5 25t-101 68.5t-68.5 101t-25 122.5q0 66 26 123.5t69.5 100t101 67.5t120.5 25t120 -25t100.5 -68.5t69.5 -101t26 -121.5z" />
<glyph unicode="&#x25fc;" horiz-adv-x="500" d="M0 500h500v-500h-500v500z" />
<glyph unicode="&#x2602;" horiz-adv-x="780" d="M405 695q55 0 112.5 -27.5t104.5 -73.5t77 -106t30 -124q-16 18 -40 28.5t-50 10.5q-23 0 -45 -9.5t-41 -29.5h-2q-23 39 -75 39q-28 0 -62 -14v-304q0 -42 -25.5 -67.5t-73.5 -25.5q-42 0 -69.5 23.5t-27.5 74.5v13h47v-13q0 -28 13.5 -41t34.5 -13q16 0 26 5t15.5 13 t7.5 18t2 20v296q-14 7 -27 9.5t-25 2.5q-26 0 -46.5 -10t-38.5 -27q-17 20 -40 29.5t-47 9.5q-25 0 -48.5 -9.5t-40.5 -29.5l-1 1q0 64 30.5 123.5t77.5 106t105 74.5t113 28v31h29v-32zM730 363q-1 0 -1 1z" />
<glyph unicode="&#x2605;" horiz-adv-x="814" d="M605 254l39 -258l-239 117l-214 -117l32 251l-181 180l249 48l114 226l123 -223l250 -51z" />
<glyph unicode="&#x2606;" horiz-adv-x="838" d="M608 257l39 -259l-240 117l-218 -119l33 255l-183 182l254 49l113 225l124 -223l254 -51zM727 415l-213 43l-107 193l-98 -196l-212 -40l153 -153l-27 -216l184 99l206 -99l-35 221z" />
<glyph unicode="&#x2610;" horiz-adv-x="841" d="M174 94h500v505h-500v-505zM80 0v693h687v-693h-687z" />
</font>
</defs>
</svg>
